<svg xmlns="http://www.w3.org/2000/svg" width="281" height="161.891" viewBox="0 0 281 161.891">
  <g id="Big_Tent" data-name="Big Tent" transform="translate(-323.612 -173.361)">
    <g id="Group_3645" data-name="Group 3645" transform="translate(344.926 198.411)">
      <path id="Path_7953" data-name="Path 7953" d="M1027.895,300.692l-2.66,7.13-3.851-6.4,6.511-.732Z" transform="translate(-888.645 -297.63)" fill="#e34a39"/>
      <path id="Path_7954" data-name="Path 7954" d="M1102.11,286.821l-2.044,7.376-4.353-5.96,6.4-1.417Z" transform="translate(-946.564 -286.821)" fill="#ecc35e"/>
      <path id="Path_7955" data-name="Path 7955" d="M952.886,306.618l-3.248,6.836-3.3-6.8,6.551-.033Z" transform="translate(-830.165 -302.247)" fill="#9fd0d2"/>
      <path id="Path_7956" data-name="Path 7956" d="M877.916,302.378l-3.8,6.414-2.722-7.074,6.519.66Z" transform="translate(-771.772 -298.43)" fill="#ecc35e"/>
      <path id="Path_7957" data-name="Path 7957" d="M803.881,289.808l-4.313,6.034-2.1-7.385,6.41,1.352Z" transform="translate(-714.167 -288.096)" fill="#e34a39"/>
      <path id="Path_7958" data-name="Path 7958" d="M691.676,298.706l2.076,7.269-6.094-2.431,4.018-4.838Z" transform="translate(-628.598 -296.082)" fill="#9fd0d2"/>
      <path id="Path_7959" data-name="Path 7959" d="M645.017,354.075l1.931,7.34L640.87,358.8l4.147-4.725Z" transform="translate(-592.14 -339.227)" fill="#ecc35e"/>
      <path id="Path_7960" data-name="Path 7960" d="M595.157,407.189l1.512,7.459-5.978-3.035,4.467-4.424Z" transform="translate(-553.039 -380.615)" fill="#e34a39"/>
      <path id="Path_7961" data-name="Path 7961" d="M541.77,456.757l1.084,7.548-5.849-3.446,4.765-4.1Z" transform="translate(-511.206 -419.239)" fill="#9fd0d2"/>
      <path id="Path_7962" data-name="Path 7962" d="M485.1,502.536l.652,7.606-5.7-3.854,5.044-3.752Z" transform="translate(-466.832 -454.911)" fill="#ecc35e"/>
      <path id="Path_7963" data-name="Path 7963" d="M425.45,544.3l.217,7.633-5.516-4.25,5.3-3.383Z" transform="translate(-420.15 -487.453)" fill="#e34a39"/>
      <path id="Path_7964" data-name="Path 7964" d="M1205.012,299.478l-2.044,7.28,6.089-2.465-4.045-4.815Z" transform="translate(-1030.14 -296.684)" fill="#9fd0d2"/>
      <path id="Path_7965" data-name="Path 7965" d="M1252.036,354.589l-1.9,7.351,6.072-2.649-4.173-4.7Z" transform="translate(-1066.895 -339.627)" fill="#e34a39"/>
      <path id="Path_7966" data-name="Path 7966" d="M1302.547,407.43l-1.478,7.467,5.969-3.068-4.491-4.4Z" transform="translate(-1106.582 -380.803)" fill="#ecc35e"/>
      <path id="Path_7967" data-name="Path 7967" d="M1356.667,456.706l-1.05,7.554,5.838-3.479-4.788-4.075Z" transform="translate(-1149.087 -419.199)" fill="#9fd0d2"/>
      <path id="Path_7968" data-name="Path 7968" d="M1414.129,502.173l-.618,7.609,5.683-3.885-5.065-3.724Z" transform="translate(-1194.2 -454.628)" fill="#e34a39"/>
      <path id="Path_7969" data-name="Path 7969" d="M1474.651,543.607l-.183,7.635,5.5-4.281-5.318-3.354Z" transform="translate(-1241.699 -486.914)" fill="#ecc35e"/>
    </g>
    <path id="Path_7970" data-name="Path 7970" d="M642.74,336.679h0a242.726,242.726,0,0,1-62.983-52.38L566.9,269.271h0a155.853,155.853,0,0,1-100.779.039l-.115-.039-11.617,14.192a226.814,226.814,0,0,1-62.905,53.216h0" transform="translate(-52.891 -74.735)" fill="none" stroke="#9fd0d2" stroke-miterlimit="10" stroke-width="6.545"/>
    <path id="Path_7971" data-name="Path 7971" d="M338.721,520.916v-8.554H323.612Z" transform="translate(0 -264.157)" fill="#ecc35e"/>
    <g id="Group_3646" data-name="Group 3646" transform="translate(336.507 242.79)">
      <line id="Line_21" data-name="Line 21" y1="31.177" transform="translate(2.091 2.091)" fill="none" stroke="#162a5a" stroke-miterlimit="10" stroke-width="6.545"/>
      <circle id="Ellipse_302" data-name="Ellipse 302" cx="2.091" cy="2.091" r="2.091" transform="translate(0)" fill="#162a5a"/>
    </g>
    <path id="Path_7972" data-name="Path 7972" d="M1476.748,520.916v-8.554H1461.64Z" transform="translate(-886.777 -264.157)" fill="#ecc35e"/>
    <g id="Group_3647" data-name="Group 3647" transform="translate(587.758 242.79)">
      <line id="Line_22" data-name="Line 22" y1="31.177" transform="translate(2.091 2.091)" fill="none" stroke="#162a5a" stroke-miterlimit="10" stroke-width="6.545"/>
      <circle id="Ellipse_303" data-name="Ellipse 303" cx="2.091" cy="2.091" r="2.091" fill="#162a5a"/>
    </g>
    <path id="Path_7973" data-name="Path 7973" d="M605.385,695.867H324.675L338.9,636.149H591.163Z" transform="translate(-0.828 -360.614)" fill="#e34a39"/>
    <path id="Path_7974" data-name="Path 7974" d="M632.379,643.707l1.254-7.558H375.259l1.254,7.558Z" transform="translate(-40.244 -360.615)" fill="#162a5a"/>
    <path id="Path_7975" data-name="Path 7975" d="M554.258,319.854,541.124,331.6a55.82,55.82,0,0,1-74.074.3l-13.685-12.039-5.909,10.675a126.2,126.2,0,0,1-72.2,59.155H633.633l-.672-.21A126.2,126.2,0,0,1,560.82,331.39Z" transform="translate(-40.244 -114.15)" fill="#ecc35e"/>
    <path id="Path_7976" data-name="Path 7976" d="M876.594,392.458a55.829,55.829,0,0,1-63.094-.506c9.767,7.8,18.2,11.836,31.863,16.955v0C858.83,403.865,867.023,400.022,876.594,392.458Z" transform="translate(-381.732 -170.331)" fill="#e34a39"/>
    <g id="Group_3652" data-name="Group 3652" transform="translate(335.015 275.577)">
      <g id="Group_3648" data-name="Group 3648" transform="translate(0)">
        <path id="Path_7977" data-name="Path 7977" d="M663.216,638.136l1.48-1.793H644.721l1.48,1.793A11.032,11.032,0,0,0,663.216,638.136Z" transform="translate(-585.23 -636.343)" fill="#ecc35e"/>
        <path id="Path_7978" data-name="Path 7978" d="M574.708,638.136l1.48-1.793H556.213l1.48,1.793A11.032,11.032,0,0,0,574.708,638.136Z" transform="translate(-516.262 -636.343)" fill="#ecc35e"/>
        <path id="Path_7979" data-name="Path 7979" d="M484.231,638.136l1.48-1.793H465.736l1.48,1.793A11.032,11.032,0,0,0,484.231,638.136Z" transform="translate(-445.761 -636.343)" fill="#ecc35e"/>
        <path id="Path_7980" data-name="Path 7980" d="M393.754,638.136l1.48-1.793H375.259l1.48,1.793A11.032,11.032,0,0,0,393.754,638.136Z" transform="translate(-375.259 -636.343)" fill="#ecc35e"/>
      </g>
      <g id="Group_3649" data-name="Group 3649" transform="translate(79.466)">
        <path id="Path_7981" data-name="Path 7981" d="M1023.155,638.136l1.48-1.793H1004.66l1.48,1.793A11.032,11.032,0,0,0,1023.155,638.136Z" transform="translate(-945.169 -636.343)" fill="#ecc35e"/>
        <path id="Path_7982" data-name="Path 7982" d="M934.646,638.136l1.48-1.793H916.151l1.48,1.793A11.032,11.032,0,0,0,934.646,638.136Z" transform="translate(-876.201 -636.343)" fill="#ecc35e"/>
        <path id="Path_7983" data-name="Path 7983" d="M844.17,638.136l1.48-1.793H825.675l1.48,1.793A11.032,11.032,0,0,0,844.17,638.136Z" transform="translate(-805.7 -636.343)" fill="#ecc35e"/>
        <path id="Path_7984" data-name="Path 7984" d="M753.693,638.136l1.48-1.793H735.2l1.48,1.793A11.032,11.032,0,0,0,753.693,638.136Z" transform="translate(-735.198 -636.343)" fill="#ecc35e"/>
      </g>
      <g id="Group_3650" data-name="Group 3650" transform="translate(158.933)">
        <path id="Path_7985" data-name="Path 7985" d="M1383.094,638.136l1.48-1.793H1364.6l1.48,1.793A11.032,11.032,0,0,0,1383.094,638.136Z" transform="translate(-1305.107 -636.343)" fill="#ecc35e"/>
        <path id="Path_7986" data-name="Path 7986" d="M1294.585,638.136l1.48-1.793H1276.09l1.48,1.793A11.033,11.033,0,0,0,1294.585,638.136Z" transform="translate(-1236.139 -636.343)" fill="#ecc35e"/>
        <path id="Path_7987" data-name="Path 7987" d="M1204.109,638.136l1.48-1.793h-19.975l1.48,1.793A11.032,11.032,0,0,0,1204.109,638.136Z" transform="translate(-1165.638 -636.343)" fill="#ecc35e"/>
        <path id="Path_7988" data-name="Path 7988" d="M1113.631,638.136l1.48-1.793h-19.975l1.48,1.793A11.032,11.032,0,0,0,1113.631,638.136Z" transform="translate(-1095.136 -636.343)" fill="#ecc35e"/>
      </g>
      <g id="Group_3651" data-name="Group 3651" transform="translate(238.399)">
        <path id="Path_7989" data-name="Path 7989" d="M1473.57,638.136l1.48-1.793h-19.975l1.48,1.793A11.032,11.032,0,0,0,1473.57,638.136Z" transform="translate(-1455.075 -636.343)" fill="#ecc35e"/>
      </g>
    </g>
    <path id="Path_7990" data-name="Path 7990" d="M677.383,206.444V197.89H662.275Z" transform="translate(-263.893 -19.113)" fill="#9fd0d2"/>
    <path id="Path_7991" data-name="Path 7991" d="M1132.6,206.444V197.89h-15.108Z" transform="translate(-618.607 -19.113)" fill="#e34a39"/>
    <g id="Group_3653" data-name="Group 3653" transform="translate(411.276 173.361)">
      <line id="Line_23" data-name="Line 23" y1="31.177" transform="translate(2.091 2.091)" fill="none" stroke="#162a5a" stroke-miterlimit="10" stroke-width="6.545"/>
      <circle id="Ellipse_304" data-name="Ellipse 304" cx="2.091" cy="2.091" r="2.091" fill="#162a5a"/>
    </g>
    <g id="Group_3654" data-name="Group 3654" transform="translate(511.777 173.361)">
      <line id="Line_24" data-name="Line 24" y1="31.177" transform="translate(2.091 2.091)" fill="none" stroke="#162a5a" stroke-miterlimit="10" stroke-width="6.545"/>
      <circle id="Ellipse_305" data-name="Ellipse 305" cx="2.091" cy="2.091" r="2.091" fill="#162a5a"/>
    </g>
    <g id="Group_3655" data-name="Group 3655" transform="translate(355.146 205.704)">
      <path id="Path_7992" data-name="Path 7992" d="M585.7,389.728h19.541c8.557-10.615,15.482-35.145,19.774-67.566-.043,33.03.2,67.566.2,67.566h19.975c-8.484-10.605-15.127-35.1-19.382-67.475,8.533,32.375,21.954,56.869,38.923,67.475H684.71c-25.483-10.65-45.553-35.307-58.27-67.888l-1.13-1.986-1.823,1.63c-11.789,15.91-28.258,29.065-48.558,38.1h0c-20.19-8.987-36.591-22.048-48.367-37.842l-2.145-1.887-.767,1.386c-12.7,32.879-31.569,57.772-57.207,68.487h19.663c16.969-10.605,29.41-35.1,37.942-67.475-4.255,32.375-9.326,56.87-17.811,67.475h19.541s-.892-34.536-.936-67.566c4.291,32.421,12.353,56.951,20.911,67.566h19.975c-17.061-10.582-31.761-34.993-40.339-67.26,11.206,28.464,28.292,50.36,49.54,62.483h0c21.249-12.123,38.335-34.02,49.542-62.485C615.893,354.734,602.764,379.146,585.7,389.728Zm-10.775-13.419h0c-20.616-12.931-37.3-31.834-49.135-54.753a126.5,126.5,0,0,0,49.135,46.029h0a126.5,126.5,0,0,0,49.137-46.03C612.232,344.474,595.546,363.378,574.928,376.309Z" transform="translate(-466.442 -319.854)" fill="#e34a39"/>
    </g>
    <g id="Group_3656" data-name="Group 3656" transform="translate(323.847 319.664)">
      <path id="Path_7993" data-name="Path 7993" d="M335.843,836.032l-11.168,15.588h22.447Z" transform="translate(-324.675 -836.032)" fill="#9fd0d2"/>
      <path id="Path_7994" data-name="Path 7994" d="M442.21,836.032l-11.168,15.588h22.447Z" transform="translate(-407.559 -836.032)" fill="#9fd0d2"/>
      <path id="Path_7995" data-name="Path 7995" d="M548.578,836.032,537.41,851.621h22.447Z" transform="translate(-490.443 -836.032)" fill="#9fd0d2"/>
      <path id="Path_7996" data-name="Path 7996" d="M654.945,836.032l-11.168,15.588h22.447Z" transform="translate(-573.327 -836.032)" fill="#9fd0d2"/>
      <path id="Path_7997" data-name="Path 7997" d="M761.313,836.032l-11.168,15.588h19.534Z" transform="translate(-656.211 -836.032)" fill="#9fd0d2"/>
      <path id="Path_7998" data-name="Path 7998" d="M1090.7,836.032l-8.255,15.588h19.533Z" transform="translate(-915.144 -836.032)" fill="#9fd0d2"/>
      <path id="Path_7999" data-name="Path 7999" d="M1186.782,836.032l-11.168,15.588h22.447Z" transform="translate(-987.746 -836.032)" fill="#9fd0d2"/>
      <path id="Path_8000" data-name="Path 8000" d="M1293.149,836.032l-11.168,15.588h22.447Z" transform="translate(-1070.63 -836.032)" fill="#9fd0d2"/>
      <path id="Path_8001" data-name="Path 8001" d="M1399.517,836.032l-11.168,15.588H1410.8Z" transform="translate(-1153.514 -836.032)" fill="#9fd0d2"/>
      <path id="Path_8002" data-name="Path 8002" d="M1505.884,836.032l-11.168,15.588h22.447Z" transform="translate(-1236.398 -836.032)" fill="#9fd0d2"/>
    </g>
    <path id="Path_8003" data-name="Path 8003" d="M862.924,722.542h-53.83l-8.366-15.588v-6.858l17.64,8.624,17.643-38.337,17.612,38.277,17.612-8.563-.056,6.858Z" transform="translate(-371.78 -387.289)" fill="#162a5a"/>
    <path id="Path_8004" data-name="Path 8004" d="M800.728,700.095l11.279,22.447,24-52.16-7.72,11.414a43.916,43.916,0,0,1-27.561,18.3Z" transform="translate(-371.779 -387.289)" fill="#ecc35e"/>
    <path id="Path_8005" data-name="Path 8005" d="M995.756,700.095l-11.223,22.447-24-52.16,7.708,11.414a43.844,43.844,0,0,0,27.517,18.3Z" transform="translate(-496.301 -387.289)" fill="#ecc35e"/>
    <g id="Group_3657" data-name="Group 3657" transform="translate(426.217 301.344)">
      <line id="Line_25" data-name="Line 25" y1="31.177" transform="translate(2.732 2.732)" fill="none" stroke="#162a5a" stroke-miterlimit="10" stroke-width="6.545"/>
      <circle id="Ellipse_306" data-name="Ellipse 306" cx="2.091" cy="2.091" r="2.091" transform="translate(0 3.864) rotate(-67.5)" fill="#f4f6f3"/>
    </g>
    <g id="Group_3658" data-name="Group 3658" transform="translate(496.723 301.344)">
      <line id="Line_26" data-name="Line 26" y1="31.177" transform="translate(2.732 2.732)" fill="none" stroke="#162a5a" stroke-miterlimit="10" stroke-width="6.545"/>
      <circle id="Ellipse_307" data-name="Ellipse 307" cx="2.091" cy="2.091" r="2.091" transform="translate(0 3.864) rotate(-67.5)" fill="#f4f6f3"/>
    </g>
  </g>
</svg>
