<svg xmlns="http://www.w3.org/2000/svg" xmlns:xlink="http://www.w3.org/1999/xlink" width="244.379" height="243.256" viewBox="0 0 244.379 243.256">
  <defs>
    <clipPath id="clip-path">
      <ellipse id="Ellipse_262" data-name="Ellipse 262" cx="95.531" cy="21.034" rx="95.531" ry="21.034" transform="translate(83.616 240.069) rotate(-72.138)" fill="none"/>
    </clipPath>
  </defs>
  <g id="Group_2295" data-name="Group 2295" transform="translate(-60.765 -58.217)">
    <path id="Path_5751" data-name="Path 5751" d="M246.424,223.474s-37.091-3.738-64.539-6.217c-31.764-2.87-77.442,26.761-77.442,26.761L161.435,67.171s21,45.6,46.258,62.943c36.7,25.205,58.086,33.3,58.086,33.3Z" fill="#b18eea"/>
    <path id="Path_5752" data-name="Path 5752" d="M161.434,74.674s21,45.595,46.258,62.942c29.956,20.574,49.7,29.745,55.953,32.421l2.134-6.624s-21.389-8.094-58.087-33.3c-25.256-17.347-46.258-62.942-46.258-62.942L104.443,244.018s1.086-.7,3.022-1.875Z" fill="#d0b8ff"/>
    <path id="Path_5753" data-name="Path 5753" d="M250.367,211.238c-10.355-2.651-21.505-5.348-33.031-7.882-50.184-11.034-75.789,2.939-75.789,2.939L123.2,203.356s-3.554,3.458-8.295,8.2l-10.463,32.465s45.678-29.631,77.442-26.761c27.447,2.479,64.539,6.217,64.539,6.217Z" fill="#bfc9d8" opacity="0.78" style="mix-blend-mode: multiply;isolation: isolate"/>
    <ellipse id="Ellipse_260" data-name="Ellipse 260" cx="95.531" cy="21.034" rx="95.531" ry="21.034" transform="translate(88.622 241.682) rotate(-72.138)" fill="#9372d3"/>
    <rect id="Rectangle_971" data-name="Rectangle 971" width="82.384" height="25.417" transform="translate(229.963 293.677) rotate(-72.138)" fill="#9372d3"/>
    <rect id="Rectangle_972" data-name="Rectangle 972" width="82.384" height="25.416" transform="translate(226.626 292.601) rotate(-72.138)" fill="#b18eea"/>
    <path id="Path_5754" data-name="Path 5754" d="M267.966,247.184l8.121-25.2-24.191-7.8L244,238.679Z" fill="#bfc9d8" opacity="0.78" style="mix-blend-mode: multiply;isolation: isolate"/>
    <ellipse id="Ellipse_261" data-name="Ellipse 261" cx="95.531" cy="21.034" rx="95.531" ry="21.034" transform="translate(83.616 240.069) rotate(-72.138)" fill="#d2dbea"/>
    <path id="Path_5755" data-name="Path 5755" d="M250.953,155.6A300.053,300.053,0,0,1,229.617,221.8l55.345,16.38s20.189-22.645,20.182-62.624Z" fill="#d2dbea"/>
    <path id="Path_5756" data-name="Path 5756" d="M235.466,208.122c-1.773,4.476-3.715,9.059-5.849,13.681l55.345,16.38a69.186,69.186,0,0,0,8.325-12.78Z" fill="#bfc9d8" opacity="0.78" style="mix-blend-mode: multiply;isolation: isolate"/>
    <path id="Path_5757" data-name="Path 5757" d="M114.127,145.462c-.4,1.221-.81,2.444-1.208,3.681-16.183,50.217-20.339,93.814-9.282,97.378,7.441,2.4,19.877-13.965,32.147-40.221C91.071,238.112,114.041,145.81,114.127,145.462Z" fill="#bfc9d8"/>
    <path id="Path_5758" data-name="Path 5758" d="M249.39,163.137l55.52,19.817q.228-3.592.234-7.395L250.953,155.6S250.467,158.373,249.39,163.137Z" fill="#dfe8f4"/>
    <g id="Group_2291" data-name="Group 2291">
      <g id="Group_2290" data-name="Group 2290" clip-path="url(#clip-path)">
        <g id="Group_2289" data-name="Group 2289">
          <path id="Path_5759" data-name="Path 5759" d="M275.475,227.12a25.518,25.518,0,0,1-8.137-1.338l-131.19-44.11c-13.357-4.491-14.874-18.961-10.383-32.32s13.3-20.539,26.649-16.053L283.6,177.408a25.522,25.522,0,0,1-8.129,49.712Z" fill="#fdfeff"/>
        </g>
      </g>
    </g>
    <g id="Group_2292" data-name="Group 2292">
      <path id="Path_5760" data-name="Path 5760" d="M101.929,157.295a2.055,2.055,0,0,1-1.859-1.175A20.812,20.812,0,0,1,110,128.409a2.054,2.054,0,0,1,1.754,3.714,16.7,16.7,0,0,0-7.969,22.243,2.05,2.05,0,0,1-1.855,2.929Z" fill="#7a98b8"/>
    </g>
    <g id="Group_2293" data-name="Group 2293">
      <path id="Path_5761" data-name="Path 5761" d="M86.53,166.362a2.049,2.049,0,0,1-1.857-1.176,42.026,42.026,0,0,1,20.037-55.954,2.054,2.054,0,1,1,1.754,3.714,37.923,37.923,0,0,0-18.081,50.487,2.049,2.049,0,0,1-.978,2.732A2.021,2.021,0,0,1,86.53,166.362Z" fill="#7a98b8"/>
    </g>
    <g id="Group_2294" data-name="Group 2294">
      <path id="Path_5762" data-name="Path 5762" d="M68.59,174.844a2.049,2.049,0,0,1-1.857-1.176A61.869,61.869,0,0,1,96.23,91.29,2.054,2.054,0,0,1,97.984,95a57.765,57.765,0,0,0-27.541,76.911,2.049,2.049,0,0,1-.978,2.732A2.027,2.027,0,0,1,68.59,174.844Z" fill="#7a98b8"/>
    </g>
  </g>
</svg>
