<svg xmlns="http://www.w3.org/2000/svg" width="479.082" height="277.746" viewBox="0 0 479.082 277.746">
  <g id="Group_2863" data-name="Group 2863" transform="translate(-37.896 -27.051)">
    <g id="Group_2820" data-name="Group 2820">
      <g id="Group_2737" data-name="Group 2737">
        <g id="Group_2732" data-name="Group 2732">
          <path id="Path_6499" data-name="Path 6499" d="M510.132,249.423q-.109-.255-.214-.512Q510.023,249.168,510.132,249.423Z" fill="#ffe180"/>
        </g>
        <g id="Group_2733" data-name="Group 2733">
          <path id="Path_6500" data-name="Path 6500" d="M509.316,247.368v0q.108.288.221.576C509.463,247.754,509.388,247.562,509.316,247.368Z" fill="#ffe180"/>
        </g>
        <g id="Group_2734" data-name="Group 2734">
          <path id="Path_6501" data-name="Path 6501" d="M509.918,248.911c-.07-.17-.141-.34-.209-.511C509.777,248.571,509.848,248.741,509.918,248.911Z" fill="#ffe180"/>
        </g>
        <g id="Group_2735" data-name="Group 2735">
          <path id="Path_6502" data-name="Path 6502" d="M509.351,247.462q.174.472.358.938Q509.524,247.934,509.351,247.462Z" fill="#ffe180"/>
        </g>
        <g id="Group_2736" data-name="Group 2736">
          <path id="Path_6503" data-name="Path 6503" d="M512.905,252.521c-.054-.119-9.487-13.5-7.086-26.27,1.436-7.637,5.238-14.881,5.042-22.8-.383-15.525-11.6-30.085-26.279-34.878-13.845-4.52-30.361-2.96-39.46-16.506-8.439-12.563-7.881-30.486-26.175-33.249-15.026-2.27-30.573,4.9-45.448.87-15.846-4.3-15.335-25.835-20.622-38.331-12.131-28.671-46.089-56.547-78.152-54.159-16.48,1.228-32.987,6.687-44.788,17.906-12.267,11.662-18.872,28.912-33.925,37.474C182.36,90.338,166.2,91.92,152.673,99.845c-14.708,8.618-20.125,24.636-28.923,38.234-8.6,13.293-20.785,19.41-35.891,22.859-15.236,3.478-31.51,9.716-38.95,25.282-6.816,14.26-10.686,58.73,1.543,102.584,2.335,8.373,434.759,14.606,452.489,6.327C518.2,288.007,520.183,267.713,512.905,252.521Z" fill="#def7ed"/>
        </g>
      </g>
      <g id="Group_2817" data-name="Group 2817">
        <g id="Group_2749" data-name="Group 2749">
          <g id="Group_2739" data-name="Group 2739">
            <g id="Group_2738" data-name="Group 2738">
              <path id="Path_6504" data-name="Path 6504" d="M77.25,275.3l-.893-.3.446.15-.452-.13c.01-.042.06-.278.117-.55,2.043-9.74,7.823-34.221,17.34-51.149l.821.461c-9.452,16.815-15.2,41.184-17.239,50.881C77.277,275.206,77.267,275.254,77.25,275.3Z" fill="#abd9c4"/>
            </g>
          </g>
          <g id="Group_2748" data-name="Group 2748">
            <g id="Group_2740" data-name="Group 2740">
              <path id="Path_6505" data-name="Path 6505" d="M95.229,231.573a7.082,7.082,0,0,0-4.8.545q-.208.106-.41.23a7.407,7.407,0,0,0-5.116-6.239,2.129,2.129,0,0,0-1.506-.01.8.8,0,0,0-.227.17.881.881,0,0,0-.158.89c.454,1.643,4.472,5.048,6.23,5.554a1.623,1.623,0,0,0,.381.069.343.343,0,0,0,.07.216c.534.69,2.425,1.31,4.017,1.662.829.183,3.532.715,4.631.151a.9.9,0,0,0,.121-.071.8.8,0,0,0,.366-.539C98.988,233.26,97.305,232.031,95.229,231.573Z" fill="#abd9c4"/>
            </g>
            <g id="Group_2741" data-name="Group 2741">
              <path id="Path_6506" data-name="Path 6506" d="M93.966,225.3a5.732,5.732,0,0,0-1.009.66c.53-3.135-1.742-5.985-3.247-6.493a1.029,1.029,0,0,0-.812.008l-.018.009c-.211.116-.452.384-.4,1.006.158,1.808,2.681,5.846,3.911,6.261a.343.343,0,0,0,.263-.019l.006,0a.288.288,0,0,0,.034-.023,1.688,1.688,0,0,0,.474.293c1.431.632,5.6.944,7.026.214a1.183,1.183,0,0,0,.122-.07.808.808,0,0,0,.43-.672c.011-.477-.458-.96-1.288-1.326A6.61,6.61,0,0,0,93.966,225.3Z" fill="#abd9c4"/>
            </g>
            <g id="Group_2742" data-name="Group 2742">
              <path id="Path_6507" data-name="Path 6507" d="M91.932,228.712c-.106.054-.212.112-.317.174a7.367,7.367,0,0,0-4.647-6.593,1.725,1.725,0,0,0-1.315-.039.812.812,0,0,0-.154.1.9.9,0,0,0-.25.925c.341,1.773,3.953,5.545,5.6,6.183a.362.362,0,0,0-.027.1.347.347,0,0,0,.082.26,3.642,3.642,0,0,0,1.529.822c2.045.69,5.852,1.195,7.134.536a1.13,1.13,0,0,0,.1-.059.825.825,0,0,0,.412-.614c.092-.849-1.169-1.669-2.459-2.1A7.584,7.584,0,0,0,91.932,228.712Z" fill="#abd9c4"/>
            </g>
            <g id="Group_2743" data-name="Group 2743">
              <path id="Path_6508" data-name="Path 6508" d="M88.655,235.51a8.546,8.546,0,0,0-5.663-6.157,3.723,3.723,0,0,0-2.551-.142.948.948,0,0,0-.329.272.928.928,0,0,0-.1.87c.538,1.723,5.056,4.814,7.275,5.564h0a4.285,4.285,0,0,0,.548.149.366.366,0,0,0-.017.059.339.339,0,0,0,.062.265,4.214,4.214,0,0,0,1.705,1.084c2.351.994,6.833,1.935,8.245,1.21l.018-.009a.905.905,0,0,0,.5-.629c.182-.944-1.243-2.011-2.644-2.6A8.678,8.678,0,0,0,88.655,235.51Z" fill="#abd9c4"/>
            </g>
            <g id="Group_2744" data-name="Group 2744">
              <path id="Path_6509" data-name="Path 6509" d="M87.4,239.545c-.146.074-.291.155-.436.241l-.019.014a.351.351,0,0,0,.018-.182,8.718,8.718,0,0,0-5.061-6.123c-1.189-.532-2.643-.843-3.408-.45a.961.961,0,0,0-.343.287.914.914,0,0,0-.118.808c.418,1.571,4.274,4.3,6.67,5.37h0a4.24,4.24,0,0,0,1.961.509.314.314,0,0,0,.114-.034.425.425,0,0,0,.042-.025.337.337,0,0,0-.016.048.342.342,0,0,0,.054.267c.531.764,2.347,1.458,3.382,1.8,2.041.682,5.5,1.45,6.749.807l.043-.023a.9.9,0,0,0,.466-.586c.221-.978-1.372-2.366-3.55-3.093A8.487,8.487,0,0,0,87.4,239.545Z" fill="#abd9c4"/>
            </g>
            <g id="Group_2745" data-name="Group 2745">
              <path id="Path_6510" data-name="Path 6510" d="M85.587,243.862q-.1.05-.195.1a9.719,9.719,0,0,0-5.783-6.447c-1.493-.627-3.22-.923-4.107-.468a1.079,1.079,0,0,0-.427.373.988.988,0,0,0-.086.862c.52,1.683,4.687,4.335,7.445,5.5h0a6.443,6.443,0,0,0,2.5.655.351.351,0,0,0,.06.187c.6.863,2.668,1.653,3.848,2.047,2.31.771,6.217,1.642,7.623.921l.047-.026a.978.978,0,0,0,.507-.637c.247-1.092-1.554-2.65-4.018-3.472A9.609,9.609,0,0,0,85.587,243.862Z" fill="#abd9c4"/>
            </g>
            <g id="Group_2746" data-name="Group 2746">
              <path id="Path_6511" data-name="Path 6511" d="M83.972,248.01l-.008.005a.322.322,0,0,0-.086.064,9.926,9.926,0,0,0-4.816-5.552c-2.238-1.209-4.731-1.594-5.868-1.01a1.158,1.158,0,0,0-.5.447,1.007,1.007,0,0,0-.076.793c.423,1.485,3.73,3.369,4.734,3.912h0c2.3,1.24,5.15,2.371,6.352,2.1a.309.309,0,0,0,.079-.028.356.356,0,0,0,.127-.111c.818,1.143,3.773,2.527,6.271,3.362,1.253.418,4.3,1.324,5.534.7l.01,0a1.008,1.008,0,0,0,.517-.576c.424-1.3-1.956-3.448-4.9-4.431A9.8,9.8,0,0,0,83.972,248.01Z" fill="#abd9c4"/>
            </g>
            <g id="Group_2747" data-name="Group 2747">
              <path id="Path_6512" data-name="Path 6512" d="M97.854,217.3a.661.661,0,0,0-.11-.047.842.842,0,0,0-.672.081,2.065,2.065,0,0,0-.455.33c-1.319,1.222-3.278,5.267-2.957,6.534a.348.348,0,0,0,.165.214.481.481,0,0,0,.057.026.349.349,0,0,0,.212,0,5.761,5.761,0,0,0,.9-.37,6.523,6.523,0,0,0,3.373-5.028C98.457,218.146,98.273,217.527,97.854,217.3Z" fill="#abd9c4"/>
            </g>
          </g>
        </g>
        <g id="Group_2763" data-name="Group 2763">
          <g id="Group_2750" data-name="Group 2750">
            <path id="Path_6513" data-name="Path 6513" d="M159.131,273.45a.441.441,0,0,1-.364-.193,244.3,244.3,0,0,1-13.059-22.137c-8.508-16.42-12.363-29.06-11.458-37.566a.44.44,0,1,1,.875.093c-.874,8.213,3.054,21.029,11.36,37.061a243.139,243.139,0,0,0,13.009,22.055.439.439,0,0,1-.363.687Z" fill="#b5ebd2"/>
          </g>
          <g id="Group_2751" data-name="Group 2751">
            <path id="Path_6514" data-name="Path 6514" d="M134.54,219.142a.44.44,0,0,1-.3-.765l3.228-2.946a.44.44,0,1,1,.593.649l-3.228,2.947A.441.441,0,0,1,134.54,219.142Z" fill="#b5ebd2"/>
          </g>
          <g id="Group_2752" data-name="Group 2752">
            <path id="Path_6515" data-name="Path 6515" d="M134.54,219.142a.44.44,0,0,1-.094-.869l4.529-.994a.44.44,0,0,1,.188.859l-4.528.993A.39.39,0,0,1,134.54,219.142Z" fill="#b5ebd2"/>
          </g>
          <g id="Group_2753" data-name="Group 2753">
            <path id="Path_6516" data-name="Path 6516" d="M134.54,219.142a.435.435,0,0,1-.2-.051l-3.541-1.866a.44.44,0,1,1,.41-.778l3.541,1.866a.44.44,0,0,1-.205.829Z" fill="#b5ebd2"/>
          </g>
          <g id="Group_2754" data-name="Group 2754">
            <path id="Path_6517" data-name="Path 6517" d="M130.622,220.159a.44.44,0,0,1-.11-.865l3.918-1.017a.44.44,0,1,1,.221.851l-3.918,1.017A.423.423,0,0,1,130.622,220.159Z" fill="#b5ebd2"/>
          </g>
          <g id="Group_2755" data-name="Group 2755">
            <path id="Path_6518" data-name="Path 6518" d="M135.569,224.706a.448.448,0,0,1-.165-.032l-3.945-1.6a.44.44,0,0,1,.33-.815l3.7,1.5,3.838-3.115a.44.44,0,0,1,.555.683l-4.04,3.278A.439.439,0,0,1,135.569,224.706Z" fill="#b5ebd2"/>
          </g>
          <g id="Group_2756" data-name="Group 2756">
            <path id="Path_6519" data-name="Path 6519" d="M130.4,226.039a.439.439,0,0,1-.109-.865l5.172-1.334.037-.008,5.6-.934a.44.44,0,1,1,.145.867l-5.583.932-5.154,1.328A.42.42,0,0,1,130.4,226.039Z" fill="#b5ebd2"/>
          </g>
          <g id="Group_2757" data-name="Group 2757">
            <path id="Path_6520" data-name="Path 6520" d="M130.685,230.757a.44.44,0,0,1-.017-.879l6.351-.256,5.5-3.091a.439.439,0,1,1,.43.766l-5.6,3.144a.439.439,0,0,1-.2.056l-6.456.26Z" fill="#b5ebd2"/>
          </g>
          <g id="Group_2758" data-name="Group 2758">
            <path id="Path_6521" data-name="Path 6521" d="M130.7,234.238a.44.44,0,0,1-.221-.82l6.439-3.741a.439.439,0,0,1,.2-.059l5.774-.319a.44.44,0,0,1,.049.878l-5.669.314-6.347,3.687A.435.435,0,0,1,130.7,234.238Z" fill="#b5ebd2"/>
          </g>
          <g id="Group_2759" data-name="Group 2759">
            <path id="Path_6522" data-name="Path 6522" d="M132.128,237.365a.44.44,0,0,1-.058-.876l7.015-.934,6.172-4.113a.44.44,0,1,1,.488.732l-6.258,4.169a.439.439,0,0,1-.185.07l-7.116.948A.561.561,0,0,1,132.128,237.365Z" fill="#b5ebd2"/>
          </g>
          <g id="Group_2760" data-name="Group 2760">
            <path id="Path_6523" data-name="Path 6523" d="M133.469,241.188a.44.44,0,0,1-.28-.779l5.774-4.771a.449.449,0,0,1,.193-.092l6.224-1.267a.44.44,0,1,1,.175.862l-6.116,1.245-5.69,4.7A.436.436,0,0,1,133.469,241.188Z" fill="#b5ebd2"/>
          </g>
          <g id="Group_2761" data-name="Group 2761">
            <path id="Path_6524" data-name="Path 6524" d="M133.53,244.9a.44.44,0,0,1-.05-.877l8.615-.991,6.136-5.84a.44.44,0,0,1,.606.637l-6.242,5.942a.445.445,0,0,1-.253.118L133.58,244.9Z" fill="#b5ebd2"/>
          </g>
          <g id="Group_2762" data-name="Group 2762">
            <path id="Path_6525" data-name="Path 6525" d="M135.6,249.982a.434.434,0,0,1-.325-.144.439.439,0,0,1,.029-.621L142,243.129a.44.44,0,0,1,.175-.1l8.568-2.45a.44.44,0,1,1,.242.846l-8.469,2.422-6.617,6.019A.444.444,0,0,1,135.6,249.982Z" fill="#b5ebd2"/>
          </g>
        </g>
        <g id="Group_2777" data-name="Group 2777">
          <g id="Group_2764" data-name="Group 2764">
            <path id="Path_6526" data-name="Path 6526" d="M387.612,269.474a.318.318,0,0,1-.3-.433c.124-.318,12.347-31.894,7.647-45.58a.318.318,0,0,1,.6-.206c2.008,5.848,1.328,15.375-2.022,28.316a175.982,175.982,0,0,1-5.635,17.7A.317.317,0,0,1,387.612,269.474Z" fill="#b5ebd2"/>
          </g>
          <g id="Group_2765" data-name="Group 2765">
            <path id="Path_6527" data-name="Path 6527" d="M396.188,227.247a.317.317,0,0,1-.156-.041l-2.749-1.557a.318.318,0,0,1,.313-.553l2.749,1.556a.318.318,0,0,1-.157.6Z" fill="#b5ebd2"/>
          </g>
          <g id="Group_2766" data-name="Group 2766">
            <path id="Path_6528" data-name="Path 6528" d="M392.837,227.277a.318.318,0,0,1,0-.636l3.351-.03h0a.318.318,0,0,1,0,.636l-3.352.029Z" fill="#b5ebd2"/>
          </g>
          <g id="Group_2767" data-name="Group 2767">
            <path id="Path_6529" data-name="Path 6529" d="M396.189,227.247a.318.318,0,0,1-.207-.559l2.194-1.885a.318.318,0,0,1,.414.482L396.4,227.17A.315.315,0,0,1,396.189,227.247Z" fill="#b5ebd2"/>
          </g>
          <g id="Group_2768" data-name="Group 2768">
            <path id="Path_6530" data-name="Path 6530" d="M399.113,227.333H399.1l-2.925-.085a.318.318,0,0,1,.01-.636h.009l2.924.086a.318.318,0,0,1-.009.636Z" fill="#b5ebd2"/>
          </g>
          <g id="Group_2769" data-name="Group 2769">
            <path id="Path_6531" data-name="Path 6531" d="M396.36,231.333a.313.313,0,0,1-.14-.033l-3.375-1.659a.318.318,0,0,1,.281-.571l3.206,1.577,2.368-1.653a.318.318,0,1,1,.364.521l-2.522,1.761A.316.316,0,0,1,396.36,231.333Z" fill="#b5ebd2"/>
          </g>
          <g id="Group_2770" data-name="Group 2770">
            <path id="Path_6532" data-name="Path 6532" d="M392.262,231.577a.318.318,0,0,1-.018-.635l4.1-.244h.028l3.859.106a.318.318,0,0,1-.017.636l-3.846-.106-4.083.244Z" fill="#b5ebd2"/>
          </g>
          <g id="Group_2771" data-name="Group 2771">
            <path id="Path_6533" data-name="Path 6533" d="M396.185,235.667a.307.307,0,0,1-.09-.013l-4.45-1.313a.318.318,0,0,1,.18-.61l4.377,1.292,4.516-.843a.318.318,0,0,1,.116.625l-4.591.857A.38.38,0,0,1,396.185,235.667Z" fill="#b5ebd2"/>
          </g>
          <g id="Group_2772" data-name="Group 2772">
            <path id="Path_6534" data-name="Path 6534" d="M401.325,237.265a.313.313,0,0,1-.1-.014l-5.067-1.576-4.044.693a.318.318,0,0,1-.107-.627l4.119-.705a.322.322,0,0,1,.148.01l5.14,1.6a.318.318,0,0,1-.094.621Z" fill="#b5ebd2"/>
          </g>
          <g id="Group_2773" data-name="Group 2773">
            <path id="Path_6535" data-name="Path 6535" d="M395.658,240.177a.314.314,0,0,1-.113-.021l-5.081-1.929a.318.318,0,0,1,.226-.594l5.012,1.9,5.093-.472a.318.318,0,0,1,.058.633l-5.166.478Z" fill="#b5ebd2"/>
          </g>
          <g id="Group_2774" data-name="Group 2774">
            <path id="Path_6536" data-name="Path 6536" d="M400.495,242.608a.312.312,0,0,1-.142-.034l-4.767-2.4-4.51.109a.318.318,0,0,1-.016-.636l4.59-.11a.353.353,0,0,1,.151.034l4.837,2.431a.318.318,0,0,1-.143.6Z" fill="#b5ebd2"/>
          </g>
          <g id="Group_2775" data-name="Group 2775">
            <path id="Path_6537" data-name="Path 6537" d="M394.715,245.936a.318.318,0,0,1-.162-.044L389.2,242.71a.317.317,0,0,1,.324-.546l5.265,3.127,6.23-.69a.318.318,0,1,1,.07.632l-6.336.7A.206.206,0,0,1,394.715,245.936Z" fill="#b5ebd2"/>
          </g>
          <g id="Group_2776" data-name="Group 2776">
            <path id="Path_6538" data-name="Path 6538" d="M400.411,249.148a.324.324,0,0,1-.155-.041l-5.632-3.175-6.358-.342a.318.318,0,0,1-.3-.335.311.311,0,0,1,.334-.3l6.432.346a.311.311,0,0,1,.139.041l5.7,3.211a.318.318,0,0,1-.157.6Z" fill="#b5ebd2"/>
          </g>
        </g>
        <g id="Group_2793" data-name="Group 2793">
          <g id="Group_2778" data-name="Group 2778">
            <path id="Path_6539" data-name="Path 6539" d="M445.7,247.495s18.784-10.844,27.007-21.955,7.535-22.835-2.725-21.934c-8.928.783-8.326,13.131-9.508,18.106-1.626,6.843-11.784,19.961-15.164,23.7C443.585,247.321,445.7,247.495,445.7,247.495Z" fill="#abd9c4"/>
          </g>
          <g id="Group_2792" data-name="Group 2792">
            <g id="Group_2779" data-name="Group 2779">
              <path id="Path_6540" data-name="Path 6540" d="M471.489,211.99c-.036,0-.07,0-.1,0-1.4-.134-4.382-4.584-4.717-5.091a.215.215,0,0,1,.358-.237c1.271,1.923,3.491,4.814,4.4,4.9,1.011.1,2.968-1.952,3.638-2.749a.214.214,0,0,1,.328.276C475.137,209.389,472.908,211.99,471.489,211.99Z" fill="#def7ed"/>
            </g>
            <g id="Group_2780" data-name="Group 2780">
              <path id="Path_6541" data-name="Path 6541" d="M470.8,216.539a2.137,2.137,0,0,1-.913-.164c-.592-.292-4.548-4.841-5.335-5.75a.215.215,0,0,1,.325-.281,76.236,76.236,0,0,0,5.2,5.646c.795.392,3.85-.114,5.5-2.336a.215.215,0,1,1,.345.255A6.909,6.909,0,0,1,470.8,216.539Z" fill="#def7ed"/>
            </g>
            <g id="Group_2781" data-name="Group 2781">
              <path id="Path_6542" data-name="Path 6542" d="M469.094,221.006a2.5,2.5,0,0,1-1.036-.181,70.6,70.6,0,0,1-5.16-5.478.214.214,0,1,1,.322-.283,72.979,72.979,0,0,0,5.023,5.373c.846.4,3.606,0,5.579-1.859a.214.214,0,1,1,.294.312A7.883,7.883,0,0,1,469.094,221.006Z" fill="#def7ed"/>
            </g>
            <g id="Group_2782" data-name="Group 2782">
              <path id="Path_6543" data-name="Path 6543" d="M467.747,225.242a4.253,4.253,0,0,1-1.663-.253,51.391,51.391,0,0,1-4.054-4.98.214.214,0,1,1,.342-.258,55.527,55.527,0,0,0,3.908,4.857,6.463,6.463,0,0,0,5.1-.819.214.214,0,1,1,.263.338A6.631,6.631,0,0,1,467.747,225.242Z" fill="#def7ed"/>
            </g>
            <g id="Group_2783" data-name="Group 2783">
              <path id="Path_6544" data-name="Path 6544" d="M465.341,229a4.4,4.4,0,0,1-1.654-.287,26.851,26.851,0,0,1-2.887-3.672.215.215,0,0,1,.351-.247,32.255,32.255,0,0,0,2.715,3.529,4.874,4.874,0,0,0,4.266-.58.215.215,0,0,1,.232.361A5.567,5.567,0,0,1,465.341,229Z" fill="#def7ed"/>
            </g>
            <g id="Group_2784" data-name="Group 2784">
              <path id="Path_6545" data-name="Path 6545" d="M463.486,232.255a5.661,5.661,0,0,1-2.27-.541c-.4-.177-1.584-2.4-2.074-3.351a.214.214,0,0,1,.381-.2,19.185,19.185,0,0,0,1.874,3.16,3.862,3.862,0,0,0,3.768.022.214.214,0,1,1,.23.362A3.489,3.489,0,0,1,463.486,232.255Z" fill="#def7ed"/>
            </g>
            <g id="Group_2785" data-name="Group 2785">
              <path id="Path_6546" data-name="Path 6546" d="M461.56,234.965a10.976,10.976,0,0,1-2.736-.644c-.4-.179-1.342-2.048-1.726-2.843a.215.215,0,0,1,.387-.186A13.485,13.485,0,0,0,459,233.931a9.817,9.817,0,0,0,2.637.608.215.215,0,0,1,.2.377A.6.6,0,0,1,461.56,234.965Z" fill="#def7ed"/>
            </g>
            <g id="Group_2786" data-name="Group 2786">
              <path id="Path_6547" data-name="Path 6547" d="M458.782,236.886a7.822,7.822,0,0,1-2.036-.315,7.235,7.235,0,0,1-1.375-2.559.215.215,0,0,1,.4-.159,10.8,10.8,0,0,0,1.145,2.325,6.459,6.459,0,0,0,2.185.256.207.207,0,0,1,.292.062.219.219,0,0,1-.064.3A1.133,1.133,0,0,1,458.782,236.886Z" fill="#def7ed"/>
            </g>
            <g id="Group_2787" data-name="Group 2787">
              <path id="Path_6548" data-name="Path 6548" d="M456.611,239.246l-.028,0a5.032,5.032,0,0,1-1.082-.372c-.154-.065-.3-.127-.425-.174-.087-.032-.352-.132-1.275-2.435a.214.214,0,0,1,.4-.159,12.81,12.81,0,0,0,1.047,2.2c.125.047.27.109.422.173a4.94,4.94,0,0,0,.971.342.214.214,0,0,1-.028.427Z" fill="#def7ed"/>
            </g>
            <g id="Group_2788" data-name="Group 2788">
              <path id="Path_6549" data-name="Path 6549" d="M454.727,240.918a5.818,5.818,0,0,1-1.587-.383c-.1-.036-.376-.14-.857-2.019a.215.215,0,0,1,.416-.106,7.4,7.4,0,0,0,.6,1.727,6.69,6.69,0,0,0,1.442.356.214.214,0,0,1,.213.37A.353.353,0,0,1,454.727,240.918Z" fill="#def7ed"/>
            </g>
            <g id="Group_2789" data-name="Group 2789">
              <path id="Path_6550" data-name="Path 6550" d="M446.556,246.087a.215.215,0,0,1-.136-.381c14.838-12.022,20.788-22.426,23.167-29.038,2.573-7.153,1.634-11.524,1.624-11.568a.215.215,0,0,1,.419-.1c.041.181.977,4.508-1.625,11.767-2.392,6.672-8.378,17.165-23.315,29.268A.211.211,0,0,1,446.556,246.087Z" fill="#def7ed"/>
            </g>
            <g id="Group_2790" data-name="Group 2790">
              <path id="Path_6551" data-name="Path 6551" d="M452.936,242.378a.219.219,0,0,1-.082-.017l-1.379-.572a.211.211,0,0,1-.108-.1l-.782-1.488a.214.214,0,1,1,.379-.2l.746,1.42,1.308.542a.215.215,0,0,1-.082.413Z" fill="#def7ed"/>
            </g>
            <g id="Group_2791" data-name="Group 2791">
              <path id="Path_6552" data-name="Path 6552" d="M450.465,244.1a.2.2,0,0,1-.058-.008l-1.145-.322a.214.214,0,0,1-.157-.205l0-1.245a.215.215,0,0,1,.214-.215h0a.214.214,0,0,1,.214.214l0,1.082.989.278a.214.214,0,0,1-.058.421Z" fill="#def7ed"/>
            </g>
          </g>
        </g>
        <g id="Group_2809" data-name="Group 2809">
          <g id="Group_2794" data-name="Group 2794">
            <path id="Path_6553" data-name="Path 6553" d="M385.176,262.346s4.167-13.084,3.277-21.791-6.211-13.9-10.628-9.1c-3.844,4.174,1.7,9.7,3.271,12.528,2.157,3.9,3,14.367,3.01,17.558C384.112,263.166,385.176,262.346,385.176,262.346Z" fill="#b5ebd2"/>
          </g>
          <g id="Group_2808" data-name="Group 2808">
            <g id="Group_2795" data-name="Group 2795">
              <path id="Path_6554" data-name="Path 6554" d="M381.15,234.957a17.954,17.954,0,0,1-3.473-.552.136.136,0,1,1,.066-.263c1.415.358,3.686.764,4.149.417.513-.385.557-2.179.53-2.838a.136.136,0,0,1,.131-.141.133.133,0,0,1,.141.13c.01.257.079,2.527-.639,3.066A1.634,1.634,0,0,1,381.15,234.957Z" fill="#def7ed"/>
            </g>
            <g id="Group_2796" data-name="Group 2796">
              <path id="Path_6555" data-name="Path 6555" d="M382.965,237.487c-.969,0-4.018-.356-4.687-.435a.137.137,0,0,1-.119-.151.135.135,0,0,1,.151-.119,48.075,48.075,0,0,0,4.841.425,3.72,3.72,0,0,0,1.577-3.438.136.136,0,0,1,.121-.149.139.139,0,0,1,.149.122c.182,1.8-1.057,3.519-1.771,3.726A1.174,1.174,0,0,1,382.965,237.487Z" fill="#def7ed"/>
            </g>
            <g id="Group_2797" data-name="Group 2797">
              <path id="Path_6556" data-name="Path 6556" d="M383.982,240.352c-.963,0-3.831-.313-4.466-.384a.136.136,0,0,1,.03-.27,46.082,46.082,0,0,0,4.642.373,4.093,4.093,0,0,0,1.818-3.249.136.136,0,0,1,.271.021c-.134,1.771-1.3,3.272-2.01,3.488A1.255,1.255,0,0,1,383.982,240.352Z" fill="#def7ed"/>
            </g>
            <g id="Group_2798" data-name="Group 2798">
              <path id="Path_6557" data-name="Path 6557" d="M385.005,243.131c-.622,0-3.109-.46-3.907-.611a.136.136,0,0,1-.108-.159.138.138,0,0,1,.158-.108,35.127,35.127,0,0,0,3.9.607,4.094,4.094,0,0,0,2.037-2.558.136.136,0,1,1,.267.047,4.349,4.349,0,0,1-2.233,2.773A.516.516,0,0,1,385.005,243.131Z" fill="#def7ed"/>
            </g>
            <g id="Group_2799" data-name="Group 2799">
              <path id="Path_6558" data-name="Path 6558" d="M385.47,245.9a23.314,23.314,0,0,1-2.8-.5.136.136,0,1,1,.058-.265,20.9,20.9,0,0,0,2.775.493,3.087,3.087,0,0,0,1.751-2.09.136.136,0,0,1,.262.07,3.377,3.377,0,0,1-1.93,2.279A.4.4,0,0,1,385.47,245.9Z" fill="#def7ed"/>
            </g>
            <g id="Group_2800" data-name="Group 2800">
              <path id="Path_6559" data-name="Path 6559" d="M385.629,248.355a12.425,12.425,0,0,1-2.32-.695.135.135,0,1,1,.094-.254,12.1,12.1,0,0,0,2.225.68,2.528,2.528,0,0,0,1.772-1.6.136.136,0,1,1,.262.072,2.7,2.7,0,0,1-1.954,1.784A.272.272,0,0,1,385.629,248.355Z" fill="#def7ed"/>
            </g>
            <g id="Group_2801" data-name="Group 2801">
              <path id="Path_6560" data-name="Path 6560" d="M385.614,250.6a8.861,8.861,0,0,1-1.933-.606.136.136,0,0,1,.1-.252,8.687,8.687,0,0,0,1.836.588,6.179,6.179,0,0,0,1.495-.842.128.128,0,0,1,.166-.084.141.141,0,0,1,.088.176c-.081.269-1.378.912-1.666,1.009A.3.3,0,0,1,385.614,250.6Z" fill="#def7ed"/>
            </g>
            <g id="Group_2802" data-name="Group 2802">
              <path id="Path_6561" data-name="Path 6561" d="M385.606,252.536a6.118,6.118,0,0,1-1.653-.623.136.136,0,0,1,.119-.245,6.927,6.927,0,0,0,1.527.6,4.088,4.088,0,0,0,1.132-.813.133.133,0,0,1,.163-.1.139.139,0,0,1,.1.168c-.065.26-1.012.882-1.3,1A.241.241,0,0,1,385.606,252.536Z" fill="#def7ed"/>
            </g>
            <g id="Group_2803" data-name="Group 2803">
              <path id="Path_6562" data-name="Path 6562" d="M385.743,254.244a5.085,5.085,0,0,1-1.565-.609.136.136,0,1,1,.118-.244,8.131,8.131,0,0,0,1.429.583c.078-.031.172-.064.27-.1a3.058,3.058,0,0,0,.6-.254.136.136,0,1,1,.155.223,3.128,3.128,0,0,1-.665.287c-.1.035-.2.069-.273.1A.169.169,0,0,1,385.743,254.244Z" fill="#def7ed"/>
            </g>
            <g id="Group_2804" data-name="Group 2804">
              <path id="Path_6563" data-name="Path 6563" d="M385.615,255.931c-.121,0-.41-.084-1.186-.594a.135.135,0,1,1,.149-.226,4.7,4.7,0,0,0,1.019.55,4.234,4.234,0,0,0,.826-.448.136.136,0,0,1,.258.082c-.014.056-.049.2-.991.622A.181.181,0,0,1,385.615,255.931Z" fill="#def7ed"/>
            </g>
            <g id="Group_2805" data-name="Group 2805">
              <path id="Path_6564" data-name="Path 6564" d="M384.885,261.358l-.021,0a.134.134,0,0,1-.113-.154c1.82-11.971.161-19.383-1.551-23.493-1.848-4.435-4.14-6.065-4.162-6.081a.136.136,0,0,1,.155-.223c.1.067,2.38,1.692,4.257,6.2,1.726,4.142,3.4,11.605,1.569,23.638A.135.135,0,0,1,384.885,261.358Z" fill="#def7ed"/>
            </g>
            <g id="Group_2806" data-name="Group 2806">
              <path id="Path_6565" data-name="Path 6565" d="M385.4,257.221a.124.124,0,0,1-.046-.008l-1-.362a.135.135,0,0,1-.081-.174.134.134,0,0,1,.173-.081l.955.346.843-.3a.136.136,0,0,1,.092.256l-.89.321A.138.138,0,0,1,385.4,257.221Z" fill="#def7ed"/>
            </g>
            <g id="Group_2807" data-name="Group 2807">
              <path id="Path_6566" data-name="Path 6566" d="M385.2,259.1a.136.136,0,0,1-.1-.044l-.533-.581a.136.136,0,1,1,.2-.183l.463.505.582-.292a.136.136,0,1,1,.122.242l-.673.338A.137.137,0,0,1,385.2,259.1Z" fill="#def7ed"/>
            </g>
          </g>
        </g>
        <g id="Group_2816" data-name="Group 2816">
          <g id="Group_2810" data-name="Group 2810">
            <path id="Path_6567" data-name="Path 6567" d="M444.2,259.161a.351.351,0,0,1-.3-.541c.706-1.266,4.291-29.761,6.528-48.6a.351.351,0,0,1,.7.082c-.576,4.845-5.648,47.371-6.635,48.9A.35.35,0,0,1,444.2,259.161Z" fill="#b5ebd2"/>
          </g>
          <g id="Group_2811" data-name="Group 2811">
            <path id="Path_6568" data-name="Path 6568" d="M450.6,211.583s-3.054-4.8.518-5.083C454.224,206.251,450.6,211.583,450.6,211.583Z" fill="#b5ebd2"/>
          </g>
          <g id="Group_2812" data-name="Group 2812">
            <path id="Path_6569" data-name="Path 6569" d="M447.175,215.428s-4.125-3.915-.729-5.058C449.4,209.375,447.175,215.428,447.175,215.428Z" fill="#b5ebd2"/>
          </g>
          <g id="Group_2813" data-name="Group 2813">
            <path id="Path_6570" data-name="Path 6570" d="M453.26,217.468s5.446-1.64,2.927-4.189C453.995,211.06,453.26,217.468,453.26,217.468Z" fill="#b5ebd2"/>
          </g>
          <g id="Group_2814" data-name="Group 2814">
            <path id="Path_6571" data-name="Path 6571" d="M444.2,259.161a.308.308,0,0,1-.053,0,.349.349,0,0,1-.294-.4c.048-.322,4.88-32.354,2.765-43.81a.351.351,0,0,1,.69-.127c2.136,11.572-2.712,43.719-2.762,44.042A.35.35,0,0,1,444.2,259.161Z" fill="#b5ebd2"/>
          </g>
          <g id="Group_2815" data-name="Group 2815">
            <path id="Path_6572" data-name="Path 6572" d="M444.2,259.161a.349.349,0,0,1-.347-.4c.237-1.525,5.853-37.4,9.462-41.939a.351.351,0,1,1,.549.437c-3.494,4.4-9.26,41.238-9.318,41.609A.35.35,0,0,1,444.2,259.161Z" fill="#b5ebd2"/>
          </g>
        </g>
      </g>
      <g id="Group_2818" data-name="Group 2818">
        <path id="Path_6573" data-name="Path 6573" d="M485.226,241.954c-8.483-10.179-30.9-9.6-43.346-4.506-8.483,3.393-25.7,23.257-39.966,25.29-28.949,4.126-23.087-32.426-44.216-38.472-23.67-6.773-27.625-28.238-21.836-52.258,2.894-12.007,8.91-31.132,1.559-42.443-7.352-10.744-16.134-12.251-23.485-24.692-7.917-11.31.341-43.744-33.853-49.921-31.413-5.675-49.342,21.46-52.789,33.364-6.836,23.609,11.125,50.239-9.233,68.335-5.09,4.524-18.96,14.414-29.592,26.529-30.14,34.344-14.637,58.8-53.933,79.558-23.117,12.211-39.885-11.073-52.339-17.03-35.415-16.94-24.087,34.276-20.655,50.234l434.366.478C499.866,282.282,497.667,256.092,485.226,241.954Z" fill="#b5ebd2"/>
      </g>
      <g id="Group_2819" data-name="Group 2819">
        <path id="Path_6574" data-name="Path 6574" d="M503.382,290.051H46.989c-3.757,0-9.093,3.616-9.093,7.373s5.336,7.373,9.093,7.373H503.382c3.757,0,9.094-3.616,9.094-7.373S507.139,290.051,503.382,290.051Z" fill="#abd9c4"/>
      </g>
    </g>
    <g id="Group_2822" data-name="Group 2822">
      <path id="Path_6575" data-name="Path 6575" d="M102.973,296.951h9.319s-2.021-68.695-4.607-68.738S102.973,296.951,102.973,296.951Z" fill="#965777"/>
      <g id="Group_2821" data-name="Group 2821">
        <path id="Path_6576" data-name="Path 6576" d="M102.674,220.207a10.326,10.326,0,1,1-10.325-10.325A10.325,10.325,0,0,1,102.674,220.207Z" fill="#00a081"/>
        <path id="Path_6577" data-name="Path 6577" d="M132.127,217.846A10.326,10.326,0,1,1,121.8,207.52,10.325,10.325,0,0,1,132.127,217.846Z" fill="#009377"/>
        <circle id="Ellipse_269" data-name="Ellipse 269" cx="16.226" cy="16.226" r="16.226" transform="translate(89.064 231.481) rotate(-76.764)" fill="#04ad8c"/>
        <circle id="Ellipse_270" data-name="Ellipse 270" cx="10.325" cy="10.325" r="10.325" transform="translate(75.753 198.176) rotate(-45)" fill="#04ad8c"/>
        <circle id="Ellipse_271" data-name="Ellipse 271" cx="10.325" cy="10.325" r="10.325" transform="translate(107.2 196.162) rotate(-45)" fill="#04ad8c"/>
        <path id="Path_6578" data-name="Path 6578" d="M107.883,211.332a15.17,15.17,0,0,1-13.906,15.117c-.417.035-1.2-4.432-1.628-4.432-8.378,0-14.805-2.307-14.805-10.685a15.17,15.17,0,1,1,30.339,0Z" opacity="0.15"/>
        <circle id="Ellipse_272" data-name="Ellipse 272" cx="15.169" cy="15.169" r="15.169" transform="translate(72.802 220.358) rotate(-73.349)" fill="#19be83"/>
        <path id="Path_6579" data-name="Path 6579" d="M98.19,206.942a9.86,9.86,0,1,1-9.86-9.86A9.861,9.861,0,0,1,98.19,206.942Z" fill="#fff" opacity="0.15"/>
        <path id="Path_6580" data-name="Path 6580" d="M128.788,209.591c0,5.107,2.579,5.954-1.29,8.7-2.027,1.441-3.719,6.656-3.719,6.656a15.242,15.242,0,0,1-1.758.1c-8.378,0-13.446-7.34-13.446-15.718s5.068-14.621,13.446-14.621S128.788,201.213,128.788,209.591Z" opacity="0.15"/>
        <circle id="Ellipse_273" data-name="Ellipse 273" cx="15.169" cy="15.169" r="15.169" transform="matrix(0.228, -0.974, 0.974, 0.228, 103.57, 219.808)" fill="#19be83"/>
        <path id="Path_6581" data-name="Path 6581" d="M131.662,204.572a9.86,9.86,0,1,1-9.86-9.86A9.86,9.86,0,0,1,131.662,204.572Z" fill="#fff" opacity="0.15"/>
        <path id="Path_6582" data-name="Path 6582" d="M122.687,195a15.169,15.169,0,1,1-30.338,0c0-8.378,5.9,6.144,14.283,6.144,5.322,0,10.936-5.54,13.9-7.349C122.241,192.758,122.687,195,122.687,195Z" opacity="0.15"/>
        <circle id="Ellipse_274" data-name="Ellipse 274" cx="15.169" cy="15.169" r="15.169" transform="translate(86.781 201.371) rotate(-67.279)" fill="#17cc86"/>
        <circle id="Ellipse_275" data-name="Ellipse 275" cx="9.86" cy="9.86" r="9.86" transform="translate(93.033 179.896)" fill="#fff" opacity="0.15"/>
      </g>
    </g>
    <g id="Group_2824" data-name="Group 2824">
      <path id="Path_6583" data-name="Path 6583" d="M208.036,277.846c.164,1.653-12.2,5.642-23.382-.99-11.346-6.666-12.371-20.285-12.294-19.914.048.051,5.561,9.768,15.165,15.083C197.038,277.813,208.166,276.061,208.036,277.846Z" fill="#5dcc33"/>
      <path id="Path_6584" data-name="Path 6584" d="M208.951,275.177c.129,1.472-11.518,3.027-21.891-4.519a28.116,28.116,0,0,1-11.218-19.334,50.24,50.24,0,0,0,13.98,15.558C198.648,273.43,209.1,273.637,208.951,275.177Z" fill="#5dcc33"/>
      <path id="Path_6585" data-name="Path 6585" d="M209.957,271.406c.008,1.314-10.433,1.853-19.087-5.587a25.018,25.018,0,0,1-8.554-17.954,44.69,44.69,0,0,0,11.276,14.805C200.946,269.114,210.2,270.051,209.957,271.406Z" fill="#5dcc33"/>
      <path id="Path_6586" data-name="Path 6586" d="M209.335,268.847c-.242,1.158-9.535-.353-15.739-8.547a22.529,22.529,0,0,1-4.115-17.43,40.252,40.252,0,0,0,7.11,15.176C201.84,265.116,209.806,267.7,209.335,268.847Z" fill="#5dcc33"/>
      <path id="Path_6587" data-name="Path 6587" d="M209.16,266.715c-.371.95-8.054-1.662-12.155-9.514A19.413,19.413,0,0,1,196,241.8a34.675,34.675,0,0,0,3.874,13.914C203.323,262.473,209.725,265.808,209.16,266.715Z" fill="#5dcc33"/>
      <path id="Path_6588" data-name="Path 6588" d="M207.834,276.9c.738.7-4.588,6.825-13.407,7.649a19.425,19.425,0,0,1-14.638-4.9,34.68,34.68,0,0,0,14.346,1.681C201.7,280.7,207.207,276.036,207.834,276.9Z" fill="#5dcc33"/>
      <path id="Path_6589" data-name="Path 6589" d="M209.733,264.374c-.525.875-7.666-2.978-10.406-11.4a19.416,19.416,0,0,1,1.568-15.356,34.682,34.682,0,0,0,1.507,14.365C204.681,259.221,210.44,263.573,209.733,264.374Z" fill="#5dcc33"/>
      <path id="Path_6590" data-name="Path 6590" d="M211.429,262.518c-.575.7-6.347-3.611-7.659-11.366a17.243,17.243,0,0,1,3.371-13.286,30.8,30.8,0,0,0-.541,12.815C207.661,257.335,212.154,261.907,211.429,262.518Z" fill="#5dcc33"/>
      <path id="Path_6591" data-name="Path 6591" d="M210.08,259.55c-4.531-14.14,1.733-22.326,1.733-22.326-.409,11.674-.369,20.432-.369,20.432Z" fill="#5dcc33"/>
      <g id="Group_2823" data-name="Group 2823">
        <path id="Path_6592" data-name="Path 6592" d="M206.268,278.053c-.8,1.458,9.035,9.957,21.915,8.213,13.048-1.71,19.305-13.85,19.09-13.538-.064.028-8.932,6.824-19.848,7.969C216.407,282.314,206.845,276.359,206.268,278.053Z" fill="#5dcc33"/>
        <path id="Path_6593" data-name="Path 6593" d="M206.467,275.239c-.693,1.3,9.424,7.281,21.919,4.381A28.12,28.12,0,0,0,246.259,266.2a50.233,50.233,0,0,1-18.943,8.869C216.635,277.651,206.932,273.763,206.467,275.239Z" fill="#5dcc33"/>
        <path id="Path_6594" data-name="Path 6594" d="M207.012,271.374c-.52,1.207,8.883,5.777,19.754,2.3a25.015,25.015,0,0,0,14.882-13.193,44.68,44.68,0,0,1-16.159,9.232C216.2,272.78,207.318,270.032,207.012,271.374Z" fill="#5dcc33"/>
        <path id="Path_6595" data-name="Path 6595" d="M208.583,269.261c-.228,1.161,8.917,3.4,17.827-1.728A22.535,22.535,0,0,0,237,253.09a40.259,40.259,0,0,1-12.469,11.2C216.941,268.75,208.6,268.021,208.583,269.261Z" fill="#5dcc33"/>
        <path id="Path_6596" data-name="Path 6596" d="M209.576,267.366c-.028,1.02,8.064,1.612,14.9-4.016a19.414,19.414,0,0,0,6.937-13.789,34.677,34.677,0,0,1-9,11.3C216.606,265.738,209.411,266.31,209.576,267.366Z" fill="#5dcc33"/>
        <path id="Path_6597" data-name="Path 6597" d="M206.823,277.263c-.954.359,1.561,8.074,9.359,12.274a19.416,19.416,0,0,0,15.389,1.2,34.692,34.692,0,0,1-13.865-4.049C210.991,283.153,207.737,276.71,206.823,277.263Z" fill="#5dcc33"/>
        <path id="Path_6598" data-name="Path 6598" d="M209.963,264.987c.141,1.011,8.22.25,14.029-6.437a19.419,19.419,0,0,0,4.549-14.75,34.682,34.682,0,0,1-6.993,12.638C216.625,262.213,209.624,263.974,209.963,264.987Z" fill="#5dcc33"/>
        <path id="Path_6599" data-name="Path 6599" d="M209.125,262.617c.256.869,7.253-.849,11.488-7.477a17.247,17.247,0,0,0,2.08-13.548,30.816,30.816,0,0,1-4.5,12.01C214.617,259.315,208.7,261.771,209.125,262.617Z" fill="#5dcc33"/>
        <path id="Path_6600" data-name="Path 6600" d="M210.8,260.228c9.69-11.251,7.843-21.05,7.843-21.05-4.179,10.908-7.634,18.956-7.634,18.956Z" fill="#5dcc33"/>
      </g>
      <path id="Path_6601" data-name="Path 6601" d="M212.593,253.485c-9.032,19.369-5.134,40.046-5.134,40.046l3.055.211C206.4,269.851,212.593,253.485,212.593,253.485Z" fill="#5dcc33"/>
    </g>
    <g id="Group_2826" data-name="Group 2826">
      <path id="Path_6602" data-name="Path 6602" d="M323.245,282.714c.165,1.654-12.2,5.642-23.382-.99-11.346-6.665-12.37-20.285-12.294-19.913.048.051,5.561,9.768,15.165,15.082C312.248,282.682,323.375,280.93,323.245,282.714Z" fill="#00a79d"/>
      <path id="Path_6603" data-name="Path 6603" d="M324.16,280.046c.129,1.471-11.518,3.026-21.891-4.519a28.123,28.123,0,0,1-11.218-19.334,50.235,50.235,0,0,0,13.981,15.558C313.858,278.3,324.308,278.506,324.16,280.046Z" fill="#00a79d"/>
      <path id="Path_6604" data-name="Path 6604" d="M325.166,276.275c.009,1.314-10.432,1.853-19.087-5.587a25.023,25.023,0,0,1-8.554-17.954A44.707,44.707,0,0,0,308.8,267.539C316.156,273.982,325.409,274.919,325.166,276.275Z" fill="#00a79d"/>
      <path id="Path_6605" data-name="Path 6605" d="M324.545,273.715c-.243,1.159-9.536-.352-15.739-8.546a22.529,22.529,0,0,1-4.116-17.431,40.239,40.239,0,0,0,7.11,15.176C317.049,269.985,325.016,272.569,324.545,273.715Z" fill="#00a79d"/>
      <path id="Path_6606" data-name="Path 6606" d="M324.37,271.584c-.372.95-8.054-1.663-12.155-9.514a19.41,19.41,0,0,1-1.007-15.4,34.682,34.682,0,0,0,3.874,13.914C318.532,267.341,324.934,270.676,324.37,271.584Z" fill="#00a79d"/>
      <path id="Path_6607" data-name="Path 6607" d="M323.043,281.77c.738.7-4.588,6.825-13.407,7.649A19.413,19.413,0,0,1,295,284.52a34.679,34.679,0,0,0,14.345,1.682C316.906,285.567,322.417,280.9,323.043,281.77Z" fill="#00a79d"/>
      <path id="Path_6608" data-name="Path 6608" d="M324.942,269.243c-.525.875-7.666-2.978-10.4-11.4a19.411,19.411,0,0,1,1.567-15.355,34.693,34.693,0,0,0,1.508,14.365C319.891,264.089,325.649,268.442,324.942,269.243Z" fill="#00a79d"/>
      <path id="Path_6609" data-name="Path 6609" d="M326.638,267.387c-.574.7-6.347-3.611-7.659-11.367a17.24,17.24,0,0,1,3.372-13.285,30.769,30.769,0,0,0-.542,12.814C322.87,262.2,327.363,266.775,326.638,267.387Z" fill="#00a79d"/>
      <path id="Path_6610" data-name="Path 6610" d="M325.29,264.419c-4.532-14.14,1.732-22.327,1.732-22.327-.409,11.675-.369,20.433-.369,20.433Z" fill="#00a79d"/>
      <g id="Group_2825" data-name="Group 2825">
        <path id="Path_6611" data-name="Path 6611" d="M321.477,282.922c-.8,1.458,9.035,9.956,21.915,8.212,13.048-1.709,19.3-13.849,19.09-13.538-.064.029-8.931,6.824-19.848,7.97C331.616,287.183,322.055,281.228,321.477,282.922Z" fill="#00a79d"/>
        <path id="Path_6612" data-name="Path 6612" d="M321.676,280.108c-.693,1.3,9.424,7.281,21.919,4.381a28.119,28.119,0,0,0,17.873-13.424,50.226,50.226,0,0,1-18.943,8.87C331.844,282.52,322.141,278.632,321.676,280.108Z" fill="#00a79d"/>
        <path id="Path_6613" data-name="Path 6613" d="M322.222,276.243c-.521,1.207,8.882,5.777,19.754,2.3a25.018,25.018,0,0,0,14.881-13.193,44.659,44.659,0,0,1-16.159,9.231C331.412,277.648,322.527,274.9,322.222,276.243Z" fill="#00a79d"/>
        <path id="Path_6614" data-name="Path 6614" d="M323.793,274.129c-.229,1.161,8.917,3.4,17.826-1.727a22.531,22.531,0,0,0,10.591-14.443,40.234,40.234,0,0,1-12.469,11.2C332.15,273.619,323.806,272.889,323.793,274.129Z" fill="#00a79d"/>
        <path id="Path_6615" data-name="Path 6615" d="M324.785,272.235c-.028,1.019,8.065,1.612,14.9-4.016a19.415,19.415,0,0,0,6.937-13.789,34.668,34.668,0,0,1-9,11.3C331.816,270.606,324.62,271.179,324.785,272.235Z" fill="#00a79d"/>
        <path id="Path_6616" data-name="Path 6616" d="M322.032,282.132c-.954.359,1.561,8.074,9.359,12.274a19.42,19.42,0,0,0,15.389,1.2,34.677,34.677,0,0,1-13.864-4.05C326.2,288.022,322.947,281.579,322.032,282.132Z" fill="#00a79d"/>
        <path id="Path_6617" data-name="Path 6617" d="M325.172,269.856c.142,1.01,8.22.25,14.03-6.437a19.416,19.416,0,0,0,4.548-14.75,34.673,34.673,0,0,1-6.993,12.638C331.834,267.082,324.834,268.843,325.172,269.856Z" fill="#00a79d"/>
        <path id="Path_6618" data-name="Path 6618" d="M324.335,267.486c.255.869,7.253-.849,11.487-7.477a17.247,17.247,0,0,0,2.08-13.548,30.8,30.8,0,0,1-4.5,12.01C329.826,264.184,323.906,266.639,324.335,267.486Z" fill="#00a79d"/>
        <path id="Path_6619" data-name="Path 6619" d="M326.008,265.1c9.69-11.251,7.844-21.051,7.844-21.051-4.18,10.909-7.634,18.957-7.634,18.957Z" fill="#00a79d"/>
      </g>
      <path id="Path_6620" data-name="Path 6620" d="M327.8,258.354c-9.032,19.369-5.134,40.046-5.134,40.046l3.056.211C321.605,274.719,327.8,258.354,327.8,258.354Z" fill="#00a79d"/>
    </g>
    <g id="Group_2833" data-name="Group 2833">
      <g id="Group_2827" data-name="Group 2827">
        <circle id="Ellipse_276" data-name="Ellipse 276" cx="15.752" cy="15.752" r="15.752" transform="translate(244.135 237.689) rotate(-11.26)" fill="#5dcc33"/>
        <path id="Path_6621" data-name="Path 6621" d="M262.846,265.813a15.752,15.752,0,1,1-.373-31.5Z" fill="#a8ea3f"/>
      </g>
      <g id="Group_2828" data-name="Group 2828">
        <circle id="Ellipse_277" data-name="Ellipse 277" cx="15.752" cy="15.752" r="15.752" transform="translate(255.794 259.925) rotate(-29.671)" fill="#5dcc33"/>
        <path id="Path_6622" data-name="Path 6622" d="M277.465,281.565a15.752,15.752,0,0,1-.374-31.5Z" fill="#a8ea3f"/>
      </g>
      <g id="Group_2829" data-name="Group 2829">
        <path id="Path_6623" data-name="Path 6623" d="M248.008,281.124a15.752,15.752,0,1,1,15.564-15.938A15.752,15.752,0,0,1,248.008,281.124Z" fill="#5dcc33"/>
        <path id="Path_6624" data-name="Path 6624" d="M248.008,281.124a15.752,15.752,0,0,1-.374-31.5Z" fill="#a8ea3f"/>
      </g>
      <g id="Group_2830" data-name="Group 2830">
        <path id="Path_6625" data-name="Path 6625" d="M263.357,288.645l-1.217-.154c-.379-.039-.921-.176-1.492-.291a8.977,8.977,0,0,1-.9-.255,8.32,8.32,0,0,1-.97-.337c-.329-.146-.681-.271-1.025-.449s-.7-.368-1.049-.583c-.338-.238-.7-.458-1.036-.728a12.143,12.143,0,0,1-.987-.872,10.118,10.118,0,0,1-.908-1,10.416,10.416,0,0,1-.809-1.114c-.266-.379-.464-.8-.7-1.2-.187-.423-.41-.832-.565-1.267a18.164,18.164,0,0,1-.814-2.611,22.921,22.921,0,0,1-.437-2.587,31.584,31.584,0,0,1,.366-9.047,28.729,28.729,0,0,0-.166,4.443,28.363,28.363,0,0,0,.481,4.5,22.079,22.079,0,0,0,.61,2.457,17.07,17.07,0,0,0,.955,2.4c.174.394.411.754.61,1.13.243.348.45.719.717,1.04a9.069,9.069,0,0,0,.8.938,8.521,8.521,0,0,0,.865.819,10.19,10.19,0,0,0,.913.691c.307.211.637.375.939.559.316.161.639.29.939.431s.623.213.914.318a6.744,6.744,0,0,0,.862.226,7.133,7.133,0,0,0,.782.161c.5.055.885.141,1.285.153l1.225.06Z" fill="#983844"/>
        <path id="Path_6626" data-name="Path 6626" d="M253.322,283.181l-.505-.075-.58-.087c-.23-.039-.538-.147-.841-.235-.153-.049-.316-.1-.476-.154l-.462-.234-.481-.248c-.154-.1-.3-.22-.458-.332s-.315-.221-.456-.356l-.413-.42a7.06,7.06,0,0,1-.738-.923,10.388,10.388,0,0,1-.567-1.013,9.124,9.124,0,0,1-.414-1.028,11.789,11.789,0,0,1-.471-1.876,11.5,11.5,0,0,1-.159-1.859,11.614,11.614,0,0,0,1.118,3.53,8.366,8.366,0,0,0,.52.9,9.8,9.8,0,0,0,.638.839,6.232,6.232,0,0,0,.752.707l.4.3a4.6,4.6,0,0,0,.418.238l.406.218.418.141.389.135.364.059c.239.03.42.087.639.1l.586,0,.511,0Z" fill="#983844"/>
        <path id="Path_6627" data-name="Path 6627" d="M251.127,277.006l.367-.073.194-.039.11-.021.069-.038c.093-.055.206-.089.338-.158a5.007,5.007,0,0,0,.408-.338,2.949,2.949,0,0,0,.379-.5,3.24,3.24,0,0,0,.315-.641,5.039,5.039,0,0,0,.236-.728,9.361,9.361,0,0,0,.25-1.533c.039-.5.055-.973.046-1.379a13.389,13.389,0,0,0-.078-1.355,13.638,13.638,0,0,1,.287,1.336c.072.4.129.883.169,1.4a9.945,9.945,0,0,1-.014,1.643,5.714,5.714,0,0,1-.137.848,4.043,4.043,0,0,1-.256.818,3.891,3.891,0,0,1-.4.738,5.3,5.3,0,0,1-.521.589,5.422,5.422,0,0,1-.618.408.972.972,0,0,1-.245.117l-.186.068-.351.129Z" fill="#983844"/>
        <path id="Path_6628" data-name="Path 6628" d="M250.49,273.492l-.3-.084-.341-.1a5.867,5.867,0,0,1-.981-.442,3.773,3.773,0,0,1-.528-.37,3.376,3.376,0,0,1-.485-.486l-.22-.274-.18-.3a4.088,4.088,0,0,1-.293-.631,5.366,5.366,0,0,1-.176-.643,5.751,5.751,0,0,1-.11-1.162,5.526,5.526,0,0,1,.113-1.122,5.758,5.758,0,0,0,.2,2.233,5.184,5.184,0,0,0,.222.591,3.732,3.732,0,0,0,.325.557l.188.26.221.227a2.914,2.914,0,0,0,.47.39,3.249,3.249,0,0,0,.494.282,2.442,2.442,0,0,0,.466.182,2.312,2.312,0,0,0,.41.121l.349.065.3.056Z" fill="#983844"/>
      </g>
      <g id="Group_2831" data-name="Group 2831">
        <path id="Path_6629" data-name="Path 6629" d="M262.679,286.477l1.225-.06c.4-.012.784-.1,1.285-.153a7.147,7.147,0,0,0,.783-.161,6.746,6.746,0,0,0,.862-.226c.29-.105.607-.187.913-.318s.623-.27.939-.431c.3-.184.632-.348.94-.559a10.331,10.331,0,0,0,.913-.691,8.519,8.519,0,0,0,.865-.819,9.324,9.324,0,0,0,.8-.938c.266-.321.473-.692.716-1.04.2-.376.436-.736.611-1.13a17.193,17.193,0,0,0,.955-2.4,22.068,22.068,0,0,0,.609-2.457,28.489,28.489,0,0,0,.482-4.5,28.887,28.887,0,0,0-.166-4.443,31.535,31.535,0,0,1,.365,9.047,22.914,22.914,0,0,1-.436,2.587,18.171,18.171,0,0,1-.815,2.611c-.155.435-.378.844-.565,1.267-.233.4-.432.821-.7,1.2a10.7,10.7,0,0,1-.809,1.114,10.005,10.005,0,0,1-.909,1,12.146,12.146,0,0,1-.987.872c-.336.27-.7.49-1.036.728-.35.215-.708.394-1.048.583s-.7.3-1.026.449a8.258,8.258,0,0,1-.97.337,8.961,8.961,0,0,1-.9.255c-.572.115-1.114.252-1.493.291l-1.217.154Z" fill="#983844"/>
        <path id="Path_6630" data-name="Path 6630" d="M272.771,281.513l.511,0,.587,0c.219-.008.4-.065.638-.1l.364-.059.39-.135.418-.141.405-.218a4.756,4.756,0,0,0,.419-.238l.4-.3a6.157,6.157,0,0,0,.752-.707,9.813,9.813,0,0,0,.639-.839,8.531,8.531,0,0,0,.519-.9,11.336,11.336,0,0,0,.7-1.731,11.531,11.531,0,0,0,.414-1.8,11.589,11.589,0,0,1-.16,1.859,11.789,11.789,0,0,1-.471,1.876,8.936,8.936,0,0,1-.414,1.028,10.592,10.592,0,0,1-.566,1.013,7.145,7.145,0,0,1-.738.923c-.139.141-.278.281-.414.42s-.306.238-.456.356-.3.229-.457.332l-.482.248-.462.234c-.16.059-.322.1-.476.154-.3.088-.611.2-.84.235l-.58.087-.505.075Z" fill="#983844"/>
        <path id="Path_6631" data-name="Path 6631" d="M274.734,278.294l-.352-.129-.185-.068a.975.975,0,0,1-.246-.117,5.325,5.325,0,0,1-.617-.408,5.2,5.2,0,0,1-.521-.589,3.9,3.9,0,0,1-.4-.738,4.045,4.045,0,0,1-.256-.818,5.589,5.589,0,0,1-.136-.848,9.842,9.842,0,0,1-.015-1.643c.04-.518.1-1,.17-1.4a13.491,13.491,0,0,1,.286-1.336s-.067.543-.078,1.355c-.009.406.007.879.046,1.379a9.472,9.472,0,0,0,.25,1.533,5.043,5.043,0,0,0,.237.728,3.3,3.3,0,0,0,.314.641,3,3,0,0,0,.379.5,5.183,5.183,0,0,0,.409.338c.131.069.244.1.337.158l.069.038.11.021.194.039.367.073Z" fill="#983844"/>
        <path id="Path_6632" data-name="Path 6632" d="M275.584,272.841l.3-.056.349-.065a2.347,2.347,0,0,0,.411-.121,2.461,2.461,0,0,0,.465-.182,3.306,3.306,0,0,0,.495-.282,2.952,2.952,0,0,0,.469-.39l.221-.227.188-.26a3.733,3.733,0,0,0,.325-.557,5.193,5.193,0,0,0,.223-.591,5.652,5.652,0,0,0,.211-1.115,5.535,5.535,0,0,0-.009-1.118A5.563,5.563,0,0,1,279.35,269a5.761,5.761,0,0,1-.111,1.162,5.369,5.369,0,0,1-.176.643,4,4,0,0,1-.293.631l-.18.3-.22.274a3.377,3.377,0,0,1-.485.486,3.765,3.765,0,0,1-.527.37,2.985,2.985,0,0,1-.524.263,3.03,3.03,0,0,1-.457.179l-.342.1-.3.084Z" fill="#983844"/>
      </g>
      <g id="Group_2832" data-name="Group 2832">
        <rect id="Rectangle_981" data-name="Rectangle 981" width="2.176" height="28.212" transform="translate(262.485 272.071)" fill="#983844"/>
      </g>
    </g>
    <g id="Group_2839" data-name="Group 2839">
      <g id="Group_2838" data-name="Group 2838">
        <g id="Group_2836" data-name="Group 2836">
          <g id="Group_2834" data-name="Group 2834">
            <path id="Path_6633" data-name="Path 6633" d="M441.4,281.329l-6.975-22.941-9.395-7,8.086,2.7-8.423-27.7-5.045-4.288,3.988.813L410.52,179.76,404.4,199.9l3.22-1.479-3.907,3.737-11.6,38.16,5.454-1.9-6.8,6.336L383.9,267.309h5.477l-6.369,2.933-3.371,11.087Z" fill="#00a79d"/>
          </g>
          <g id="Group_2835" data-name="Group 2835" opacity="0.19">
            <path id="Path_6634" data-name="Path 6634" d="M441.4,281.329l-6.975-22.941-9.395-7,8.086,2.7-8.423-27.7-5.045-4.288,3.988.813L410.52,179.76V281.329Z"/>
          </g>
        </g>
        <g id="Group_2837" data-name="Group 2837">
          <path id="Path_6635" data-name="Path 6635" d="M408.334,292.537,410.52,179.76l2.186,112.777Z" fill="#e88821"/>
          <path id="Path_6636" data-name="Path 6636" d="M411.466,265.74l13.567-31.662-14.24,27.738Z" fill="#e88821"/>
          <path id="Path_6637" data-name="Path 6637" d="M409.9,249.967l-12.333-23.1L409.9,246.791Z" fill="#e88821"/>
          <path id="Path_6638" data-name="Path 6638" d="M409.9,275.943l-18.052-22.985,17.379,25.9Z" fill="#e88821"/>
          <path id="Path_6639" data-name="Path 6639" d="M410.52,225.717l6.215-19.613-6.215,15.989Z" fill="#e88821"/>
        </g>
      </g>
    </g>
    <g id="Group_2845" data-name="Group 2845">
      <path id="Path_6640" data-name="Path 6640" d="M393.21,146.683a24.812,24.812,0,0,0-18.34-36.014c0-.091.007-.18.007-.271a21.957,21.957,0,1,0-43.581,3.8,25.11,25.11,0,0,0-3.194-.211,24.811,24.811,0,0,0-18.175,41.695,26.249,26.249,0,1,0,43.421,29.506,27.738,27.738,0,1,0,39.862-38.5Z" fill="#8bef2b"/>
      <path id="Path_6641" data-name="Path 6641" d="M393.21,146.683a24.812,24.812,0,0,0-18.34-36.014c0-.091.007-.18.007-.271a21.959,21.959,0,0,0-21.962-21.96l.433,96.746a27.738,27.738,0,1,0,39.862-38.5Z" fill="#5dcc33"/>
      <g id="Group_2840" data-name="Group 2840">
        <rect id="Rectangle_982" data-name="Rectangle 982" width="4.557" height="190.956" transform="translate(351.028 103.065)" fill="#983844"/>
      </g>
      <g id="Group_2841" data-name="Group 2841">
        <rect id="Rectangle_983" data-name="Rectangle 983" width="1.709" height="26.334" transform="matrix(0.517, -0.856, 0.856, 0.517, 330.365, 172.301)" fill="#983844"/>
      </g>
      <g id="Group_2842" data-name="Group 2842">
        <rect id="Rectangle_984" data-name="Rectangle 984" width="1.709" height="26.334" transform="matrix(0.517, -0.856, 0.856, 0.517, 330.175, 135.427)" fill="#983844"/>
      </g>
      <g id="Group_2843" data-name="Group 2843">
        <rect id="Rectangle_985" data-name="Rectangle 985" width="26.334" height="1.709" transform="matrix(0.856, -0.517, 0.517, 0.856, 352.908, 162.672)" fill="#983844"/>
      </g>
      <g id="Group_2844" data-name="Group 2844">
        <rect id="Rectangle_986" data-name="Rectangle 986" width="21.634" height="1.404" transform="matrix(0.856, -0.517, 0.517, 0.856, 352.984, 128.324)" fill="#983844"/>
      </g>
    </g>
    <g id="Group_2851" data-name="Group 2851">
      <g id="Group_2850" data-name="Group 2850">
        <g id="Group_2848" data-name="Group 2848">
          <g id="Group_2846" data-name="Group 2846">
            <path id="Path_6642" data-name="Path 6642" d="M204.91,279.652l-9.944-32.7-13.393-9.979,11.527,3.842L181.093,201.32l-7.192-6.113,5.686,1.158-18.7-61.509-8.728,28.7,4.591-2.109-5.57,5.328-16.541,54.4,7.775-2.7-9.7,9.033-9.777,32.154h7.808l-9.079,4.181-4.806,15.805Z" fill="#00a79d"/>
          </g>
          <g id="Group_2847" data-name="Group 2847" opacity="0.19">
            <path id="Path_6643" data-name="Path 6643" d="M204.91,279.652l-9.944-32.7-13.393-9.979,11.527,3.842L181.093,201.32l-7.192-6.113,5.686,1.158-18.7-61.509V279.652Z"/>
          </g>
        </g>
        <g id="Group_2849" data-name="Group 2849">
          <path id="Path_6644" data-name="Path 6644" d="M157.768,295.63l3.117-160.773L164,295.63Z" fill="#e88821"/>
          <path id="Path_6645" data-name="Path 6645" d="M162.233,257.428l19.341-45.137-20.3,39.543Z" fill="#e88821"/>
          <path id="Path_6646" data-name="Path 6646" d="M159.995,234.943l-17.582-32.929,17.582,28.4Z" fill="#e88821"/>
          <path id="Path_6647" data-name="Path 6647" d="M159.995,271.974,134.26,239.206l24.775,36.923Z" fill="#e88821"/>
          <path id="Path_6648" data-name="Path 6648" d="M160.885,200.373l8.86-27.961-8.86,22.794Z" fill="#e88821"/>
        </g>
      </g>
    </g>
    <g id="Group_2852" data-name="Group 2852">
      <circle id="Ellipse_278" data-name="Ellipse 278" cx="28.971" cy="28.971" r="28.971" transform="translate(166.777 123.828)" fill="#8cda15"/>
      <path id="Path_6649" data-name="Path 6649" d="M224.719,152.8a28.971,28.971,0,0,1-28.971,28.971V123.828A28.971,28.971,0,0,1,224.719,152.8Z" fill="#007244" opacity="0.39"/>
      <circle id="Ellipse_279" data-name="Ellipse 279" cx="27.807" cy="27.807" r="27.807" transform="translate(225.872 153.484) rotate(-33.112)" fill="#83d312"/>
      <path id="Path_6650" data-name="Path 6650" d="M292.162,161.585a27.808,27.808,0,0,1-27.808,27.807V133.778A27.807,27.807,0,0,1,292.162,161.585Z" fill="#007244" opacity="0.39"/>
      <circle id="Ellipse_280" data-name="Ellipse 280" cx="40.395" cy="40.395" r="40.395" transform="translate(180.35 153.201) rotate(-73.333)" fill="#c2e854"/>
      <path id="Path_6651" data-name="Path 6651" d="M271.028,126.089a40.394,40.394,0,0,1-40.4,40.394V85.694A40.394,40.394,0,0,1,271.028,126.089Z" fill="#007005" opacity="0.39"/>
      <path id="Path_6652" data-name="Path 6652" d="M236.547,295.855H224.719L227.6,158.779h6.074Z" fill="#8f4866"/>
      <path id="Path_6653" data-name="Path 6653" d="M227.676,231.6l-22.3-60.893h-2.637L227.676,253.9Z" fill="#8f4866"/>
      <path id="Path_6654" data-name="Path 6654" d="M227.676,231.6l-22.3-60.893h-1.115l23.412,68.042Z" fill="#ad597f"/>
      <path id="Path_6655" data-name="Path 6655" d="M235.109,227.389l17.263-60.851h-2.587l-17.855,52.982Z" fill="#8f4866"/>
      <path id="Path_6656" data-name="Path 6656" d="M241.814,203.681l27.136-24.988L242.15,200.3Z" fill="#8f4866"/>
      <path id="Path_6657" data-name="Path 6657" d="M212.892,204.573l-27.02-27.439,27.02,22.778Z" fill="#8f4866"/>
      <path id="Path_6658" data-name="Path 6658" d="M213.49,192.857l2.919-27.623-4.132,24.311Z" fill="#8f4866"/>
      <path id="Path_6659" data-name="Path 6659" d="M242.576,189.546l-4.316-24.311,5.754,22.142Z" fill="#8f4866"/>
      <path id="Path_6660" data-name="Path 6660" d="M214.757,180.862l10.916-14.4-11.1,13.126Z" fill="#8f4866"/>
      <path id="Path_6661" data-name="Path 6661" d="M250.1,193.89l5.9-14.4-4.635,14.066Z" fill="#8f4866"/>
      <path id="Path_6662" data-name="Path 6662" d="M253.568,192.857l17.78-6.167-15.966,4.163Z" fill="#8f4866"/>
      <path id="Path_6663" data-name="Path 6663" d="M201.337,190.171l-6.474-18.192,5.115,17.413Z" fill="#8f4866"/>
      <path id="Path_6664" data-name="Path 6664" d="M213.267,183.718l-4.5-15.905,4.947,13.263Z" fill="#8f4866"/>
      <path id="Path_6665" data-name="Path 6665" d="M229.941,295.855h-5.223L227.6,158.779h3.037Z" fill="#ad597f"/>
      <path id="Path_6666" data-name="Path 6666" d="M233.075,222.356l17.733-55.818h-1.023l-17.855,52.982Z" fill="#ad597f"/>
    </g>
    <g id="Group_2857" data-name="Group 2857">
      <path id="Path_6667" data-name="Path 6667" d="M291.047,227.169a26.969,26.969,0,0,1-23.758-16.9c7.957,15.584,23.983,13.306,23.983,13.306Z" fill="#a2525e"/>
      <path id="Path_6668" data-name="Path 6668" d="M303.721,209.666c14.863,5.275,24.227-13.368,24.227-13.368-9.869,21.76-25.068,14.927-25.068,14.927Z" fill="#a2525e"/>
      <path id="Path_6669" data-name="Path 6669" d="M341.464,204.27a9.643,9.643,0,1,1-9.643-9.644A9.642,9.642,0,0,1,341.464,204.27Z" fill="#008e7d"/>
      <path id="Path_6670" data-name="Path 6670" d="M336.087,194.627a9.644,9.644,0,1,1-9.643-9.644A9.643,9.643,0,0,1,336.087,194.627Z" fill="#009978"/>
      <path id="Path_6671" data-name="Path 6671" d="M345.73,193.447a9.644,9.644,0,1,1-9.643-9.644A9.641,9.641,0,0,1,345.73,193.447Z" fill="#0dbc79"/>
      <path id="Path_6672" data-name="Path 6672" d="M253.608,219.789a9.643,9.643,0,1,0,9.643-9.644A9.642,9.642,0,0,0,253.608,219.789Z" fill="#008e7d"/>
      <path id="Path_6673" data-name="Path 6673" d="M258.985,210.146a9.644,9.644,0,1,0,9.643-9.644A9.642,9.642,0,0,0,258.985,210.146Z" fill="#009978"/>
      <path id="Path_6674" data-name="Path 6674" d="M249.342,208.966a9.644,9.644,0,1,0,9.643-9.644A9.642,9.642,0,0,0,249.342,208.966Z" fill="#0dbc79"/>
      <path id="Path_6675" data-name="Path 6675" d="M305.038,208.108c-1.764-6.833,3.6-15.3,3.6-15.3-7.552,11.462-4.913,16.157-4.913,16.157Z" fill="#a2525e"/>
      <path id="Path_6676" data-name="Path 6676" d="M289.08,224.459c-6.213-3.347-8.786-13.032-8.786-13.032,3.282,13.328,8.521,14.581,8.521,14.581Z" fill="#a2525e"/>
      <g id="Group_2856" data-name="Group 2856">
        <g id="Group_2855" data-name="Group 2855">
          <g id="Group_2854" data-name="Group 2854">
            <g id="Group_2853" data-name="Group 2853">
              <path id="Path_6677" data-name="Path 6677" d="M287.7,186.272a12.449,12.449,0,1,1-12.449-12.45A12.448,12.448,0,0,1,287.7,186.272Z" fill="#008c6b"/>
              <path id="Path_6678" data-name="Path 6678" d="M316.17,186.272a12.449,12.449,0,1,1-12.449-12.45A12.448,12.448,0,0,1,316.17,186.272Z" fill="#008c6b"/>
              <path id="Path_6679" data-name="Path 6679" d="M295.569,299.882h-5.307V159.02h2.79Z" fill="#a2525e"/>
              <path id="Path_6680" data-name="Path 6680" d="M292.11,299.882h-1.848V159.02h.785Z" fill="#b25d6d"/>
              <path id="Path_6681" data-name="Path 6681" d="M329.806,147.192a17.982,17.982,0,1,1-17.982-17.982A17.981,17.981,0,0,1,329.806,147.192Z" fill="#0dbc79"/>
              <path id="Path_6682" data-name="Path 6682" d="M337.419,167.391a17.982,17.982,0,1,1-17.981-17.983A17.978,17.978,0,0,1,337.419,167.391Z" fill="#009978"/>
              <path id="Path_6683" data-name="Path 6683" d="M285.27,165.173a17.981,17.981,0,1,1-17.982-17.981A17.981,17.981,0,0,1,285.27,165.173Z" fill="#009978"/>
              <path id="Path_6684" data-name="Path 6684" d="M318.079,162.8a25.163,25.163,0,1,1-25.164-25.162A25.161,25.161,0,0,1,318.079,162.8Z" fill="#07a882"/>
              <path id="Path_6685" data-name="Path 6685" d="M307.488,129.21a14.051,14.051,0,1,1-14.05-14.051A14.054,14.054,0,0,1,307.488,129.21Z" fill="#0dbc79"/>
              <path id="Path_6686" data-name="Path 6686" d="M292.132,144.191a17.982,17.982,0,1,1-17.982-17.98A17.982,17.982,0,0,1,292.132,144.191Z" fill="#0dbc79"/>
              <path id="Path_6687" data-name="Path 6687" d="M291.965,214.361c22.708.845,30.691-32.1,30.691-32.1-10.832,30.364-30.691,28.773-30.691,28.773Z" fill="#a2525e"/>
              <path id="Path_6688" data-name="Path 6688" d="M291.047,203.356c-14.741-1.611-18.675-21.1-18.675-21.1,6.572,18.489,18.675,18.664,18.675,18.664Z" fill="#a2525e"/>
              <path id="Path_6689" data-name="Path 6689" d="M293.758,198.521c9.419-.516,9.963-12.987,9.963-12.987-2.35,11.023-10.085,11.39-10.085,11.39Z" fill="#a2525e"/>
              <path id="Path_6690" data-name="Path 6690" d="M276.913,193.447a23.239,23.239,0,0,1-14.279-6.624c9.083,7.221,13.916,5.134,13.916,5.134Z" fill="#a2525e"/>
              <path id="Path_6691" data-name="Path 6691" d="M301.818,192.807c7.254.01,9.627-3.918,9.627-3.918a11.922,11.922,0,0,1-9.233,3.068Z" fill="#a2525e"/>
            </g>
          </g>
          <path id="Path_6692" data-name="Path 6692" d="M276.949,179.859c-20.05-12.227-20.356-31.363-19.674-29.466a17.977,17.977,0,0,0,6.082,32.444,12.446,12.446,0,1,0,24.317,4.7,25.192,25.192,0,0,0,3.755.509,12.442,12.442,0,0,0,24.776-1.642C316.2,185.993,297.581,192.441,276.949,179.859Z" fill="#0c0c0c" opacity="0.15"/>
        </g>
        <path id="Path_6693" data-name="Path 6693" d="M311.937,152.857c3.267,6.111,2.2,17.186-3.843,20.419s.053-1.557-8.675-14.408c-3.893-5.732-7.873-11.24-4.392-13.358C302.863,140.741,308.67,146.745,311.937,152.857Z" fill="#fffee9" opacity="0.19"/>
        <path id="Path_6694" data-name="Path 6694" d="M287.576,135.349c2.6,4.847,4.34,17.7-3.158,21.81-5.033,2.757,1.319-9.967-9.172-15.465-4.911-2.574-10.2-7.917-6.617-11.508C273.755,125.052,283.7,128.116,287.576,135.349Z" fill="#fffee9" opacity="0.19"/>
      </g>
    </g>
    <g id="Group_2860" data-name="Group 2860">
      <g id="Group_2858" data-name="Group 2858">
        <path id="Path_6695" data-name="Path 6695" d="M386.888,278.214c-5.156,7.257-7.245,8.731-8.243,8.325s-.525-2.536,4.631-9.792a77.293,77.293,0,0,1,11.142-12.4A64.223,64.223,0,0,1,386.888,278.214Z" fill="#009978"/>
        <path id="Path_6696" data-name="Path 6696" d="M385.042,271.085c-5.156,7.257-7.246,8.731-8.243,8.326s-.525-2.536,4.631-9.793a77.293,77.293,0,0,1,11.142-12.4A64.223,64.223,0,0,1,385.042,271.085Z" fill="#009978"/>
        <path id="Path_6697" data-name="Path 6697" d="M381.359,265.594c-3.972,5.59-5.582,6.726-6.35,6.414s-.4-1.954,3.567-7.544a59.528,59.528,0,0,1,8.583-9.556A49.431,49.431,0,0,1,381.359,265.594Z" fill="#009978"/>
        <path id="Path_6698" data-name="Path 6698" d="M379.7,259.3c-3.8,5.341-5.333,6.426-6.067,6.128s-.387-1.867,3.409-7.208a56.889,56.889,0,0,1,8.2-9.131A47.243,47.243,0,0,1,379.7,259.3Z" fill="#009978"/>
        <path id="Path_6699" data-name="Path 6699" d="M377.4,252.929c-3.332,4.691-4.683,5.644-5.328,5.382s-.339-1.64,2.993-6.33a50,50,0,0,1,7.2-8.019A41.484,41.484,0,0,1,377.4,252.929Z" fill="#009978"/>
        <path id="Path_6700" data-name="Path 6700" d="M374.49,247.6c-2.758,3.882-3.876,4.67-4.41,4.454s-.281-1.357,2.478-5.239a41.335,41.335,0,0,1,5.961-6.637A34.344,34.344,0,0,1,374.49,247.6Z" fill="#009978"/>
        <path id="Path_6701" data-name="Path 6701" d="M384.17,287.409c-4.344,2.885-5.735,3.31-6.118,2.95s.384-1.367,4.729-4.253a53.032,53.032,0,0,1,8.561-4.572A45.39,45.39,0,0,1,384.17,287.409Z" fill="#009978"/>
        <path id="Path_6702" data-name="Path 6702" d="M372.653,242.554c-2.393,3.368-3.363,4.052-3.825,3.864s-.244-1.177,2.148-4.544a35.845,35.845,0,0,1,5.171-5.757A29.826,29.826,0,0,1,372.653,242.554Z" fill="#009978"/>
        <path id="Path_6703" data-name="Path 6703" d="M370.668,237.874c-2.236,3.147-3.142,3.786-3.575,3.61s-.228-1.1,2.008-4.246a33.48,33.48,0,0,1,4.832-5.379A27.823,27.823,0,0,1,370.668,237.874Z" fill="#009978"/>
        <path id="Path_6704" data-name="Path 6704" d="M368.627,233.175c-2.023,2.848-2.843,3.426-3.234,3.267s-.206-.995,1.817-3.843a30.345,30.345,0,0,1,4.372-4.868A25.156,25.156,0,0,1,368.627,233.175Z" fill="#009978"/>
        <path id="Path_6705" data-name="Path 6705" d="M366.509,228.856c-1.779,2.5-2.5,3.011-2.843,2.871s-.181-.874,1.6-3.377a26.671,26.671,0,0,1,3.843-4.28A22.11,22.11,0,0,1,366.509,228.856Z" fill="#009978"/>
        <path id="Path_6706" data-name="Path 6706" d="M364.484,225.049c-1.064,2.717-1.635,3.33-2.013,3.253s-.421-.814.643-3.531a22.626,22.626,0,0,1,2.611-4.781A19.468,19.468,0,0,1,364.484,225.049Z" fill="#009978"/>
        <path id="Path_6707" data-name="Path 6707" d="M366.148,284.7c8.2,4.657,10.812,5.217,11.518,4.481s-.76-2.491-8.963-7.148a91.032,91.032,0,0,0-16.13-7.1A76.261,76.261,0,0,0,366.148,284.7Z" fill="#009978"/>
        <path id="Path_6708" data-name="Path 6708" d="M365.881,277.41c8.2,4.658,10.812,5.218,11.518,4.481s-.76-2.49-8.963-7.148a91.041,91.041,0,0,0-16.129-7.1A76.243,76.243,0,0,0,365.881,277.41Z" fill="#009978"/>
        <path id="Path_6709" data-name="Path 6709" d="M367.105,270.9c6.319,3.588,8.329,4.019,8.873,3.451s-.586-1.918-6.9-5.506a70.093,70.093,0,0,0-12.425-5.469A58.722,58.722,0,0,0,367.105,270.9Z" fill="#009978"/>
        <path id="Path_6710" data-name="Path 6710" d="M366.007,264.369c6.037,3.428,7.958,3.841,8.478,3.3s-.56-1.833-6.6-5.261a67.053,67.053,0,0,0-11.873-5.226A56.1,56.1,0,0,0,366.007,264.369Z" fill="#009978"/>
        <path id="Path_6711" data-name="Path 6711" d="M365.7,257.964c5.3,3.01,6.989,3.372,7.445,2.9s-.491-1.61-5.793-4.62a58.8,58.8,0,0,0-10.426-4.589A49.3,49.3,0,0,0,365.7,257.964Z" fill="#009978"/>
        <path id="Path_6712" data-name="Path 6712" d="M365.042,252.127c4.388,2.492,5.784,2.792,6.162,2.4s-.407-1.333-4.8-3.824a48.714,48.714,0,0,0-8.629-3.8A40.756,40.756,0,0,0,365.042,252.127Z" fill="#009978"/>
        <path id="Path_6713" data-name="Path 6713" d="M371.516,292.181c5.338,1,6.8.871,6.976.4s-1.015-1.1-6.353-2.1a58.251,58.251,0,0,0-9.978-.966A52.5,52.5,0,0,0,371.516,292.181Z" fill="#009978"/>
        <path id="Path_6714" data-name="Path 6714" d="M364.506,247.444c3.806,2.162,5.017,2.422,5.344,2.08s-.352-1.156-4.159-3.317a42.242,42.242,0,0,0-7.484-3.294A35.407,35.407,0,0,0,364.506,247.444Z" fill="#009978"/>
        <path id="Path_6715" data-name="Path 6715" d="M362.758,242.014c3.557,2.02,4.689,2.262,4.995,1.943s-.33-1.08-3.886-3.1a39.464,39.464,0,0,0-6.995-3.079A33.059,33.059,0,0,0,362.758,242.014Z" fill="#009978"/>
        <path id="Path_6716" data-name="Path 6716" d="M361.777,237.478c3.218,1.828,4.243,2.048,4.519,1.759s-.3-.978-3.517-2.8a35.71,35.71,0,0,0-6.329-2.786A29.893,29.893,0,0,0,361.777,237.478Z" fill="#009978"/>
        <path id="Path_6717" data-name="Path 6717" d="M360.7,232.98c2.829,1.606,3.729,1.8,3.972,1.545s-.261-.859-3.091-2.465a31.353,31.353,0,0,0-5.564-2.449A26.315,26.315,0,0,0,360.7,232.98Z" fill="#009978"/>
        <path id="Path_6718" data-name="Path 6718" d="M359.578,228.371c2.286,2.066,3.1,2.409,3.407,2.2s-.015-.893-2.3-2.958a26.974,26.974,0,0,0-4.693-3.36A22.351,22.351,0,0,0,359.578,228.371Z" fill="#009978"/>
        <path id="Path_6719" data-name="Path 6719" d="M359.578,228.371c2.286,2.066,3.1,2.409,3.407,2.2l-6.995-6.318A22.351,22.351,0,0,0,359.578,228.371Z" opacity="0.25"/>
        <path id="Path_6720" data-name="Path 6720" d="M360.7,232.98c2.829,1.606,3.729,1.8,3.972,1.545l-8.655-4.914A26.315,26.315,0,0,0,360.7,232.98Z" opacity="0.25"/>
        <path id="Path_6721" data-name="Path 6721" d="M361.777,237.478c3.218,1.828,4.243,2.048,4.519,1.759l-9.846-5.591A29.893,29.893,0,0,0,361.777,237.478Z" opacity="0.25"/>
        <path id="Path_6722" data-name="Path 6722" d="M362.758,242.014c3.557,2.02,4.689,2.262,4.995,1.943l-10.881-6.178A33.059,33.059,0,0,0,362.758,242.014Z" opacity="0.25"/>
        <path id="Path_6723" data-name="Path 6723" d="M364.506,247.444c3.806,2.162,5.017,2.422,5.344,2.08l-11.643-6.611A35.407,35.407,0,0,0,364.506,247.444Z" opacity="0.25"/>
        <path id="Path_6724" data-name="Path 6724" d="M365.042,252.127c4.388,2.492,5.784,2.792,6.162,2.4L357.78,246.9A40.756,40.756,0,0,0,365.042,252.127Z" opacity="0.25"/>
        <path id="Path_6725" data-name="Path 6725" d="M365.7,257.964c5.3,3.01,6.989,3.372,7.445,2.9l-16.219-9.209A49.3,49.3,0,0,0,365.7,257.964Z" opacity="0.25"/>
        <path id="Path_6726" data-name="Path 6726" d="M366.007,264.369c6.037,3.428,7.958,3.841,8.478,3.3l-18.47-10.487A56.1,56.1,0,0,0,366.007,264.369Z" opacity="0.25"/>
        <path id="Path_6727" data-name="Path 6727" d="M367.105,270.9c6.319,3.588,8.329,4.019,8.873,3.451l-19.33-10.975A58.722,58.722,0,0,0,367.105,270.9Z" opacity="0.25"/>
        <path id="Path_6728" data-name="Path 6728" d="M365.881,277.41c8.2,4.658,10.812,5.218,11.518,4.481l-25.092-14.247A76.243,76.243,0,0,0,365.881,277.41Z" opacity="0.25"/>
        <path id="Path_6729" data-name="Path 6729" d="M366.148,284.7c8.2,4.657,10.812,5.217,11.518,4.481l-25.093-14.248A76.261,76.261,0,0,0,366.148,284.7Z" opacity="0.25"/>
        <path id="Path_6730" data-name="Path 6730" d="M371.516,292.181c5.338,1,6.8.871,6.976.4l-16.331-3.063A52.5,52.5,0,0,0,371.516,292.181Z" opacity="0.25"/>
        <path id="Path_6731" data-name="Path 6731" d="M384.17,287.409c-4.344,2.885-5.735,3.31-6.118,2.95l13.29-8.825A45.39,45.39,0,0,1,384.17,287.409Z" opacity="0.25"/>
        <path id="Path_6732" data-name="Path 6732" d="M386.888,278.214c-5.156,7.257-7.245,8.731-8.243,8.325l15.773-22.2A64.223,64.223,0,0,1,386.888,278.214Z" opacity="0.25"/>
        <path id="Path_6733" data-name="Path 6733" d="M385.042,271.085c-5.156,7.257-7.246,8.731-8.243,8.326l15.773-22.2A64.223,64.223,0,0,1,385.042,271.085Z" opacity="0.25"/>
        <path id="Path_6734" data-name="Path 6734" d="M381.359,265.594c-3.972,5.59-5.582,6.726-6.35,6.414l12.15-17.1A49.431,49.431,0,0,1,381.359,265.594Z" opacity="0.25"/>
        <path id="Path_6735" data-name="Path 6735" d="M379.7,259.3c-3.8,5.341-5.333,6.426-6.067,6.128l11.61-16.339A47.243,47.243,0,0,1,379.7,259.3Z" opacity="0.25"/>
        <path id="Path_6736" data-name="Path 6736" d="M377.4,252.929c-3.332,4.691-4.683,5.644-5.328,5.382l10.195-14.349A41.484,41.484,0,0,1,377.4,252.929Z" opacity="0.25"/>
        <path id="Path_6737" data-name="Path 6737" d="M374.49,247.6c-2.758,3.882-3.876,4.67-4.41,4.454l8.439-11.876A34.344,34.344,0,0,1,374.49,247.6Z" opacity="0.25"/>
        <path id="Path_6738" data-name="Path 6738" d="M372.653,242.554c-2.393,3.368-3.363,4.052-3.825,3.864l7.319-10.3A29.826,29.826,0,0,1,372.653,242.554Z" opacity="0.25"/>
        <path id="Path_6739" data-name="Path 6739" d="M370.668,237.874c-2.236,3.147-3.142,3.786-3.575,3.61l6.84-9.625A27.823,27.823,0,0,1,370.668,237.874Z" opacity="0.25"/>
        <path id="Path_6740" data-name="Path 6740" d="M368.627,233.175c-2.023,2.848-2.843,3.426-3.234,3.267l6.189-8.711A25.156,25.156,0,0,1,368.627,233.175Z" opacity="0.25"/>
        <path id="Path_6741" data-name="Path 6741" d="M366.509,228.856c-1.779,2.5-2.5,3.011-2.843,2.871l5.44-7.657A22.11,22.11,0,0,1,366.509,228.856Z" opacity="0.25"/>
        <path id="Path_6742" data-name="Path 6742" d="M364.484,225.049c-1.064,2.717-1.635,3.33-2.013,3.253l3.254-8.312A19.468,19.468,0,0,1,364.484,225.049Z" opacity="0.25"/>
        <path id="Path_6743" data-name="Path 6743" d="M379.909,294.008c-1.9-37.729-20.364-72.135-20.364-72.135,18.1,45.853,18.152,72.361,18.152,72.361Z" fill="#009978"/>
        <path id="Path_6744" data-name="Path 6744" d="M379.909,294.008s-.1-1.174-.285-3.23c-.09-1.028-.2-2.276-.326-3.707-.193-1.423-.411-3.028-.648-4.78q-.087-.655-.179-1.34c-.06-.455-.117-.919-.209-1.387q-.252-1.407-.521-2.9t-.549-3.066q-.336-1.559-.684-3.18t-.712-3.287c-.262-1.106-.559-2.217-.841-3.342s-.568-2.258-.872-3.391q-.49-1.689-.982-3.389c-.619-2.274-1.364-4.509-2.061-6.721-.339-1.109-.726-2.193-1.1-3.267s-.743-2.134-1.105-3.177q-.582-1.551-1.141-3.047c-.367-1-.728-1.973-1.11-2.911l-1.087-2.743c-.356-.884-.723-1.728-1.062-2.544-.675-1.634-1.342-3.111-1.913-4.43-.592-1.308-1.108-2.449-1.553-3.38-.879-1.867-1.425-2.912-1.425-2.912s.569,1.033,1.49,2.88c.465.922,1.007,2.052,1.628,3.349.6,1.3,1.3,2.769,1.993,4.4.349.813.727,1.654,1.094,2.535s.737,1.794,1.123,2.732.768,1.907,1.148,2.9l1.161,3.045q.551,1.564,1.12,3.178c.378,1.074.77,2.158,1.114,3.268.707,2.213,1.464,4.45,2.092,6.726q.486,1.7.97,3.4c.3,1.136.574,2.275.86,3.4s.572,2.243.829,3.352q.355,1.671.7,3.3c.225,1.083.467,2.144.664,3.191q.262,1.575.513,3.079t.486,2.914c.086.47.137.936.192,1.394s.11.906.163,1.345c.214,1.758.407,3.37.564,4.8.094,1.434.177,2.684.245,3.714C379.831,292.832,379.909,294.008,379.909,294.008Z" opacity="0.25"/>
      </g>
      <g id="Group_2859" data-name="Group 2859">
        <path id="Path_6745" data-name="Path 6745" d="M376.991,279.072c1.41,7.437,2.475,9.273,3.355,9.26s1.245-1.872-.165-9.31a65.682,65.682,0,0,0-4.148-13.442A57.51,57.51,0,0,0,376.991,279.072Z" fill="#009978"/>
        <path id="Path_6746" data-name="Path 6746" d="M380.765,273.925c1.41,7.437,2.475,9.273,3.355,9.26s1.245-1.872-.165-9.31a65.68,65.68,0,0,0-4.148-13.442A57.51,57.51,0,0,0,380.765,273.925Z" fill="#009978"/>
        <path id="Path_6747" data-name="Path 6747" d="M385.36,270.667c1.087,5.729,1.906,7.144,2.585,7.133s.959-1.442-.128-7.171a50.575,50.575,0,0,0-3.195-10.355A44.311,44.311,0,0,0,385.36,270.667Z" fill="#009978"/>
        <path id="Path_6748" data-name="Path 6748" d="M388.71,266.132c1.038,5.475,1.821,6.826,2.469,6.816s.916-1.378-.121-6.852A48.328,48.328,0,0,0,388,256.2,42.344,42.344,0,0,0,388.71,266.132Z" fill="#009978"/>
        <path id="Path_6749" data-name="Path 6749" d="M392.573,261.735c.911,4.807,1.6,5.994,2.169,5.986s.8-1.211-.107-6.018a42.482,42.482,0,0,0-2.682-8.689A37.162,37.162,0,0,0,392.573,261.735Z" fill="#009978"/>
        <path id="Path_6750" data-name="Path 6750" d="M396.537,258.361c.755,3.979,1.324,4.961,1.8,4.954s.666-1-.088-4.981a35.139,35.139,0,0,0-2.22-7.191A30.806,30.806,0,0,0,396.537,258.361Z" fill="#009978"/>
        <path id="Path_6751" data-name="Path 6751" d="M375.93,287.3c2.273,3.674,3.168,4.45,3.575,4.281s.173-1.218-2.1-4.893a41.929,41.929,0,0,0-4.854-6.346A37.522,37.522,0,0,0,375.93,287.3Z" fill="#009978"/>
        <path id="Path_6752" data-name="Path 6752" d="M399.6,254.888c.654,3.451,1.148,4.3,1.557,4.3s.577-.869-.077-4.32a30.44,30.44,0,0,0-1.925-6.237A26.716,26.716,0,0,0,399.6,254.888Z" fill="#009978"/>
        <path id="Path_6753" data-name="Path 6753" d="M402.658,251.75c.611,3.225,1.073,4.022,1.455,4.016s.54-.812-.072-4.037a28.441,28.441,0,0,0-1.8-5.829A24.917,24.917,0,0,0,402.658,251.75Z" fill="#009978"/>
        <path id="Path_6754" data-name="Path 6754" d="M405.76,248.615c.554,2.918.971,3.639,1.317,3.634s.488-.735-.065-3.653a25.73,25.73,0,0,0-1.628-5.275A22.587,22.587,0,0,0,405.76,248.615Z" fill="#009978"/>
        <path id="Path_6755" data-name="Path 6755" d="M408.793,245.809c.487,2.565.854,3.2,1.158,3.194s.429-.646-.057-3.211a22.685,22.685,0,0,0-1.431-4.637A19.846,19.846,0,0,0,408.793,245.809Z" fill="#009978"/>
        <path id="Path_6756" data-name="Path 6756" d="M411.584,243.385c-.119,2.514.1,3.185.41,3.241s.588-.522.707-3.036a20.142,20.142,0,0,0-.343-4.654A18.027,18.027,0,0,0,411.584,243.385Z" fill="#009978"/>
        <path id="Path_6757" data-name="Path 6757" d="M390.292,290.763c-7.689,1.177-9.825.811-10.1,0s1.4-1.762,9.093-2.938a70.942,70.942,0,0,1,14.427-.66A62.263,62.263,0,0,1,390.292,290.763Z" fill="#009978"/>
        <path id="Path_6758" data-name="Path 6758" d="M392.943,284.99c-7.689,1.176-9.825.811-10.1,0s1.4-1.762,9.093-2.939a71.017,71.017,0,0,1,14.426-.66A62.207,62.207,0,0,1,392.943,284.99Z" fill="#009978"/>
        <path id="Path_6759" data-name="Path 6759" d="M394.218,279.379c-5.923.907-7.569.625-7.784,0s1.082-1.358,7.005-2.264a54.731,54.731,0,0,1,11.113-.509A47.939,47.939,0,0,1,394.218,279.379Z" fill="#009978"/>
        <path id="Path_6760" data-name="Path 6760" d="M397.232,274.48c-5.659.866-7.231.6-7.437,0s1.034-1.3,6.693-2.163a52.256,52.256,0,0,1,10.619-.486A45.819,45.819,0,0,1,397.232,274.48Z" fill="#009978"/>
        <path id="Path_6761" data-name="Path 6761" d="M399.613,269.432c-4.97.761-6.35.524-6.531,0s.908-1.139,5.878-1.9a45.937,45.937,0,0,1,9.325-.427A40.2,40.2,0,0,1,399.613,269.432Z" fill="#009978"/>
        <path id="Path_6762" data-name="Path 6762" d="M402.067,264.952c-4.113.63-5.256.434-5.406,0s.752-.943,4.865-1.572a37.964,37.964,0,0,1,7.718-.354A33.271,33.271,0,0,1,402.067,264.952Z" fill="#009978"/>
        <path id="Path_6763" data-name="Path 6763" d="M383.772,295.089c-4.321-.864-5.372-1.427-5.343-1.856s1.126-.563,5.448.3a43.87,43.87,0,0,1,7.772,2.342A40.3,40.3,0,0,1,383.772,295.089Z" fill="#009978"/>
        <path id="Path_6764" data-name="Path 6764" d="M404.041,261.36c-3.568.546-4.559.376-4.689,0s.652-.818,4.22-1.364a32.963,32.963,0,0,1,6.694-.307A28.857,28.857,0,0,1,404.041,261.36Z" fill="#009978"/>
        <path id="Path_6765" data-name="Path 6765" d="M407.17,257.546c-3.334.51-4.26.351-4.381,0s.609-.764,3.943-1.274a30.787,30.787,0,0,1,6.256-.286A26.992,26.992,0,0,1,407.17,257.546Z" fill="#009978"/>
        <path id="Path_6766" data-name="Path 6766" d="M409.428,254.211c-3.017.461-3.855.318-3.965,0s.551-.691,3.568-1.153a27.824,27.824,0,0,1,5.661-.259A24.428,24.428,0,0,1,409.428,254.211Z" fill="#009978"/>
        <path id="Path_6767" data-name="Path 6767" d="M411.747,250.937c-2.652.406-3.388.279-3.485,0s.485-.608,3.137-1.014a24.481,24.481,0,0,1,4.976-.228A21.485,21.485,0,0,1,411.747,250.937Z" fill="#009978"/>
        <path id="Path_6768" data-name="Path 6768" d="M414.13,247.586c-2.4.943-3.125.964-3.282.7s.311-.712,2.712-1.655a21.826,21.826,0,0,1,4.633-1.231A19.23,19.23,0,0,1,414.13,247.586Z" fill="#009978"/>
        <path id="Path_6769" data-name="Path 6769" d="M414.13,247.586c-2.4.943-3.125.964-3.282.7l7.345-2.886A19.23,19.23,0,0,1,414.13,247.586Z" opacity="0.25"/>
        <path id="Path_6770" data-name="Path 6770" d="M411.747,250.937c-2.652.406-3.388.279-3.485,0l8.113-1.242A21.485,21.485,0,0,1,411.747,250.937Z" opacity="0.25"/>
        <path id="Path_6771" data-name="Path 6771" d="M409.428,254.211c-3.017.461-3.855.318-3.965,0l9.229-1.412A24.428,24.428,0,0,1,409.428,254.211Z" opacity="0.25"/>
        <path id="Path_6772" data-name="Path 6772" d="M407.17,257.546c-3.334.51-4.26.351-4.381,0l10.2-1.56A26.992,26.992,0,0,1,407.17,257.546Z" opacity="0.25"/>
        <path id="Path_6773" data-name="Path 6773" d="M404.041,261.36c-3.568.546-4.559.376-4.689,0l10.914-1.671A28.857,28.857,0,0,1,404.041,261.36Z" opacity="0.25"/>
        <path id="Path_6774" data-name="Path 6774" d="M402.067,264.952c-4.113.63-5.256.434-5.406,0l12.583-1.926A33.271,33.271,0,0,1,402.067,264.952Z" opacity="0.25"/>
        <path id="Path_6775" data-name="Path 6775" d="M399.613,269.432c-4.97.761-6.35.524-6.531,0l15.2-2.327A40.2,40.2,0,0,1,399.613,269.432Z" opacity="0.25"/>
        <path id="Path_6776" data-name="Path 6776" d="M397.232,274.48c-5.659.866-7.231.6-7.437,0l17.312-2.649A45.819,45.819,0,0,1,397.232,274.48Z" opacity="0.25"/>
        <path id="Path_6777" data-name="Path 6777" d="M394.218,279.379c-5.923.907-7.569.625-7.784,0l18.118-2.773A47.939,47.939,0,0,1,394.218,279.379Z" opacity="0.25"/>
        <path id="Path_6778" data-name="Path 6778" d="M392.943,284.99c-7.689,1.176-9.825.811-10.1,0l23.519-3.6A62.207,62.207,0,0,1,392.943,284.99Z" opacity="0.25"/>
        <path id="Path_6779" data-name="Path 6779" d="M390.292,290.763c-7.689,1.177-9.825.811-10.1,0l23.52-3.6A62.263,62.263,0,0,1,390.292,290.763Z" opacity="0.25"/>
        <path id="Path_6780" data-name="Path 6780" d="M383.772,295.089c-4.321-.864-5.372-1.427-5.343-1.856l13.22,2.643A40.3,40.3,0,0,1,383.772,295.089Z" opacity="0.25"/>
        <path id="Path_6781" data-name="Path 6781" d="M375.93,287.3c2.273,3.674,3.168,4.45,3.575,4.281l-6.954-11.239A37.522,37.522,0,0,0,375.93,287.3Z" opacity="0.25"/>
        <path id="Path_6782" data-name="Path 6782" d="M376.991,279.072c1.41,7.437,2.475,9.273,3.355,9.26l-4.313-22.752A57.51,57.51,0,0,0,376.991,279.072Z" opacity="0.25"/>
        <path id="Path_6783" data-name="Path 6783" d="M380.765,273.925c1.41,7.437,2.475,9.273,3.355,9.26l-4.313-22.752A57.51,57.51,0,0,0,380.765,273.925Z" opacity="0.25"/>
        <path id="Path_6784" data-name="Path 6784" d="M385.36,270.667c1.087,5.729,1.906,7.144,2.585,7.133l-3.323-17.526A44.311,44.311,0,0,0,385.36,270.667Z" opacity="0.25"/>
        <path id="Path_6785" data-name="Path 6785" d="M388.71,266.132c1.038,5.475,1.821,6.826,2.469,6.816L388,256.2A42.344,42.344,0,0,0,388.71,266.132Z" opacity="0.25"/>
        <path id="Path_6786" data-name="Path 6786" d="M392.573,261.735c.911,4.807,1.6,5.994,2.169,5.986l-2.789-14.707A37.162,37.162,0,0,0,392.573,261.735Z" opacity="0.25"/>
        <path id="Path_6787" data-name="Path 6787" d="M396.537,258.361c.755,3.979,1.324,4.961,1.8,4.954l-2.308-12.172A30.806,30.806,0,0,0,396.537,258.361Z" opacity="0.25"/>
        <path id="Path_6788" data-name="Path 6788" d="M399.6,254.888c.654,3.451,1.148,4.3,1.557,4.3l-2-10.557A26.716,26.716,0,0,0,399.6,254.888Z" opacity="0.25"/>
        <path id="Path_6789" data-name="Path 6789" d="M402.658,251.75c.611,3.225,1.073,4.022,1.455,4.016l-1.871-9.866A24.917,24.917,0,0,0,402.658,251.75Z" opacity="0.25"/>
        <path id="Path_6790" data-name="Path 6790" d="M405.76,248.615c.554,2.918.971,3.639,1.317,3.634l-1.693-8.928A22.587,22.587,0,0,0,405.76,248.615Z" opacity="0.25"/>
        <path id="Path_6791" data-name="Path 6791" d="M408.793,245.809c.487,2.565.854,3.2,1.158,3.194l-1.488-7.848A19.846,19.846,0,0,0,408.793,245.809Z" opacity="0.25"/>
        <path id="Path_6792" data-name="Path 6792" d="M411.584,243.385c-.119,2.514.1,3.185.41,3.241l.364-7.69A18.027,18.027,0,0,0,411.584,243.385Z" opacity="0.25"/>
        <path id="Path_6793" data-name="Path 6793" d="M376.893,293.934c14.1-29.7,39.446-51.556,39.446-51.556-28.92,31.162-37.871,52.428-37.871,52.428Z" fill="#009978"/>
        <path id="Path_6794" data-name="Path 6794" d="M376.893,293.934l1.3-2.505c.413-.8.914-1.765,1.49-2.875l2.09-3.635.583-1.02c.2-.346.4-.7.623-1.048q.662-1.052,1.365-2.169l1.44-2.29q.774-1.147,1.58-2.34L389,273.636c.567-.807,1.163-1.606,1.751-2.421s1.183-1.635,1.79-2.45l1.873-2.414c1.226-1.633,2.533-3.2,3.8-4.753.626-.785,1.279-1.534,1.919-2.279l1.892-2.206,1.876-2.09c.609-.687,1.207-1.357,1.807-1.991l1.733-1.862c.563-.6,1.121-1.162,1.648-1.711,1.053-1.1,2.048-2.078,2.917-2.959s1.65-1.621,2.295-2.229c1.283-1.224,2.043-1.893,2.043-1.893s-.772.652-2.081,1.848c-.656.594-1.441,1.332-2.34,2.179s-1.9,1.817-2.966,2.909c-.534.543-1.1,1.1-1.669,1.693l-1.756,1.843c-.609.628-1.215,1.291-1.833,1.971L401.8,256.9l-1.9,2.2c-.643.745-1.3,1.492-1.93,2.276-1.272,1.556-2.589,3.115-3.822,4.747l-1.868,2.427c-.606.819-1.193,1.648-1.785,2.463s-1.18,1.622-1.746,2.432l-1.63,2.428c-.532.8-1.07,1.576-1.569,2.355l-1.418,2.312-1.341,2.188c-.223.35-.418.709-.613,1.059l-.574,1.029c-.75,1.345-1.436,2.579-2.033,3.677L378.14,291.4C377.346,293.013,376.893,293.934,376.893,293.934Z" opacity="0.25"/>
      </g>
    </g>
    <g id="Group_2862" data-name="Group 2862">
      <path id="Path_6795" data-name="Path 6795" d="M488.764,235.259c0,23.505-14.3,42.56-31.938,42.56s-31.939-19.055-31.939-42.56,31.939-65.233,31.939-65.233S488.764,211.753,488.764,235.259Z" fill="#89cc32"/>
      <path id="Path_6796" data-name="Path 6796" d="M456.826,277.819c-17.64,0-31.939-19.055-31.939-42.56s31.939-65.233,31.939-65.233Z" fill="#a8ea3f"/>
      <g id="Group_2861" data-name="Group 2861">
        <rect id="Rectangle_987" data-name="Rectangle 987" width="2.894" height="30.029" transform="translate(455.379 266.922)" fill="#983844"/>
      </g>
      <path id="Path_6797" data-name="Path 6797" d="M457.088,269.2l-1.619-.2c-.5-.052-1.225-.235-1.985-.387a12.134,12.134,0,0,1-1.192-.34,10.874,10.874,0,0,1-1.291-.449c-.438-.193-.906-.359-1.364-.6s-.929-.489-1.395-.775c-.448-.316-.93-.609-1.377-.968a15.953,15.953,0,0,1-1.313-1.16,13.156,13.156,0,0,1-1.208-1.334,14.047,14.047,0,0,1-1.076-1.482c-.353-.5-.617-1.063-.928-1.6-.249-.564-.546-1.108-.752-1.686a24.242,24.242,0,0,1-1.083-3.473,30.324,30.324,0,0,1-.58-3.44,41.969,41.969,0,0,1,.486-12.033,38.307,38.307,0,0,0-.221,5.909,37.757,37.757,0,0,0,.64,5.987,29.519,29.519,0,0,0,.811,3.268,22.757,22.757,0,0,0,1.271,3.2c.231.525.546,1,.811,1.5.324.463.6.956.954,1.382a12.113,12.113,0,0,0,1.061,1.248,11.551,11.551,0,0,0,1.15,1.091,14.088,14.088,0,0,0,1.215.918c.409.281.847.5,1.249.743.42.215.849.386,1.249.573s.829.285,1.215.423a8.917,8.917,0,0,0,1.146.3,9.563,9.563,0,0,0,1.041.214c.667.073,1.177.188,1.709.2l1.63.079Z" fill="#983844"/>
      <path id="Path_6798" data-name="Path 6798" d="M457.088,266.314l1.63-.079c.532-.016,1.043-.131,1.709-.2a9.561,9.561,0,0,0,1.041-.214,8.875,8.875,0,0,0,1.146-.3c.387-.138.808-.248,1.215-.423s.829-.358,1.249-.573c.4-.244.84-.462,1.249-.743a14.088,14.088,0,0,0,1.215-.918,11.665,11.665,0,0,0,1.151-1.091,12.365,12.365,0,0,0,1.061-1.248c.354-.426.629-.919.953-1.382.265-.5.58-.979.812-1.5a22.752,22.752,0,0,0,1.27-3.2,29.3,29.3,0,0,0,.811-3.268,37.753,37.753,0,0,0,.64-5.987,38.3,38.3,0,0,0-.221-5.909,41.97,41.97,0,0,1,.486,12.033,30.324,30.324,0,0,1-.58,3.44,24.242,24.242,0,0,1-1.083,3.473c-.206.578-.5,1.122-.752,1.686-.31.532-.574,1.092-.928,1.6a14.042,14.042,0,0,1-1.076,1.482,13.149,13.149,0,0,1-1.208,1.334,15.953,15.953,0,0,1-1.313,1.16c-.447.359-.928.652-1.377.968-.466.286-.943.524-1.395.775s-.926.4-1.364.6a10.874,10.874,0,0,1-1.291.449,12.118,12.118,0,0,1-1.191.34c-.761.152-1.481.335-1.986.387l-1.619.2Z" fill="#983844"/>
      <path id="Path_6799" data-name="Path 6799" d="M443.74,261.931l-.672-.1-.771-.116c-.3-.052-.715-.2-1.118-.312-.2-.066-.42-.127-.633-.206l-.615-.31-.64-.331c-.2-.137-.4-.292-.609-.441s-.419-.294-.606-.474l-.55-.558a9.487,9.487,0,0,1-.981-1.227,13.751,13.751,0,0,1-.754-1.348,12.1,12.1,0,0,1-.551-1.367,12.69,12.69,0,0,1-.382-1.308c-.11-.417-.17-.821-.244-1.187a15.448,15.448,0,0,1-.213-2.473,15.371,15.371,0,0,0,.551,2.393c.123.346.236.726.4,1.112a12.022,12.022,0,0,0,.54,1.19,11.128,11.128,0,0,0,.69,1.2,12.976,12.976,0,0,0,.85,1.116,8.169,8.169,0,0,0,1,.94l.526.4c.175.127.377.21.556.316s.361.2.54.289l.556.188.518.18c.168.034.331.051.484.078.318.04.558.117.849.127l.78.006.68.005Z" fill="#983844"/>
      <path id="Path_6800" data-name="Path 6800" d="M471.092,258.789l.679-.005.781-.005c.291-.011.531-.087.849-.127.153-.027.315-.044.484-.078l.518-.18.556-.188c.178-.088.354-.192.539-.29a6.08,6.08,0,0,0,.557-.316l.526-.4a8.245,8.245,0,0,0,1-.94,12.97,12.97,0,0,0,.85-1.116,11.3,11.3,0,0,0,.69-1.2,12.022,12.022,0,0,0,.54-1.19c.162-.386.275-.766.4-1.112a15.371,15.371,0,0,0,.551-2.393,15.344,15.344,0,0,1-.212,2.472c-.074.366-.134.771-.244,1.188a12.458,12.458,0,0,1-.383,1.308,12.085,12.085,0,0,1-.55,1.367,13.96,13.96,0,0,1-.754,1.347,9.43,9.43,0,0,1-.981,1.228l-.55.558a7.562,7.562,0,0,1-.607.474c-.205.149-.4.3-.608.441l-.64.331-.615.31c-.213.079-.429.14-.633.206-.4.117-.813.26-1.118.312l-.771.116-.672.1Z" fill="#983844"/>
      <path id="Path_6801" data-name="Path 6801" d="M440.873,253.705l.484-.07a3.261,3.261,0,0,0,.38-.106,2.685,2.685,0,0,0,.518-.245,3.332,3.332,0,0,0,1.054-1.115,6.541,6.541,0,0,0,.73-1.825,15.457,15.457,0,0,0,.393-3.877c-.017-1.081-.107-1.8-.107-1.8s.2.7.384,1.778a15.988,15.988,0,0,1,.207,4.052,7.589,7.589,0,0,1-.518,2.217,4.708,4.708,0,0,1-1.227,1.763,4.2,4.2,0,0,1-.746.518,4.57,4.57,0,0,1-.683.3l-.486.149Z" fill="#983844"/>
      <path id="Path_6802" data-name="Path 6802" d="M473.507,254.667l-.485-.149a4.578,4.578,0,0,1-.684-.3,4.206,4.206,0,0,1-.745-.517,4.715,4.715,0,0,1-1.228-1.763,7.6,7.6,0,0,1-.518-2.218,15.942,15.942,0,0,1,.208-4.052c.184-1.08.384-1.778.384-1.778s-.091.722-.107,1.8a15.364,15.364,0,0,0,.393,3.877,6.54,6.54,0,0,0,.73,1.825,3.341,3.341,0,0,0,1.053,1.115,2.665,2.665,0,0,0,.519.245,3.069,3.069,0,0,0,.38.106l.484.07Z" fill="#983844"/>
      <path id="Path_6803" data-name="Path 6803" d="M439.974,249.044l-.4-.112-.455-.128a4,4,0,0,1-.607-.239,3.886,3.886,0,0,1-.7-.35,4.91,4.91,0,0,1-.7-.492,4.533,4.533,0,0,1-.646-.646l-.292-.365-.239-.4a5.437,5.437,0,0,1-.39-.839,7.328,7.328,0,0,1-.234-.855,7.639,7.639,0,0,1-.147-1.546,7.365,7.365,0,0,1,.151-1.492,7.281,7.281,0,0,0-.012,1.487,7.473,7.473,0,0,0,.281,1.482,7.046,7.046,0,0,0,.3.787,5.079,5.079,0,0,0,.432.741l.25.345.294.3a3.989,3.989,0,0,0,.625.518,4.464,4.464,0,0,0,.657.375,3.28,3.28,0,0,0,.62.242,3.03,3.03,0,0,0,.546.161l.464.086.4.075Z" fill="#983844"/>
      <path id="Path_6804" data-name="Path 6804" d="M474.368,246.738l.4-.075.464-.086a3.03,3.03,0,0,0,.546-.161,3.254,3.254,0,0,0,.62-.242,4.465,4.465,0,0,0,.657-.375,3.942,3.942,0,0,0,.625-.518l.294-.3.25-.345a5.079,5.079,0,0,0,.432-.741,6.859,6.859,0,0,0,.3-.787,7.7,7.7,0,0,0,.27-2.969,7.334,7.334,0,0,1,.15,1.493,7.566,7.566,0,0,1-.147,1.545,7.14,7.14,0,0,1-.234.855,5.39,5.39,0,0,1-.389.839l-.24.4-.292.365a4.433,4.433,0,0,1-.646.646,4.9,4.9,0,0,1-.7.492,3.821,3.821,0,0,1-.7.35,4.01,4.01,0,0,1-.608.239l-.454.128-.4.112Z" fill="#983844"/>
    </g>
  </g>
</svg>
