<svg id="Group_3995" data-name="Group 3995" xmlns="http://www.w3.org/2000/svg" width="452.21" height="378.232" viewBox="0 0 452.21 378.232">
  <g id="Group_3933" data-name="Group 3933" transform="translate(325.862)">
    <g id="Group_3930" data-name="Group 3930" transform="translate(6.71 36.377)">
      <g id="Group_3928" data-name="Group 3928" transform="translate(12.485)">
        <path id="Path_8741" data-name="Path 8741" d="M1154.272,495.866a1.233,1.233,0,0,1-1.233-1.233V293.305a1.233,1.233,0,1,1,2.466,0V494.633A1.233,1.233,0,0,1,1154.272,495.866Z" transform="translate(-1153.039 -292.072)" fill="#301e17"/>
      </g>
      <g id="Group_3929" data-name="Group 3929" transform="translate(12.485 197.031)">
        <path id="Path_8742" data-name="Path 8742" d="M1154.272,690.633a1.234,1.234,0,0,1-1.233-1.233V612.875a1.233,1.233,0,1,1,2.466,0V689.4A1.233,1.233,0,0,1,1154.272,690.633Z" transform="translate(-1153.039 -611.642)" fill="#301e17"/>
      </g>
      <path id="Path_8743" data-name="Path 8743" d="M1160.225,742.11h-27.436a4.35,4.35,0,0,1,4.35-4.35h18.737a4.35,4.35,0,0,1,4.35,4.35Z" transform="translate(-1132.789 -462.971)" fill="#301e17"/>
    </g>
    <g id="Group_3931" data-name="Group 3931" transform="translate(5.1 9.248)">
      <path id="Path_8744" data-name="Path 8744" d="M1159.236,277.666h-26.684a2.446,2.446,0,0,1-2.375-2.507V249.305a1.233,1.233,0,0,1,2.466,0v25.854a.19.19,0,0,0,0,.041h26.493a.182.182,0,0,0,0-.041V250.6a1.233,1.233,0,0,1,2.466,0v24.555A2.446,2.446,0,0,1,1159.236,277.666Z" transform="translate(-1130.177 -248.072)" fill="#301e17"/>
    </g>
    <g id="Group_3932" data-name="Group 3932">
      <path id="Path_8745" data-name="Path 8745" d="M1156.5,250.937c1.99-3.4,4.5-8.769-.291-13.865-4.649-4.94-7.993-3.911-9.392-3.911s-20.217,6.219-22.164,7.856c-2.914,2.45-5.035,13.062,1.882,20.434,7.593,8.093,16.386,7.094,18.284,5.6S1155.283,253.012,1156.5,250.937Z" transform="translate(-1121.905 -233.072)" fill="#301e17"/>
      <path id="Path_8746" data-name="Path 8746" d="M1125.581,248.981c1.188-2.1,10.578-3.28,16.467,2.834,8.18,8.493,4.6,17.426,2.8,19s-8.493,1.183-14.862-4.063C1124.462,262.2,1123.539,252.589,1125.581,248.981Z" transform="translate(-1122.933 -238.522)" fill="#fff"/>
      <path id="Path_8747" data-name="Path 8747" d="M1127.581,252.421c.016-.384.616-.387.6,0a18.092,18.092,0,0,0,13.41,18.3.3.3,0,0,1-.16.578A18.7,18.7,0,0,1,1127.581,252.421Z" transform="translate(-1124.075 -240.381)" fill="#fcf0de"/>
      <path id="Path_8748" data-name="Path 8748" d="M1149.238,274.671l4.475-9.9c.159-.351.675-.047.517.3l-4.474,9.9C1149.6,275.325,1149.081,275.02,1149.238,274.671Z" transform="translate(-1132.375 -245.167)" fill="#fcf0de"/>
      <path id="Path_8749" data-name="Path 8749" d="M1135.779,266.428q4.339-3,8.542-6.191c.307-.233.606.287.3.518q-4.2,3.191-8.542,6.191C1135.763,267.165,1135.463,266.646,1135.779,266.428Z" transform="translate(-1127.174 -243.466)" fill="#fcf0de"/>
      <path id="Path_8750" data-name="Path 8750" d="M1131.487,254.2l7.814-2.146a.3.3,0,0,1,.16.578l-7.814,2.146A.3.3,0,0,1,1131.487,254.2Z" transform="translate(-1125.498 -240.347)" fill="#fcf0de"/>
      <path id="Path_8751" data-name="Path 8751" d="M1175.359,262.591l.747-1.2c.2-.327.723-.027.518.3l-.748,1.2C1175.672,263.221,1175.154,262.92,1175.359,262.591Z" transform="translate(-1142.384 -243.877)" fill="#4d362d"/>
      <path id="Path_8752" data-name="Path 8752" d="M1140.255,241.608c9.253,1.564,17.334,9.462,15.565,19.386-.067.379-.646.218-.578-.16,1.715-9.619-6.25-17.144-15.147-18.648C1139.716,242.121,1139.877,241.544,1140.255,241.608Z" transform="translate(-1128.797 -236.343)" fill="#4d362d"/>
      <path id="Path_8753" data-name="Path 8753" d="M1161.281,235.982a4.067,4.067,0,0,0-1.385.543.6.6,0,0,1-.55-1.065,5.039,5.039,0,0,1,1.677-.65A.6.6,0,0,1,1161.281,235.982Z" transform="translate(-1136.137 -233.734)" fill="#4d362d"/>
    </g>
  </g>
  <g id="Group_3949" data-name="Group 3949" transform="translate(0 11.245)">
    <g id="Group_3943" data-name="Group 3943" transform="translate(0 22.755)">
      <g id="Group_3937" data-name="Group 3937" transform="translate(290.512 7.075)">
        <g id="Group_3934" data-name="Group 3934">
          <path id="Path_8754" data-name="Path 8754" d="M1066.111,599.531a1.543,1.543,0,0,1-1.439-2.093l34.744-90.688V301.234a1.541,1.541,0,0,1,3.083,0V507.319l-.1.266-34.846,90.955A1.542,1.542,0,0,1,1066.111,599.531Z" transform="translate(-1064.57 -299.693)" fill="#301e17"/>
        </g>
        <g id="Group_3935" data-name="Group 3935" transform="translate(34.845 205.8)">
          <path id="Path_8755" data-name="Path 8755" d="M1147.7,732.922a1.542,1.542,0,0,1-1.49-1.154l-25.072-96.353a1.541,1.541,0,0,1,2.984-.776l25.071,96.353a1.541,1.541,0,0,1-1.1,1.88A1.57,1.57,0,0,1,1147.7,732.922Z" transform="translate(-1121.087 -633.486)" fill="#301e17"/>
        </g>
        <g id="Group_3936" data-name="Group 3936" transform="translate(34.846 201.504)">
          <path id="Path_8756" data-name="Path 8756" d="M1122.629,706.124a1.541,1.541,0,0,1-1.541-1.542V628.058a1.541,1.541,0,1,1,3.083,0v76.524A1.541,1.541,0,0,1,1122.629,706.124Z" transform="translate(-1121.088 -626.517)" fill="#301e17"/>
        </g>
      </g>
      <g id="Group_3938" data-name="Group 3938" transform="translate(34.907)">
        <path id="Path_8757" data-name="Path 8757" d="M652.4,288.591c13.842-.15,28.449.134,40.591.067q41.064-.226,82.13-.273c28.882-.038,91.06-.032,119.942.16q10.437.069,20.872.188c7.075.086,16.49-2.116,22.841,1.971,5.135,3.3,8.055,9.907,9.375,15.6,3.027,13.051.255,14.566.036,27.745q-.5,30.277-.91,60.556c-.51,41.878-.978,83.821.486,125.686.518,14.821.609,30.281,3.749,44.844.555,2.572-272.53,30.129-280.562-6.867-6.833-31.469-14.137-199.43-15.362-253.761C655.371,294.967,645.6,288.665,652.4,288.591Z" transform="translate(-649.998 -288.218)" fill="#fae6ca"/>
      </g>
      <path id="Path_8758" data-name="Path 8758" d="M961.507,692.68s1.834,31.05,8.156,37.273c19.567,19.261,87.209,41.874,87.428,43.074s-334.307,15.695-342.516,8.9-26.855-37.159-28.485-46.17c-2.81-15.532-4.276-29.974-4.276-29.974Z" transform="translate(-627.291 -443.308)" fill="#fae6ca"/>
      <path id="Path_8759" data-name="Path 8759" d="M651.843,289.261s-7.567-1.948-10.33,3.523c-2.622,5.19-.5,10.341,3.6,12.139s9.021.257,10.391-3.347C659.3,291.585,651.843,289.261,651.843,289.261Z" transform="translate(-611.395 -288.489)" fill="#f7f0e6"/>
      <circle id="Ellipse_314" data-name="Ellipse 314" cx="1.499" cy="1.499" r="1.499" transform="translate(34.888 7.118)" fill="#301e17"/>
      <g id="Group_3942" data-name="Group 3942" transform="translate(0 7.075)">
        <g id="Group_3939" data-name="Group 3939">
          <path id="Path_8760" data-name="Path 8760" d="M594.922,599.531a1.542,1.542,0,0,1-1.439-2.093l34.744-90.688V301.234a1.541,1.541,0,0,1,3.083,0V507.319l-.1.266-34.845,90.955A1.543,1.543,0,0,1,594.922,599.531Z" transform="translate(-593.381 -299.693)" fill="#301e17"/>
        </g>
        <g id="Group_3940" data-name="Group 3940" transform="translate(34.845 205.8)">
          <path id="Path_8761" data-name="Path 8761" d="M676.51,732.922a1.541,1.541,0,0,1-1.49-1.154l-25.072-96.353a1.541,1.541,0,1,1,2.983-.776L678,730.992a1.542,1.542,0,0,1-1.1,1.88A1.562,1.562,0,0,1,676.51,732.922Z" transform="translate(-649.898 -633.486)" fill="#301e17"/>
        </g>
        <g id="Group_3941" data-name="Group 3941" transform="translate(34.846 201.504)">
          <path id="Path_8762" data-name="Path 8762" d="M651.44,706.124a1.541,1.541,0,0,1-1.541-1.542V628.058a1.541,1.541,0,1,1,3.083,0v76.524A1.542,1.542,0,0,1,651.44,706.124Z" transform="translate(-649.899 -626.517)" fill="#301e17"/>
        </g>
      </g>
      <path id="Path_8763" data-name="Path 8763" d="M648.879,297.52a2.514,2.514,0,0,1,3.555.291c.242.3-.18.723-.424.424a1.99,1.99,0,0,0-3.21.243,3.684,3.684,0,0,0-.192,3.416c.131.364-.448.52-.578.16A3.983,3.983,0,0,1,648.879,297.52Z" transform="translate(-614.208 -291.554)" fill="#fff"/>
      <path id="Path_8764" data-name="Path 8764" d="M650.941,291.359a4.691,4.691,0,0,1,4.553,3.168c1.219,3.033.2,6.424,1.006,9.544a.3.3,0,0,1-.578.159c-.569-2.2-.277-4.413-.428-6.656-.174-2.607-1.388-5.83-4.553-5.616C650.555,291.985,650.557,291.385,650.941,291.359Z" transform="translate(-615.342 -289.419)" fill="#fff"/>
      <path id="Path_8765" data-name="Path 8765" d="M646.174,293.271c.3-.234.728.187.424.424a7.122,7.122,0,0,0,.065,11.451c.307.228.008.748-.3.518A7.715,7.715,0,0,1,646.174,293.271Z" transform="translate(-612.464 -290.129)" fill="#fff"/>
      <path id="Path_8766" data-name="Path 8766" d="M645.861,298.458c.172-.345.689-.042.517.3a5.206,5.206,0,0,0,1.212,6.384c.287.259-.138.682-.424.424A5.816,5.816,0,0,1,645.861,298.458Z" transform="translate(-613.245 -292.086)" fill="#fff"/>
      <path id="Path_8767" data-name="Path 8767" d="M655.831,310.662a.677.677,0,0,0,.669-.04c.33-.2.631.317.3.517a1.242,1.242,0,0,1-1.131.1C655.32,311.1,655.474,310.515,655.831,310.662Z" transform="translate(-617.19 -296.791)" fill="#fff"/>
      <path id="Path_8768" data-name="Path 8768" d="M684.936,683.333c.039-.38.64-.384.6,0a97.375,97.375,0,0,0,12.927,59.331.3.3,0,0,1-.518.3A97.923,97.923,0,0,1,684.936,683.333Z" transform="translate(-628.289 -439.614)" fill="#fff"/>
    </g>
    <g id="Group_3948" data-name="Group 3948" transform="translate(33.371 0)">
      <g id="Group_3946" data-name="Group 3946" transform="translate(4.248)">
        <ellipse id="Ellipse_315" data-name="Ellipse 315" cx="41.352" cy="38.161" rx="41.352" ry="38.161" transform="translate(0 49.249) rotate(-36.547)" fill="#301e17"/>
        <ellipse id="Ellipse_316" data-name="Ellipse 316" cx="38.011" cy="35.078" rx="38.011" ry="35.078" transform="translate(4.52 49.736) rotate(-36.547)" fill="#fff"/>
        <g id="Group_3944" data-name="Group 3944" transform="translate(10.188 41.38)">
          <path id="Path_8769" data-name="Path 8769" d="M671.846,349.871a.925.925,0,0,1-.362-1.776L741.07,318.5a.925.925,0,0,1,.724,1.7L672.208,349.8A.918.918,0,0,1,671.846,349.871Z" transform="translate(-670.921 -318.427)" fill="#301e17"/>
        </g>
        <rect id="Rectangle_1092" data-name="Rectangle 1092" width="8.675" height="5.538" rx="2.769" transform="matrix(-0.135, -0.991, 0.991, -0.135, 11.972, 75.348)" fill="#301e17"/>
        <g id="Group_3945" data-name="Group 3945" transform="translate(75.882 39.94)">
          <rect id="Rectangle_1093" data-name="Rectangle 1093" width="3.083" height="5.972" transform="translate(0 1.195) rotate(-22.81)" fill="#301e17"/>
        </g>
      </g>
      <g id="Group_3947" data-name="Group 3947" transform="translate(2.079 69.815)">
        <rect id="Rectangle_1094" data-name="Rectangle 1094" width="26.898" height="3.083" transform="matrix(0.558, -0.83, 0.83, 0.558, 0, 22.315)" fill="#301e17"/>
      </g>
      <rect id="Rectangle_1095" data-name="Rectangle 1095" width="6.166" height="12.031" rx="3.083" transform="translate(0 89.649)" fill="#301e17"/>
    </g>
  </g>
  <g id="Group_3952" data-name="Group 3952" transform="translate(141.519 197.469)">
    <path id="Path_8770" data-name="Path 8770" d="M898.818,638H854.837a4.316,4.316,0,0,1-4.316-4.316h52.613A4.316,4.316,0,0,1,898.818,638Z" transform="translate(-833.5 -584.155)" fill="#301e17"/>
    <rect id="Rectangle_1096" data-name="Rectangle 1096" width="54.873" height="11.13" rx="5.565" transform="translate(16.815 39.818)" fill="#a8430b"/>
    <path id="Path_8771" data-name="Path 8771" d="M837.418,553.4s-14.027-.771-14.489,3.7,10.494,36.386,13.1,41.633c3.083,6.2,7.758,5.565,7.758,5.565l40.179-4.3Z" transform="translate(-822.915 -553.352)" fill="#a8430b"/>
    <g id="Group_3950" data-name="Group 3950" transform="translate(41.169 51.687)">
      <rect id="Rectangle_1097" data-name="Rectangle 1097" width="4.316" height="100.652" fill="#301e17"/>
    </g>
    <path id="Path_8772" data-name="Path 8772" d="M903.732,805.524H849.938a7.09,7.09,0,0,1,7.09-7.09h39.613a7.09,7.09,0,0,1,7.09,7.09Z" transform="translate(-833.277 -647.329)" fill="#301e17"/>
    <g id="Group_3951" data-name="Group 3951" transform="translate(17.431 113.805)">
      <path id="Path_8773" data-name="Path 8773" d="M900.821,742.251H853.344a2.158,2.158,0,1,1,0-4.316h47.477a2.158,2.158,0,0,1,0,4.316Z" transform="translate(-851.186 -737.935)" fill="#301e17"/>
    </g>
  </g>
  <g id="Group_3978" data-name="Group 3978" transform="translate(152.461 99.856)">
    <g id="Group_3961" data-name="Group 3961" transform="translate(16.143)">
      <path id="Path_8774" data-name="Path 8774" d="M908.08,430.707c.671-.2.842-1.7.454-2.657-.219-.542-.706-.912-.952-1.434a3.647,3.647,0,0,1-.089-2.6c.32-1.256,1.052-2.362,1.341-3.635a9.553,9.553,0,0,0-.526-5.739,9.373,9.373,0,0,0-1.27-2.185,8.235,8.235,0,0,1-2.059-3.868c-.209-1-.045-2.02-.285-3.014a10.967,10.967,0,0,0-1.405-3.2,15.386,15.386,0,0,0-12.519-7.287,32,32,0,0,0-8.383.736,23.2,23.2,0,0,0-7.58,2.448,11.329,11.329,0,0,0-5.737,8.826,9.65,9.65,0,0,0,0,2.669,24.634,24.634,0,0,1,.258,4.923c-.158,2.471-2.223,4.413-2.225,6.921a12.406,12.406,0,0,0,.917,3.4c.509,1.79-.408,2.435-1.029,3.882a1.3,1.3,0,0,0,.652,1.845C868.983,431.078,905.9,431.039,908.08,430.707Z" transform="translate(-866.845 -395.031)" fill="#9e5525"/>
      <g id="Group_3954" data-name="Group 3954" transform="translate(31.354 24.687)">
        <g id="Group_3953" data-name="Group 3953">
          <path id="Path_8775" data-name="Path 8775" d="M919.171,440.348a1.4,1.4,0,0,1-1.05-.364,2.7,2.7,0,0,1-.42-1.962l0-.312c0-1.5.632-2.638,1.469-2.638s1.468,1.135,1.468,2.638l0,.312a2.7,2.7,0,0,1-.421,1.962A1.4,1.4,0,0,1,919.171,440.348Zm0-4.66c-.4,0-.852.865-.852,2.022l0,.317c-.006.681-.01,1.268.242,1.522a1.119,1.119,0,0,0,1.224,0c.251-.255.247-.842.242-1.522l0-.318C920.023,436.554,919.573,435.689,919.171,435.689Z" transform="translate(-917.699 -435.072)" fill="#fff"/>
        </g>
        <path id="Path_8776" data-name="Path 8776" d="M920.471,444.148a1.018,1.018,0,1,0-1.017,1.017A1.018,1.018,0,0,0,920.471,444.148Z" transform="translate(-917.982 -438.162)" fill="#fff"/>
      </g>
      <path id="Path_8777" data-name="Path 8777" d="M882.01,461.8c2.456,1.935,3.3,2.244,6.424,1.841a33.6,33.6,0,0,0,6.513-2.13l2.181-14.4s-4.468-2.972-6.339-3.887c-2.294-1.122-8.378-6.111-8.378-6.111l-2.324,21.594A4.884,4.884,0,0,0,882.01,461.8Z" transform="translate(-871.923 -411.168)" fill="#ff9a73"/>
      <path id="Path_8778" data-name="Path 8778" d="M905.174,415.77c-.022-.474-.071-.956-.13-1.429-.892-7.58-4.9-13.074-16.308-11.229-12.178,1.979-10.622,16.206-6.992,25.105,2.659,6.5,11.052,9.21,14.222,9.21,1.685,0,2.962-.563,4.606-2.765,1.448-1.939,3.837-4.27,4.123-8.645C904.913,422.705,905.427,419.158,905.174,415.77Z" transform="translate(-871.556 -397.992)" fill="#ff9a73"/>
      <path id="Path_8779" data-name="Path 8779" d="M898.423,429.826a.586.586,0,0,0-.785.01,1.22,1.22,0,0,0-.363.824,1.575,1.575,0,0,0,.08.834.665.665,0,0,0,1.205.152,1.6,1.6,0,0,0,.176-.722,1.713,1.713,0,0,0-.155-.894A.717.717,0,0,0,898.423,429.826Z" transform="translate(-878.505 -408.317)" fill="#301e17"/>
      <path id="Path_8780" data-name="Path 8780" d="M914.93,429.778a.586.586,0,0,0-.776.116,1.224,1.224,0,0,0-.247.866,1.583,1.583,0,0,0,.192.816.666.666,0,0,0,1.215-.013,1.59,1.59,0,0,0,.077-.739,1.713,1.713,0,0,0-.275-.865A.714.714,0,0,0,914.93,429.778Z" transform="translate(-884.891 -408.317)" fill="#301e17"/>
      <g id="Group_3955" data-name="Group 3955" transform="translate(25.48 22.585)">
        <path id="Path_8781" data-name="Path 8781" d="M908.5,438.326a.308.308,0,0,1-.044-.613,2.448,2.448,0,0,0,1.279-.5.085.085,0,0,0,.019-.078,11.049,11.049,0,0,0-.615-1.645,7.736,7.736,0,0,1-.943-3.569.308.308,0,1,1,.609.092,7.472,7.472,0,0,0,.9,3.234,11.31,11.31,0,0,1,.651,1.755.7.7,0,0,1-.114.561c-.372.538-1.48.724-1.7.755A.274.274,0,0,1,908.5,438.326Z" transform="translate(-908.172 -431.663)" fill="#f08054"/>
      </g>
      <g id="Group_3956" data-name="Group 3956" transform="translate(24.061 28.256)">
        <path id="Path_8782" data-name="Path 8782" d="M906.71,441.477h-.531a.308.308,0,1,1,0-.617h.531a.308.308,0,0,1,0,.617Z" transform="translate(-905.871 -440.86)" fill="#f08054"/>
      </g>
      <g id="Group_3957" data-name="Group 3957" transform="translate(12.266 31.212)">
        <path id="Path_8783" data-name="Path 8783" d="M896.72,454.187a.3.3,0,0,1-.083-.012,16.259,16.259,0,0,1-6.029-3.787c-3.176-2.956-3.813-4.238-3.839-4.291a.308.308,0,1,1,.555-.268c0,.01.643,1.259,3.7,4.107a15.917,15.917,0,0,0,5.775,3.644.309.309,0,0,1-.083.605Z" transform="translate(-886.739 -445.655)" fill="#f08054"/>
      </g>
      <path id="Path_8784" data-name="Path 8784" d="M898.813,424.589a7.816,7.816,0,0,0-2.5-.25,6.432,6.432,0,0,0-2.432.765c-.16.08-.318.165-.472.257a.448.448,0,0,0-.239.256c-.09.422,1.81.362,2.107.356.825-.017,1.649-.094,2.474-.094.514,0,1.922.182,1.87-.667C899.6,424.893,899.231,424.706,898.813,424.589Z" transform="translate(-876.937 -406.264)" fill="#9e5525"/>
      <path id="Path_8785" data-name="Path 8785" d="M912.064,425.118a7.809,7.809,0,0,1,2.508-.2,6.418,6.418,0,0,1,2.416.81q.239.125.467.266a.443.443,0,0,1,.234.26c.083.423-1.816.327-2.114.316-.824-.032-1.646-.124-2.472-.141-.515-.01-1.925.146-1.857-.7C911.273,425.407,911.644,425.227,912.064,425.118Z" transform="translate(-883.87 -406.481)" fill="#9e5525"/>
      <g id="Group_3958" data-name="Group 3958" transform="translate(20.774 30.972)">
        <path id="Path_8786" data-name="Path 8786" d="M904.239,447c-.171,0-.353,0-.544-.016-2.346-.13-3.075-1.2-3.105-1.245a.308.308,0,0,1,.513-.342c.014.02.635.86,2.625.971,2.011.106,2.681-.466,2.688-.471a.311.311,0,0,1,.434.017.307.307,0,0,1-.009.43A3.782,3.782,0,0,1,904.239,447Z" transform="translate(-900.539 -445.265)" fill="#f08054"/>
      </g>
      <path id="Path_8787" data-name="Path 8787" d="M904.5,412.8c-.866-4.165-2.171-8.558-6.122-10.767-4.156-2.324-9.11-1.527-13.456-.249-2.013.592-4.248,1.228-5.546,3.012-1.124,1.545-1.355,3.562-1.574,5.408a45.377,45.377,0,0,0,1.011,15.977.271.271,0,0,0,.124.174c-.45,1.078-.831,2.228-2.147,2.468-.39.072-.224.666.164.6,2.261-.414,2.142-2.934,3.429-4.353.31-.342-1.731-4.571-1.1-6.7.659-2.212,2.7-2.372,3.783-.971a1.436,1.436,0,0,0,.086-.283,2.827,2.827,0,0,0-.2-1.121,2.319,2.319,0,0,1,.584-2.529c.761-.957,1.571-1.881,2.371-2.809,1.2-.7,2.4-1.408,3.553-2.181a3.988,3.988,0,0,0,1.688-1.959c1.5,1.376,3.608,1.352,5.637,1.512a7.505,7.505,0,0,1,2.586.543,3.548,3.548,0,0,1,1.421,1.2,20.194,20.194,0,0,0,2.122,2.107,4.724,4.724,0,0,1,.891,1.155c.146.29.414,1.36.608,1.621.1.134.392-.159.255-.631.11.377.493.708.607,1.13a2.977,2.977,0,0,1,.067,1.255c-.062.388.532.555.594.164A4.321,4.321,0,0,0,904.5,412.8Z" transform="translate(-870.574 -397.146)" fill="#9e5525"/>
      <g id="Group_3960" data-name="Group 3960" transform="translate(9.529 25.608)">
        <g id="Group_3959" data-name="Group 3959">
          <path id="Path_8788" data-name="Path 8788" d="M885.242,439.517l0-.313c0-1.75-.67-2.638-1.162-2.638-.163,0-.279.543,0,.617.125.045.545.53.545,2.022l0,.318c.005.681.01,1.268-.242,1.522a1.116,1.116,0,0,1-1.223,0c-.252-.253-.247-.841-.242-1.522l0-.318c0-.122-.046-.189-.036-.3a6.546,6.546,0,0,1-.455-1,4.989,4.989,0,0,0-.125,1.3l0,.312a2.7,2.7,0,0,0,.42,1.961,1.691,1.691,0,0,0,2.1,0A2.7,2.7,0,0,0,885.242,439.517Z" transform="translate(-882.3 -436.566)" fill="#fff"/>
        </g>
        <path id="Path_8789" data-name="Path 8789" d="M885.072,445.641a1.017,1.017,0,1,0-1.017,1.018A1.017,1.017,0,0,0,885.072,445.641Z" transform="translate(-882.583 -439.656)" fill="#fff"/>
      </g>
      <path id="Path_8790" data-name="Path 8790" d="M894.99,404.326a12.066,12.066,0,0,0-8.109-3.9c-.4-.029-.394.588,0,.617a11.414,11.414,0,0,1,7.673,3.715C894.823,405.054,895.258,404.617,894.99,404.326Z" transform="translate(-874.414 -397.101)" fill="#82441a"/>
      <path id="Path_8791" data-name="Path 8791" d="M889.133,408.353c-1.241,1.914-3.464,2.391-5.324,3.472a5.653,5.653,0,0,0-2.839,3.755c-.439,1.4-1.483,1.647-2.47,2.438a5.893,5.893,0,0,0-1.517,1.845,6.231,6.231,0,0,0-.5,4.55.308.308,0,0,0,.594-.164,5.559,5.559,0,0,1,2.141-6c1.441-1.008,1.99-1.255,2.445-3,.975-3.728,6.045-3.575,8-6.595C889.882,408.331,889.349,408.021,889.133,408.353Z" transform="translate(-870.457 -400.085)" fill="#82441a"/>
      <path id="Path_8792" data-name="Path 8792" d="M889.343,407.088a16.948,16.948,0,0,0-5.7,4.72c-.241.31.192.749.436.436a16.575,16.575,0,0,1,5.577-4.624C890.007,407.439,889.7,406.907,889.343,407.088Z" transform="translate(-873.258 -399.64)" fill="#82441a"/>
      <path id="Path_8793" data-name="Path 8793" d="M918.194,425.891a7.937,7.937,0,0,1-1.045-2.8,5.727,5.727,0,0,1,.659-2.98,4.389,4.389,0,0,0,.255-3.477,11.515,11.515,0,0,0-1.833-2.65c-.942-1.21-1.536-2.627-2.752-3.608-2.509-2.023-5.877-2.038-8.937-2a.308.308,0,0,0,0,.617c3.005-.04,6.56-.089,8.893,2.155a21.443,21.443,0,0,1,2.088,2.918,10.637,10.637,0,0,1,2.091,3.124c.414,1.437-.438,2.6-.858,3.892a4.853,4.853,0,0,0-.14,2.641c.6,2.664,3.99,5.635,1.8,8.36-.247.306.187.745.436.436C920.57,430.378,919.312,427.987,918.194,425.891Z" transform="translate(-881.185 -400.145)" fill="#82441a"/>
      <path id="Path_8794" data-name="Path 8794" d="M927.283,432.128c-.228-.321-.763-.014-.532.311,1.078,1.52,2.2,3.168,1.757,5.127-.088.387.507.551.594.164C929.585,435.595,928.473,433.805,927.283,432.128Z" transform="translate(-889.794 -409.204)" fill="#82441a"/>
      <path id="Path_8795" data-name="Path 8795" d="M908.865,400.222c-2.644-.367-6.9-1.126-8.934,1.139-.265.295.17.732.436.436,1.809-2.015,5.957-1.31,8.334-.98C909.088,400.87,909.256,400.276,908.865,400.222Z" transform="translate(-879.5 -396.859)" fill="#82441a"/>
    </g>
    <path id="Path_8796" data-name="Path 8796" d="M913.212,518.572a33.308,33.308,0,0,0,3.252,7.326,8.2,8.2,0,0,0,2.678,2.709c3.094,1.895,7.174,2.166,10.675,1.555,3.013-.526,5.048,4.75,6.918,2.221,2.737-3.7-2.5-18.115-2.98-20.03-1.136-4.506-3.062-11-4.726-16.141-6.04-18.644-12.582-21.794-12.582-21.794l-11.258,9.635c1.723,7.232,3.011,14.561,4.771,21.785C910.909,509.743,911.829,514.324,913.212,518.572Z" transform="translate(-865.405 -425.473)" fill="#301e17"/>
    <g id="Group_3966" data-name="Group 3966" transform="translate(50.776 185.684)">
      <path id="Path_8797" data-name="Path 8797" d="M944.352,697.91l-4.5,16.66-4.552-.744-3.729-1.26,2.081-16.369Z" transform="translate(-926.296 -696.196)" fill="#ffa87d"/>
      <path id="Path_8798" data-name="Path 8798" d="M945.86,737.811c-.021-3.008-3.131-5.179-4.138-7.262a35.939,35.939,0,0,1-1.885-3.638c-.258-.747-.5-1.5-.75-2.249-.194-.579-.212-1.381-.75-1.776a5.421,5.421,0,0,0-2.574-.506,8.491,8.491,0,0,1-3-.26c-1.426-.556-3.707-3.347-4.212-3.311s-5.566,8.1-5.533,8.465c.051.578,20.228,14.612,20.759,14.476A5.127,5.127,0,0,0,945.86,737.811Z" transform="translate(-923.017 -704.867)" fill="#fff"/>
      <g id="Group_3962" data-name="Group 3962" transform="translate(0.928 21.213)">
        <path id="Path_8799" data-name="Path 8799" d="M943.789,744.731a.308.308,0,0,1-.179-.057L924.651,731.16a.308.308,0,1,1,.358-.5l18.959,13.512a.309.309,0,0,1-.179.56Z" transform="translate(-924.521 -730.602)" fill="#fcf0de"/>
      </g>
      <g id="Group_3963" data-name="Group 3963" transform="translate(11.356 18.336)">
        <path id="Path_8800" data-name="Path 8800" d="M947.425,735.081a4.1,4.1,0,0,1-2.582-.94c-1.2-.946-2.155-3.452-2.747-5.389-.412-1.35-.65-2.432-.653-2.443a.308.308,0,1,1,.6-.132c0,.01.236,1.07.641,2.395.8,2.618,1.7,4.424,2.539,5.085a3.367,3.367,0,0,0,3.523.532.308.308,0,0,1,.281.549A3.758,3.758,0,0,1,947.425,735.081Z" transform="translate(-941.435 -725.935)" fill="#fcf0de"/>
      </g>
      <g id="Group_3964" data-name="Group 3964" transform="translate(12.003 20.146)">
        <path id="Path_8801" data-name="Path 8801" d="M942.792,730.1a.308.308,0,0,1-.051-.612l3.632-.608a.308.308,0,0,1,.1.608l-3.632.609A.37.37,0,0,1,942.792,730.1Z" transform="translate(-942.484 -728.871)" fill="#fcf0de"/>
      </g>
      <g id="Group_3965" data-name="Group 3965" transform="translate(13.387 23.383)">
        <path id="Path_8802" data-name="Path 8802" d="M945.038,735.65a.308.308,0,0,1-.087-.6l3.1-.911a.308.308,0,1,1,.175.591l-3.1.911A.307.307,0,0,1,945.038,735.65Z" transform="translate(-944.729 -734.122)" fill="#fcf0de"/>
      </g>
    </g>
    <g id="Group_3971" data-name="Group 3971" transform="translate(103.204 164.03)">
      <path id="Path_8803" data-name="Path 8803" d="M1017.812,661.076l5.831,16.243-4.16,1.991-3.78,1.1-7.65-14.62Z" transform="translate(-1008.052 -661.076)" fill="#ffa87d"/>
      <path id="Path_8804" data-name="Path 8804" d="M1043.525,693.257c-1.737-2.456-5.531-2.459-7.546-3.593a35.85,35.85,0,0,1-3.627-1.908c-.639-.465-1.267-.945-1.9-1.416-.49-.364-.964-1.012-1.63-1.028a5.415,5.415,0,0,0-2.4,1.056,8.494,8.494,0,0,1-2.611,1.5c-1.488.359-4.955-.626-5.349-.308s.062,9.825.3,10.108c.372.445,24.949.425,25.307.01A5.123,5.123,0,0,0,1043.525,693.257Z" transform="translate(-1011.984 -670.369)" fill="#fff"/>
      <g id="Group_3967" data-name="Group 3967" transform="translate(6.973 25.558)">
        <path id="Path_8805" data-name="Path 8805" d="M1042.951,703.4h0l-23.281-.249a.308.308,0,0,1,0-.617h0l23.281.249a.308.308,0,0,1,0,.617Z" transform="translate(-1019.363 -702.53)" fill="#fcf0de"/>
      </g>
      <g id="Group_3968" data-name="Group 3968" transform="translate(13.886 17.236)">
        <path id="Path_8806" data-name="Path 8806" d="M1038.239,694.057q-.146,0-.3-.009c-1.524-.091-3.742-1.6-5.334-2.851-1.11-.872-1.924-1.623-1.933-1.631a.308.308,0,1,1,.419-.452c.008.007.805.744,1.894,1.6,2.153,1.691,3.926,2.656,4.99,2.72a3.416,3.416,0,0,0,3.194-1.576.308.308,0,1,1,.544.289A3.95,3.95,0,0,1,1038.239,694.057Z" transform="translate(-1030.574 -689.032)" fill="#fcf0de"/>
      </g>
      <g id="Group_3969" data-name="Group 3969" transform="translate(15.799 16.276)">
        <path id="Path_8807" data-name="Path 8807" d="M1033.986,690.666a.308.308,0,0,1-.216-.528l2.633-2.575a.308.308,0,0,1,.431.441l-2.633,2.575A.306.306,0,0,1,1033.986,690.666Z" transform="translate(-1033.678 -687.475)" fill="#fcf0de"/>
      </g>
      <g id="Group_3970" data-name="Group 3970" transform="translate(18.959 18.447)">
        <path id="Path_8808" data-name="Path 8808" d="M1039.11,694.13a.308.308,0,0,1-.241-.5l2.019-2.517a.308.308,0,1,1,.48.386l-2.019,2.517A.306.306,0,0,1,1039.11,694.13Z" transform="translate(-1038.802 -690.996)" fill="#fcf0de"/>
      </g>
    </g>
    <path id="Path_8809" data-name="Path 8809" d="M901.944,585.224l-3.966-14.335s44.675-4.778,53-1.079,25.3,57.469,25.3,57.469-12.639,6.782-15.105,6.165a5.923,5.923,0,0,1-4.624-5.549c0-2.774-3.563-7.836-6.338-10.919s-2.312-7.553-3.545-9.711S901.944,585.224,901.944,585.224Z" transform="translate(-862.64 -461.512)" fill="#5a75a3"/>
    <path id="Path_8810" data-name="Path 8810" d="M868.133,462.127s4.508-2.5,4.863-3.133,1.131-2.672,1.644-2.26,3.306,5.508,4.894,6.153c2.659,1.079,3.729,1.194,4.863,2.017s1.04,4.316,1.04,4.316-10.438,1.99-10.952,1.3S868.133,462.127,868.133,462.127Z" transform="translate(-851.196 -418.67)" fill="#fff"/>
    <path id="Path_8811" data-name="Path 8811" d="M895.021,469.7s1.31-2.415,2.685-2.672a13.3,13.3,0,0,0,5.028-3.083c.611-.823.971-.565,1.793,0a25.318,25.318,0,0,1,2.83,3.088s-4.112,4.875-4.884,5.132a27.187,27.187,0,0,1-6.373,0C895.117,471.92,895.021,469.7,895.021,469.7Z" transform="translate(-861.506 -421.253)" fill="#fff"/>
    <path id="Path_8812" data-name="Path 8812" d="M848.688,587.848s.462,11.515,6.782,15.083,45.471,4.132,46.087,4.389-.616-.6-.616,4.3,2.723,5.671,1.49,8.6-3.1,6.206-2.642,9.9-2,6.2-3.087,10.21.626,9.325.308,11.021,14.108,4.477,14.108,4.477,23.116-51.8,22.191-59.35-21.733-15.876-32.523-18.651-26.543-5.395-26.543-5.395Z" transform="translate(-843.74 -463.056)" fill="#5a75a3"/>
    <path id="Path_8813" data-name="Path 8813" d="M870.846,580.755c-3.365,1.336-11.843,8.22-13.9,10.07s-2.531,9.5-2.531,9.5,1.093,2.934,2.326,6.238c.444,1.19.922,2.369,1.295,3.583.234.759.273,3.128,1.351,3.029,1.275-.117,2.378-1.995,3.035-2.926a35.792,35.792,0,0,0,2.306-3.851,49.935,49.935,0,0,1,4.537-7.724c.951-1.2,2.121-2.233,2.954-3.527s1.417-2.737,2.312-4.015c4.535-6.474,16.222-17.367,16.222-17.367S874.21,579.418,870.846,580.755Z" transform="translate(-845.936 -463.567)" fill="#fff"/>
    <path id="Path_8814" data-name="Path 8814" d="M896.266,486.984c.7-4.85,1.207-9.33-2.015-13.419a21.147,21.147,0,0,0-7.739-5.731c-.909.485-1.918.731-2.824,1.2-6,3.113-15.286,3.61-20.714-.733a12.239,12.239,0,0,0-5.376-2.787c-.756.322-1.421.634-1.9.855a22.957,22.957,0,0,0-7.844,6.784,15.943,15.943,0,0,0-3.273,8.685c-.285,4.087-1.175,6.975-1.438,11.062-.261,4.058-.01,8.155-.855,12.091a16.354,16.354,0,0,0-.354,5.259A58.756,58.756,0,0,0,843.186,516a13.518,13.518,0,0,1-.125,6.461,49.1,49.1,0,0,0-1.479,5.668c-.547,4.009,1.75,7.538,1.795,11.487.046,4.046-1.765,7.914-2.427,11.86a12.8,12.8,0,0,0,.1,5.824c.754,2.478,3.426,6.563,6.251,3.693,2.431-2.471,4.048-5.8,6.6-8.308a37.747,37.747,0,0,1,9.369-6.748c4.39-2.221,9.113-4.094,13.467-6.512,4.442-2.467,7.779-5.916,11.711-9.047,1.095-2.55,4.43-5.153,5.317-7.733,1.486-4.325,0-5.947,1.214-10.389a44.961,44.961,0,0,0,1.592-12.551C896.5,495.468,895.658,491.222,896.266,486.984Z" transform="translate(-840.662 -422.058)" fill="#301e17"/>
    <path id="Path_8815" data-name="Path 8815" d="M946.06,592.876a219.289,219.289,0,0,0-34.175,12.037c-.361.162-.048.694.311.533a218.313,218.313,0,0,1,34.028-11.975A.308.308,0,0,0,946.06,592.876Z" transform="translate(-867.911 -470.89)" fill="#496494"/>
    <path id="Path_8816" data-name="Path 8816" d="M980.323,605.477a10.481,10.481,0,0,0-8.414-8.278c-.388-.059-.556.535-.164.594a9.977,9.977,0,0,1,8.088,8.357c.84,4.577-.884,9.043-3.351,12.827-.218.334.316.642.532.311C979.668,615.219,981.434,610.369,980.323,605.477Z" transform="translate(-890.84 -472.551)" fill="#496494"/>
    <path id="Path_8817" data-name="Path 8817" d="M945.559,614.5a45.648,45.648,0,0,0-9.9,6.844c-.295.267.142.7.436.436a45.026,45.026,0,0,1,9.777-6.747C946.224,614.85,945.912,614.318,945.559,614.5Z" transform="translate(-877.051 -479.171)" fill="#496494"/>
    <path id="Path_8818" data-name="Path 8818" d="M945.459,620.619a25.278,25.278,0,0,0-6.008,4.181c-.291.272.146.707.436.437a24.7,24.7,0,0,1,5.884-4.085C946.125,620.974,945.813,620.442,945.459,620.619Z" transform="translate(-878.506 -481.519)" fill="#496494"/>
    <path id="Path_8819" data-name="Path 8819" d="M909.98,609.433a64.849,64.849,0,0,1-22.714,9.289c-.388.078-.224.673.164.595a65.294,65.294,0,0,0,22.861-9.352C910.622,609.75,910.313,609.216,909.98,609.433Z" transform="translate(-858.447 -477.224)" fill="#496494"/>
    <path id="Path_8820" data-name="Path 8820" d="M976.808,585.9a38.4,38.4,0,0,1-6.48,4.336c-.35.187-.039.719.311.533a39.222,39.222,0,0,0,6.6-4.432C977.55,586.085,977.112,585.651,976.808,585.9Z" transform="translate(-890.324 -468.191)" fill="#496494"/>
    <path id="Path_8821" data-name="Path 8821" d="M979.258,589.754l-3.2,2.815c-.3.263.139.7.436.437l3.2-2.815C979.992,589.927,979.555,589.493,979.258,589.754Z" transform="translate(-892.541 -469.667)" fill="#496494"/>
    <path id="Path_8822" data-name="Path 8822" d="M1006.237,661.593a16.7,16.7,0,0,1-10.166-.106c-.379-.123-.54.472-.164.594a17.284,17.284,0,0,0,10.494.107C1006.779,662.072,1006.618,661.477,1006.237,661.593Z" transform="translate(-900.109 -497.197)" fill="#496494"/>
    <path id="Path_8823" data-name="Path 8823" d="M881.357,590.356a31.731,31.731,0,0,0-9.652,8.92c-2.9,4.125-4.722,9.24-9.3,11.882a.309.309,0,0,0,.311.533c4.008-2.315,5.99-6.486,8.326-10.281a31.4,31.4,0,0,1,10.623-10.521A.308.308,0,0,0,881.357,590.356Z" transform="translate(-848.944 -469.911)" fill="#fcf0de"/>
    <path id="Path_8824" data-name="Path 8824" d="M872.624,601.267a39.324,39.324,0,0,1-4.68,5.383c-.287.275.149.711.436.436a40.145,40.145,0,0,0,4.776-5.508C873.388,601.256,872.854,600.948,872.624,601.267Z" transform="translate(-851.087 -474.061)" fill="#fcf0de"/>
    <path id="Path_8825" data-name="Path 8825" d="M884.458,468.428a57.5,57.5,0,0,1-8.616-6.529c-.292-.268-.729.167-.436.436a58.386,58.386,0,0,0,8.74,6.626C884.485,469.17,884.8,468.637,884.458,468.428Z" transform="translate(-853.948 -420.639)" fill="#fcf0de"/>
    <path id="Path_8826" data-name="Path 8826" d="M905.7,467.77l-4.754,2.729a.308.308,0,0,0,.311.532l4.753-2.729A.308.308,0,0,0,905.7,467.77Z" transform="translate(-863.72 -422.906)" fill="#fcf0de"/>
    <path id="Path_8827" data-name="Path 8827" d="M875.16,512.288c-.735-2.985-2.831-5.183-4.625-7.577a16.6,16.6,0,0,1-1.911-3.18,43.21,43.21,0,0,0,.864-10.841c-.019-.4-.635-.4-.617,0a42.525,42.525,0,0,1-.665,9.764c-.035-.1-.08-.2-.113-.306-.552-1.774-.817-3.622-1.351-5.4a19.427,19.427,0,0,0-7.6-10.386,41.128,41.128,0,0,1-4.669-3.1c-.293-.266-.731.169-.436.436,2.35,2.128,5.345,3.246,7.589,5.556a19.13,19.13,0,0,1,4.8,8.677,46.042,46.042,0,0,0,1.579,5.553l0,.018a.3.3,0,0,0,.155.335,13.437,13.437,0,0,0,1.435,2.623c1.831,2.575,4.194,4.825,4.973,7.988C874.66,512.837,875.255,512.674,875.16,512.288Z" transform="translate(-845.755 -428.066)" fill="#4d3025"/>
    <path id="Path_8828" data-name="Path 8828" d="M868.557,566.686c-3.712,2.522-7.945-.615-11.7-1.4-3.633-.755-7.517-.38-10.82-2.329a.308.308,0,0,0-.311.532c3.655,2.157,7.956,1.54,11.92,2.617,3.633.988,7.6,3.569,11.219,1.109C869.195,567,868.887,566.462,868.557,566.686Z" transform="translate(-842.548 -459.406)" fill="#4d3025"/>
    <path id="Path_8829" data-name="Path 8829" d="M883.564,554.9a121.545,121.545,0,0,0-11.872,5.62c-.349.189-.038.721.311.532a119.975,119.975,0,0,1,11.725-5.558C884.09,555.35,883.931,554.753,883.564,554.9Z" transform="translate(-852.502 -456.325)" fill="#4d3025"/>
    <path id="Path_8830" data-name="Path 8830" d="M926.486,562.359l-.327.037-.167.019c-.783.086-2.448.265-4.581.493-6.653.709-17.681,1.3-21.154,1.329a70.088,70.088,0,0,1-16.77-1.754s11.11-9.779,13.946-10.025c2.084-.191,16.616,2.072,24.249,3.292,1.874.3,3.329.536,4.088.666.179.025.314.049.413.068s.166.025.166.025Z" transform="translate(-857.084 -455.391)" fill="#ff9a73"/>
    <g id="Group_3972" data-name="Group 3972" transform="translate(65.894 101.017)">
      <path id="Path_8831" data-name="Path 8831" d="M969.345,568.455v.006a.448.448,0,0,1-.068.117c-.777,1.1-1.893-.234-1.893-.234s-.647,1.042-1.43.943a16.43,16.43,0,0,1-3.687-1.461,17.789,17.789,0,0,0-6.912-1.615c-2.99-.037-4.384-1.122-4.636-1.35-.031-.025-.043-.037-.043-.037l-.117-.117-3.021-3.114,2.793-2.713.006-.006s.148.006.407.025c1.8.123,9.076.672,10.895,1.578a8.632,8.632,0,0,1,1.332.839l.259.191a41.117,41.117,0,0,1,4.3,4.1l.006.006c.2.21.358.382.469.5a13.221,13.221,0,0,1,1,1.153v.006C969.315,567.7,969.493,568.1,969.345,568.455Z" transform="translate(-947.538 -558.874)" fill="#ff9a73"/>
      <path id="Path_8832" data-name="Path 8832" d="M978.995,570c.319.147,1.567-.189.563-1.5s-6.993-5.663-6.993-5.663l3.18,4.749A38.974,38.974,0,0,0,978.995,570Z" transform="translate(-957.135 -560.393)" fill="#ff9a73"/>
      <path id="Path_8833" data-name="Path 8833" d="M970.636,568.035a.555.555,0,0,0-.23.141c-.191.2-.042.419.15.543a32.211,32.211,0,0,1,4.96,3.059c.334.249.672-.3.34-.552A32.467,32.467,0,0,0,970.636,568.035Z" transform="translate(-956.273 -562.387)" fill="#f08054"/>
      <path id="Path_8834" data-name="Path 8834" d="M972.776,564.962a.324.324,0,0,0-.34.552,38.712,38.712,0,0,1,5.58,4.09c.31.273.787-.166.474-.442A39.691,39.691,0,0,0,972.776,564.962Z" transform="translate(-957.027 -561.19)" fill="#f08054"/>
    </g>
    <path id="Path_8835" data-name="Path 8835" d="M949.77,558.488v.049c-.043,1.289-.148,4.643-.185,5.759a1.466,1.466,0,0,1-.006.173c-.783.086-2.448.265-4.581.493l.271-7.158c1.874.3,3.329.536,4.088.666l.006-.006S949.511,558.47,949.77,558.488Z" transform="translate(-880.67 -457.446)" fill="#edcdba"/>
    <path id="Path_8836" data-name="Path 8836" d="M950.065,559.96c-.047.554-1.16.912-2.485.8s-2.362-.652-2.315-1.206,1.16-.913,2.485-.8S950.112,559.405,950.065,559.96Z" transform="translate(-880.772 -457.802)" fill="#fff"/>
    <g id="Group_3973" data-name="Group 3973" transform="translate(63.164 99.26)">
      <path id="Path_8837" data-name="Path 8837" d="M944.144,565.238a.308.308,0,0,1-.3-.225,25.032,25.032,0,0,1-.678-4.609,12.69,12.69,0,0,1,.186-4.164.308.308,0,0,1,.589.182,12.547,12.547,0,0,0-.16,3.94,25.029,25.029,0,0,0,.657,4.485.308.308,0,0,1-.214.379A.3.3,0,0,1,944.144,565.238Z" transform="translate(-943.111 -556.024)" fill="#fff"/>
    </g>
    <g id="Group_3974" data-name="Group 3974" transform="translate(60.579 99.26)">
      <path id="Path_8838" data-name="Path 8838" d="M939.225,565.387a.3.3,0,0,1-.165-.049.308.308,0,0,1-.095-.426,26.493,26.493,0,0,0,1.951-3.854,34.291,34.291,0,0,0,1.442-4.792.309.309,0,0,1,.6.129,35.184,35.184,0,0,1-1.474,4.894,26.883,26.883,0,0,1-2,3.955A.309.309,0,0,1,939.225,565.387Z" transform="translate(-938.917 -556.024)" fill="#fff"/>
    </g>
    <g id="Group_3975" data-name="Group 3975" transform="translate(59.665 99.26)">
      <path id="Path_8839" data-name="Path 8839" d="M937.743,565.535a.308.308,0,0,1-.282-.433,34.88,34.88,0,0,0,1.172-3.375,32.013,32.013,0,0,0,.977-5.421.308.308,0,0,1,.614.053,31.943,31.943,0,0,1-1,5.548,34.293,34.293,0,0,1-1.2,3.445A.309.309,0,0,1,937.743,565.535Z" transform="translate(-937.435 -556.023)" fill="#fff"/>
    </g>
    <g id="Group_3976" data-name="Group 3976" transform="translate(74.394 98.014)">
      <path id="Path_8840" data-name="Path 8840" d="M967.114,555.817c-.664-.365-1.424-.472-2.1-.8a9.627,9.627,0,0,0-1.791-.978c-1.005-.244-1.535.637-1.644,1.547-.049.411-.089.821-.167,1.233-.133.708-.215,1.592.544,1.986a.941.941,0,0,0,1.274-.244c-.009.179-.031.358-.034.538-.011.708.043,1.63.935,1.713a.566.566,0,0,1,.953.57,1.123,1.123,0,0,0,1.348.1,1.969,1.969,0,0,0,.741-.883c.169.392.491.594,1.09.326a3.426,3.426,0,0,0,1.265-1.6c.289-.554.626-1.16.113-1.686A10.653,10.653,0,0,0,967.114,555.817Z" transform="translate(-961.325 -554.003)" fill="#ff9a73"/>
      <path id="Path_8841" data-name="Path 8841" d="M965.07,555.656l-.82,2.779c-.14.474.618.609.758.137l.819-2.779C965.967,555.319,965.209,555.184,965.07,555.656Z" transform="translate(-962.44 -554.524)" fill="#f08054"/>
      <path id="Path_8842" data-name="Path 8842" d="M971.568,559.642a16.573,16.573,0,0,1-.909,1.8c-.25.427.448.753.7.327a16.345,16.345,0,0,0,.909-1.8C972.461,559.516,971.765,559.186,971.568,559.642Z" transform="translate(-964.883 -556.081)" fill="#f08054"/>
      <path id="Path_8843" data-name="Path 8843" d="M968.115,558.05a26.469,26.469,0,0,1-1.251,3.262.385.385,0,0,0,.7.327,28.06,28.06,0,0,0,1.311-3.452C969.019,557.715,968.26,557.581,968.115,558.05Z" transform="translate(-963.435 -555.443)" fill="#f08054"/>
    </g>
    <g id="Group_3977" data-name="Group 3977" transform="translate(74.058 101.646)">
      <path id="Path_8844" data-name="Path 8844" d="M965.558,564.338h-.025c-.667-.014-1.027-.637-1.187-1.028a1.655,1.655,0,0,1-1.123-.192,1.614,1.614,0,0,1-.591-1.57,2.071,2.071,0,0,1-1.021-.052,1.1,1.1,0,0,1-.792-1.376.308.308,0,0,1,.594.164.484.484,0,0,0,.374.62,1.278,1.278,0,0,0,1.042-.079.31.31,0,0,1,.475.318c-.081.386-.136,1.244.213,1.433a.965.965,0,0,0,.875.079.313.313,0,0,1,.271-.009.309.309,0,0,1,.175.2c0,.009.232.861.708.871h.01c.445,0,.9-.591,1.038-.821a.308.308,0,0,1,.546.034,1,1,0,0,0,.378.067,1.685,1.685,0,0,0,1.026-.459.308.308,0,0,1,.421.451,2.355,2.355,0,0,1-1.474.624,1.684,1.684,0,0,1-.572-.108A1.9,1.9,0,0,1,965.558,564.338Zm1.61-1.287h0Zm0,0h0Z" transform="translate(-960.779 -559.893)" fill="#f08054"/>
    </g>
    <path id="Path_8845" data-name="Path 8845" d="M933,502.847a10.259,10.259,0,0,1-4.418,5.41c0-.126.007-.253.017-.38a25.057,25.057,0,0,1,1.009-4.619q1.308-4.771,2.614-9.542a.309.309,0,0,0-.594-.164q-1.308,4.771-2.614,9.542a17.77,17.77,0,0,0-.792,8.123,48.222,48.222,0,0,1,1.014,9.577c-.074,3.333-.187,6.666-.282,10a.308.308,0,0,0,.617,0c.171-6.024.813-12.176-.43-18.116a22.137,22.137,0,0,1-.558-3.7,10.93,10.93,0,0,0,5.013-5.97C933.723,502.636,933.128,502.475,933,502.847Z" transform="translate(-874.161 -432.725)" fill="#4d3025"/>
    <path id="Path_8846" data-name="Path 8846" d="M900.88,544.443a19.681,19.681,0,0,0-10.393-8.711c-.374-.136-.535.46-.164.6a19.021,19.021,0,0,1,10.024,8.428A.309.309,0,0,0,900.88,544.443Z" transform="translate(-859.624 -448.975)" fill="#4d3025"/>
    <path id="Path_8847" data-name="Path 8847" d="M875.661,533.995a49.074,49.074,0,0,0-19.439,4.594c-.359.168-.046.7.311.533a48.285,48.285,0,0,1,19.127-4.51A.309.309,0,0,0,875.661,533.995Z" transform="translate(-846.568 -448.316)" fill="#4d3025"/>
  </g>
  <g id="Group_3994" data-name="Group 3994" transform="translate(322.703 79.274)">
    <g id="Group_3979" data-name="Group 3979" transform="translate(55.682)">
      <path id="Path_8848" data-name="Path 8848" d="M1226.589,374.5c-15.655,2.7-12.914,17.853-8.715,28.794.291.76.8,2.232,1.457,3.876.088.207.169.415.26.628,1.487,3.544,3.654,7.538,5.978,6.842,4.583-1.374,8.9-3.065,12.353-6.53a17.176,17.176,0,0,0,3.465-4.884c.584-1.26,1.763-3.861,1.35-5.283C1243.324,387.467,1239.867,372.222,1226.589,374.5Z" transform="translate(-1209.976 -366.49)" fill="#ffa87d"/>
      <path id="Path_8849" data-name="Path 8849" d="M1217.067,409.156s-1.288,8.064-1.014,9.008,3.922,1.164,4.116,1.172a75.931,75.931,0,0,0-1.884-7.527C1218.106,411.413,1217.067,409.156,1217.067,409.156Z" transform="translate(-1210.515 -379.865)" fill="#ffa87d"/>
      <path id="Path_8850" data-name="Path 8850" d="M1236.372,425.443a5.2,5.2,0,0,1,5.845,2.191c2.4,3.4,4.379,10.571,4.379,10.571l16.487-7.849-11.29-25.279Z" transform="translate(-1218.321 -378.301)" fill="#ffa87d"/>
      <path id="Path_8851" data-name="Path 8851" d="M1226.223,424.039a5.76,5.76,0,0,1-3.7,2.657c-.09-.213-.171-.422-.26-.628a5.169,5.169,0,0,0,3.368-2.358C1225.859,423.343,1226.454,423.67,1226.223,424.039Z" transform="translate(-1212.912 -385.384)" fill="#f18c4d"/>
      <path id="Path_8852" data-name="Path 8852" d="M1221.7,422.5l-1.19.346a.338.338,0,0,0,.188.649l1.19-.346A.338.338,0,0,0,1221.7,422.5Z" transform="translate(-1212.148 -384.975)" fill="#f18c4d"/>
      <path id="Path_8853" data-name="Path 8853" d="M1221.244,403.944c-.4-.35-6.631-.031-5.616,1.911.283.543.946.379,1.418.232.5-.153.981-.273,1.488-.383a15.2,15.2,0,0,0,1.693-.442,2.189,2.189,0,0,0,1.139-.643.426.426,0,0,0,.074-.338A.617.617,0,0,0,1221.244,403.944Z" transform="translate(-1210.323 -377.819)" fill="#301e17"/>
      <path id="Path_8854" data-name="Path 8854" d="M1218.76,409.414a.587.587,0,0,0-.689.379,1.226,1.226,0,0,0,.068.9,1.588,1.588,0,0,0,.464.7.667.667,0,0,0,1.138-.435,1.591,1.591,0,0,0-.186-.721,1.714,1.714,0,0,0-.559-.717A.725.725,0,0,0,1218.76,409.414Z" transform="translate(-1211.28 -379.958)" fill="#301e17"/>
      <path id="Path_8855" data-name="Path 8855" d="M1245.268,385.475c.289-.967.58-1.932.881-2.9a6.18,6.18,0,0,0,.254-1.125,15.581,15.581,0,0,0-.258-4.472,7.072,7.072,0,0,0-2.228-3.762,3.632,3.632,0,0,1-1.481-3.416,6.053,6.053,0,0,0-.182-2.072c-.852-3.043-3.734-4.823-6.645-5.514-1.91-.454-4.785-1.021-6.659.016-.161.03-.324.06-.485.105-1.671.473-3.224,1.843-5.061,1.481-1.784-.351-3.445-.483-4.863.841-1.226,1.145-1.694,3.028-3.291,3.789a15.143,15.143,0,0,1-2.327.59c-1.875.551-2.75,2.1-3.286,3.844-.091.295-1.117,3.776-.864,3.83-2.575-.553-1.612,2.562-.868,3.8,1.524,2.541,5.615,3.206,8.326,3.287a3.056,3.056,0,0,1,1.232.192,3.8,3.8,0,0,1,.756.564c1.963,1.632,4.292.162,6.487.171,1.977.009,3.868,5.046,4.584,6.764,2.643,3.222,3.454,1.911,6.591,3.76a3.561,3.561,0,0,0,2.479.736,15.678,15.678,0,0,0,4.141-1.781,1.545,1.545,0,0,0,.458-.31c.317-.35.213-1.16.289-1.606a19.41,19.41,0,0,1,.71-2.495C1244.411,388.358,1244.837,386.915,1245.268,385.475Z" transform="translate(-1207.094 -361.648)" fill="#301e17"/>
      <path id="Path_8856" data-name="Path 8856" d="M1245.006,429.909a27.548,27.548,0,0,1-4.128,3.483c-.348.239-.018.813.334.571a28.343,28.343,0,0,0,4.262-3.588C1245.77,430.071,1245.3,429.6,1245.006,429.909Z" transform="translate(-1219.992 -387.785)" fill="#f18c4d"/>
    </g>
    <path id="Path_8857" data-name="Path 8857" d="M1207.859,443.286a19.432,19.432,0,0,0-1.317-5.483c-1.026-2.154-2.831-3.056-5.723-3.693s-5.173-2.016-5.651-1.38.19,1.8.758,2.282l.568.477-3.98.564s-1.538,4.9-1.485,5.061a15.7,15.7,0,0,0,1,3.236c.6,1.14,11.9,3.343,11.9,3.343s2.213-.745,2.619-.85S1207.859,443.286,1207.859,443.286Z" transform="translate(-1145.252 -388.842)" fill="#ffa87d"/>
    <path id="Path_8858" data-name="Path 8858" d="M1208.5,456.264s10.7,33.861,14.8,40.669,7.472,8.074,7.472,8.074l4.038-18.16-20.247-36.894Z" transform="translate(-1151.951 -395.509)" fill="#ffa87d"/>
    <g id="Group_3988" data-name="Group 3988" transform="translate(0 46.452)">
      <rect id="Rectangle_1098" data-name="Rectangle 1098" width="22.781" height="19.184" rx="2.833" transform="translate(38.314 11.085)" fill="#301e17"/>
      <rect id="Rectangle_1099" data-name="Rectangle 1099" width="9.153" height="11.063" transform="translate(32.142 14.947)" fill="#301e17"/>
      <path id="Path_8859" data-name="Path 8859" d="M1165.019,459.45s-5.147-2.706-5.863-2.865-.358,16.236.2,16.316,5.664-2.388,5.664-2.388l3.528-7.243Z" transform="translate(-1132.877 -444.504)" fill="#301e17"/>
      <path id="Path_8860" data-name="Path 8860" d="M1159.4,456.541s8.251-.16,8.834,0,1.6,3.927,1.6,3.927l-.544,10a16.96,16.96,0,0,1-2.228,1.937c-.424.236-7.468.451-7.468.451s3.17-8.253,3.17-8.331S1159.4,456.541,1159.4,456.541Z" transform="translate(-1133.125 -444.46)" fill="#301e17"/>
      <path id="Rectangle_1100" data-name="Rectangle 1100" d="M0,0H10.824a0,0,0,0,1,0,0V0A2.759,2.759,0,0,1,8.065,2.759H2.759A2.759,2.759,0,0,1,0,0V0A0,0,0,0,1,0,0Z" transform="translate(44.292 29.273)" fill="#301e17"/>
      <g id="Group_3980" data-name="Group 3980" transform="translate(48.471 29.419)">
        <path id="Path_8861" data-name="Path 8861" d="M1196.632,530.575a1.233,1.233,0,0,1-1.233-1.233v-43.4a1.233,1.233,0,0,1,2.466,0v43.4A1.233,1.233,0,0,1,1196.632,530.575Z" transform="translate(-1195.399 -484.706)" fill="#301e17"/>
      </g>
      <rect id="Rectangle_1101" data-name="Rectangle 1101" width="9.551" height="3.9" rx="1.95" transform="translate(45.035 46.106)" fill="#301e17"/>
      <path id="Path_8862" data-name="Path 8862" d="M1206.52,509.576a2.388,2.388,0,1,1-2.387-2.388A2.388,2.388,0,0,1,1206.52,509.576Z" transform="translate(-1149.361 -463.908)" fill="#301e17"/>
      <rect id="Rectangle_1102" data-name="Rectangle 1102" width="5.757" height="10.081" rx="2.688" transform="translate(46.826 72.357)" fill="#301e17"/>
      <g id="Group_3981" data-name="Group 3981" transform="translate(48.78 78.559)">
        <path id="Path_8863" data-name="Path 8863" d="M1201.705,735.346a.925.925,0,0,1-.924-.9L1195.9,565.359a.924.924,0,0,1,.9-.951.934.934,0,0,1,.951.9l4.882,169.088a.925.925,0,0,1-.9.951Z" transform="translate(-1195.899 -564.408)" fill="#301e17"/>
      </g>
      <rect id="Rectangle_1103" data-name="Rectangle 1103" width="4.935" height="3.29" rx="1.194" transform="translate(52.084 247.07) rotate(-2.173)" fill="#301e17"/>
      <g id="Group_3983" data-name="Group 3983" transform="translate(48.235 74.434)">
        <g id="Group_3982" data-name="Group 3982">
          <path id="Path_8864" data-name="Path 8864" d="M1242.8,722.795a.925.925,0,0,1-.889-.67L1195.052,558.9a.925.925,0,1,1,1.777-.511l46.857,163.227a.925.925,0,0,1-.633,1.144A.945.945,0,0,1,1242.8,722.795Z" transform="translate(-1195.016 -557.717)" fill="#301e17"/>
        </g>
        <rect id="Rectangle_1104" data-name="Rectangle 1104" width="4.935" height="3.29" rx="1.194" transform="translate(45.008 163.248) rotate(-15.1)" fill="#301e17"/>
      </g>
      <g id="Group_3985" data-name="Group 3985" transform="translate(0 78.365)">
        <g id="Group_3984" data-name="Group 3984" transform="translate(1.923)">
          <path id="Path_8865" data-name="Path 8865" d="M1120.826,729.17a.926.926,0,0,1-.889-1.181l46.857-163.227a.925.925,0,1,1,1.778.511L1121.714,728.5A.926.926,0,0,1,1120.826,729.17Z" transform="translate(-1119.901 -564.092)" fill="#301e17"/>
        </g>
        <rect id="Rectangle_1105" data-name="Rectangle 1105" width="4.935" height="3.29" rx="1.194" transform="translate(4.764 166.424) rotate(-164.901)" fill="#301e17"/>
      </g>
      <g id="Group_3986" data-name="Group 3986" transform="translate(34.745 132.184)">
        <path id="Path_8866" data-name="Path 8866" d="M1189.7,661.575l-16.069-8.449a.925.925,0,1,1,.861-1.637l15.207,8,12.61-6.642a.925.925,0,0,1,.863,1.637Z" transform="translate(-1173.136 -651.383)" fill="#301e17"/>
      </g>
      <g id="Group_3987" data-name="Group 3987" transform="translate(40.206)">
        <path id="Path_8867" data-name="Path 8867" d="M1181.994,449s3.582-12.245,4.059-12.006,1.273,1.751,1.672,1.99,9.391,1.831,9.63,1.99,0,8.417,0,8.417Z" transform="translate(-1181.994 -436.99)" fill="#301e17"/>
        <path id="Path_8868" data-name="Path 8868" d="M1188.578,436.994a54.769,54.769,0,0,1,6.088.2c.4.239,5.213,3.78,5.213,3.78s-5.69,1.035-6.088,1.035a22.172,22.172,0,0,1-3.462-.677A45.051,45.051,0,0,1,1188.578,436.994Z" transform="translate(-1184.519 -436.991)" fill="#301e17"/>
      </g>
      <path id="Path_8869" data-name="Path 8869" d="M1202.651,443.24a41.705,41.705,0,0,0-4.727.084c-.4.03-.433.666-.025.636a41.557,41.557,0,0,1,4.727-.084A.319.319,0,0,0,1202.651,443.24Z" transform="translate(-1147.774 -439.375)" fill="#4d3025"/>
      <path id="Path_8870" data-name="Path 8870" d="M1196.286,450.59l-6.308.035c.777-3.133,1.091-3.63,1.723-6.147.1-.4-.53-.392-.637,0-.555,2.039-.943,2.946-1.716,6.048a.315.315,0,0,0,0,.1l-6.164.033a.319.319,0,0,0,0,.637l13.107-.072A.319.319,0,0,0,1196.286,450.59Z" transform="translate(-1142.124 -439.748)" fill="#4d3025"/>
      <path id="Path_8871" data-name="Path 8871" d="M1193.36,440.776a40.088,40.088,0,0,0-3.593-2.464c-.329-.237-.848.039-.55.321a32.155,32.155,0,0,0,3.693,2.593C1193.242,441.466,1193.671,441.037,1193.36,440.776Z" transform="translate(-1144.523 -437.463)" fill="#4d3025"/>
      <path id="Path_8872" data-name="Path 8872" d="M1171.932,471.321a5.251,5.251,0,0,1-.227-9.835c.374-.154.21-.77-.169-.614a5.892,5.892,0,0,0,.226,11.063C1172.148,472.075,1172.315,471.459,1171.932,471.321Z" transform="translate(-1136.338 -446.138)" fill="#4d3025"/>
      <path id="Path_8873" data-name="Path 8873" d="M1167.2,470l-3.184.2-.229-9.592a.356.356,0,0,0,.368-.293l2.78-.036a.319.319,0,0,0,0-.637l-3.29.043a.324.324,0,0,0-.108.023,21.072,21.072,0,0,0-2.77-1.737c-.363-.189-.686.36-.322.549a20.686,20.686,0,0,1,2.767,1.734.28.28,0,0,0-.067.193l.234,9.762a.292.292,0,0,0,.063.173.3.3,0,0,0-.017.03.268.268,0,0,0-.109.041l-2.659,1.85c-.334.232-.016.785.322.55l2.658-1.85a.305.305,0,0,0,.113-.151l3.449-.213C1167.6,470.611,1167.606,469.974,1167.2,470Z" transform="translate(-1133.462 -445.019)" fill="#4d3025"/>
      <path id="Path_8874" data-name="Path 8874" d="M1179.133,462.591a.318.318,0,0,0-.636,0l.007,8.33a.318.318,0,0,0,.636,0Z" transform="translate(-1140.446 -446.689)" fill="#4d3025"/>
      <path id="Path_8875" data-name="Path 8875" d="M1198.1,484.962q-3.846.187-7.7.162a.319.319,0,0,0,0,.637q3.851.024,7.7-.163C1198.513,485.578,1198.515,484.941,1198.1,484.962Z" transform="translate(-1144.897 -455.385)" fill="#4d3025"/>
      <path id="Path_8876" data-name="Path 8876" d="M1199.61,457.773a.318.318,0,0,0-.636,0l.278,15.176a.319.319,0,0,0,.637,0Z" transform="translate(-1148.298 -444.841)" fill="#4d3025"/>
      <path id="Path_8877" data-name="Path 8877" d="M1189.5,464.574a2.24,2.24,0,1,1-2.2-2.653A2.459,2.459,0,0,1,1189.5,464.574Z" transform="translate(-1142.976 -446.55)" fill="#4d3025"/>
    </g>
    <path id="Path_8878" data-name="Path 8878" d="M1207.128,443.2a15.248,15.248,0,0,1-1.688-2.313c-.42-.715-.672-1.579-1.135-2.261-.719-1.059-1.963-.957-3.043-1.4-.378-.157-.543.459-.169.614.549.227,1.131.27,1.687.461,1.055.362,1.207,1.181,1.64,2.048a15.665,15.665,0,0,0,2.257,3.3C1206.948,443.956,1207.4,443.5,1207.128,443.2Z" transform="translate(-1149.03 -390.616)" fill="#f18c4d"/>
    <g id="Group_3990" data-name="Group 3990" transform="translate(91.195 126.249)">
      <g id="Group_3989" data-name="Group 3989" transform="translate(0.143 141.924)">
        <path id="Path_8879" data-name="Path 8879" d="M1298.325,796.606l-1.533,14.658-3.982,3.162-3.914-3.039-1.592-14.139Z" transform="translate(-1273.507 -796.606)" fill="#ffa87d"/>
        <path id="Path_8880" data-name="Path 8880" d="M1280.256,818.7s2.065.277,2.931-.3a17.839,17.839,0,0,1,5.479-1.342c.5.121,1.154,3.763,1.315,6.365a47.324,47.324,0,0,1,.193,5.544c-.111.5-2.158,1.806-5.137,2.006s-17.858.324-18.956-.271a2.655,2.655,0,0,1-.42-4.048c1.312-1.554,6.509-3.511,8.449-4.258A45.53,45.53,0,0,0,1280.256,818.7Z" transform="translate(-1264.926 -804.442)" fill="#301e17"/>
        <path id="Path_8881" data-name="Path 8881" d="M1289.436,832.327a67.982,67.982,0,0,1-12.117,1.792,33.637,33.637,0,0,1-7.344.042,6.517,6.517,0,0,1,1-4.453c.227-.348-.277-.761-.506-.41a7.218,7.218,0,0,0-1.163,4.759,14.441,14.441,0,0,1-2.891-.812c-.388-.156-.658.437-.269.593,3.427,1.377,7.073,1.269,10.691.974a70.862,70.862,0,0,0,12.835-1.879C1290.076,832.824,1289.837,832.218,1289.436,832.327Z" transform="translate(-1265.321 -809.09)" fill="#fff"/>
        <path id="Path_8882" data-name="Path 8882" d="M1280.663,827.079a.359.359,0,0,0-.237-.177.313.313,0,0,0-.459.148.36.36,0,0,0-.1.335.338.338,0,0,0,.358.29.4.4,0,0,0,.186-.055.406.406,0,0,0,.24-.144A.336.336,0,0,0,1280.663,827.079Z" transform="translate(-1270.652 -808.203)" fill="#fff"/>
        <path id="Path_8883" data-name="Path 8883" d="M1285.99,823.972a.343.343,0,0,0-.177.037.215.215,0,0,0-.027,0l-.073.028a.294.294,0,0,0-.186.367.449.449,0,0,0,.73.346A.458.458,0,0,0,1285.99,823.972Z" transform="translate(-1272.821 -807.099)" fill="#fff"/>
      </g>
      <path id="Path_8884" data-name="Path 8884" d="M1295.665,573.126c-1.052-5.042-9.138-5.175-14.328-6.4-5.511-1.3-16.643,1.862-16.643,1.862s.576,21.844.677,23.618c1.22,21.666,4.545,43.222,7.079,64.766q2.676,22.756,5.38,45.508c.061.513,1.131,9.722,1.153,9.72,1.976-.187,21.764-2.525,21.618-3.937,0,0-1.173-23.239.028-35.113.861-8.512-.2-55.587-.489-61.754C1297.121,547.588,1296.238,575.87,1295.665,573.126Z" transform="translate(-1264.694 -566.415)" fill="#bd8053"/>
    </g>
    <g id="Group_3992" data-name="Group 3992" transform="translate(59.083 130.341)">
      <g id="Group_3991" data-name="Group 3991" transform="translate(0 142.324)">
        <path id="Path_8885" data-name="Path 8885" d="M1247.718,803.891l-2.19,14.575-4.12,2.98-3.774-3.212-.956-14.2Z" transform="translate(-1221.839 -803.891)" fill="#ffa87d"/>
        <path id="Path_8886" data-name="Path 8886" d="M1228.37,825.5s2.05.369,2.943-.172a17.84,17.84,0,0,1,5.534-1.094c.5.144.984,3.811,1.028,6.417a47.563,47.563,0,0,1-.056,5.547c-.135.5-2.237,1.707-5.223,1.773s-17.854-.478-18.924-1.122a2.655,2.655,0,0,1-.237-4.062c1.38-1.494,6.659-3.215,8.632-3.874A45.5,45.5,0,0,0,1228.37,825.5Z" transform="translate(-1212.61 -811.685)" fill="#301e17"/>
        <path id="Path_8887" data-name="Path 8887" d="M1237.128,839a67.938,67.938,0,0,1-12.185,1.245,33.623,33.623,0,0,1-7.339-.287,6.524,6.524,0,0,1,1.2-4.4c.242-.337-.242-.773-.486-.433a7.215,7.215,0,0,0-1.376,4.7,14.462,14.462,0,0,1-2.853-.941c-.381-.173-.677.406-.3.58,3.361,1.53,7.01,1.586,10.637,1.453a70.826,70.826,0,0,0,12.906-1.3C1237.746,839.527,1237.534,838.911,1237.128,839Z" transform="translate(-1212.996 -815.82)" fill="#fff"/>
        <path id="Path_8888" data-name="Path 8888" d="M1228.71,833.243a.357.357,0,0,0-.229-.187.312.312,0,0,0-.464.128.361.361,0,0,0-.113.33.338.338,0,0,0,.344.306.4.4,0,0,0,.189-.047.4.4,0,0,0,.246-.133A.337.337,0,0,0,1228.71,833.243Z" transform="translate(-1218.472 -815.051)" fill="#fff"/>
        <path id="Path_8889" data-name="Path 8889" d="M1234.174,830.38a.343.343,0,0,0-.179.029c-.009,0-.017,0-.026,0l-.075.025a.293.293,0,0,0-.2.358.449.449,0,0,0,.714.379A.458.458,0,0,0,1234.174,830.38Z" transform="translate(-1220.691 -814.048)" fill="#fff"/>
      </g>
      <path id="Path_8890" data-name="Path 8890" d="M1260.755,602.888a22.068,22.068,0,0,0-4.86-4.516c-2.143-1.669-4.068-3.442-5.02-6.062-.966-2.658-1.05-5.532-1.5-8.3-.825-5.085-3.458-9.023-8.588-10.478-5.446-1.545-16.71,1.113-16.71,1.113s-.4,21.849-.385,23.624c.247,21.7,2.6,43.382,4.164,65.018q1.652,22.852,3.331,45.7c.038.515.693,9.763.715,9.762,0,0,8.871-.511,13.261-1.181,1.541-.235,3.077-.5,4.606-.8.425-.084,3.932-.516,3.905-.98,0,0-.128-23.268,1.605-35.075,1.242-8.465,4.193-35.634,3.454-41.764-1.451-12.038,4.446-16.946,4.044-28.922A13.136,13.136,0,0,0,1260.755,602.888Z" transform="translate(-1216.859 -573.051)" fill="#bd8053"/>
    </g>
    <path id="Path_8891" data-name="Path 8891" d="M1280.562,490.1c-3.343-25.256-2.846-26.039-2.846-26.039s-9.453-9.206-12.087-8.791c-3.6.567-6.6,2.646-9.215,5.083-3.1,2.881-5.841,6.071-9.1,8.783-3,2.5-6.174,4.786-9.162,7.3a38.369,38.369,0,0,0-7.8,8.431c-2.291,3.57-3.416,7.648-4.368,11.742a229.417,229.417,0,0,0-4.807,29.176,231.741,231.741,0,0,0-.867,33.766.324.324,0,0,0,.318.319,227.532,227.532,0,0,0,33.122-3.409q8.407-1.5,16.684-3.63c2.567-.662,15.4-.75,15.451-2.682C1285.958,547.354,1282.023,501.144,1280.562,490.1Z" transform="translate(-1156.382 -397.542)" fill="#2c2c3b"/>
    <path id="Path_8892" data-name="Path 8892" d="M1284.469,495.525s-23.094,5.6-26.171,6.308q-2.928.667-5.821,1.454c-.429.111-.848.232-1.275.35-1.4.395-2.807.816-4.2,1.247-2.474.773-13.179,4.3-13.187,4.082q-.506-.412-.935-.766a21.109,21.109,0,0,1-2.2-1.916,5.39,5.39,0,0,1-1.117-1.675,6.929,6.929,0,0,1-.382-1.13,23.167,23.167,0,0,1-.545-2.784,11.115,11.115,0,0,1,.13-3.916,13.372,13.372,0,0,0,.316-4.4c-.142-1.26-.334-2.527-.509-3.784a34.561,34.561,0,0,1-.441-6.258c.071-1.716.317-3.414.545-5.1a33.967,33.967,0,0,0,.443-6.109c-.013-.3-.028-.609-.055-.913-.481-6.884-2.9-13.618-.2-20.384a15.611,15.611,0,0,1,5.22-6.865,18.178,18.178,0,0,1,1.98-1.26,60.6,60.6,0,0,1,14.89-5.292c10.435-2.546,25.231,3.725,28.953,15.276,1.351,4.193,1.363,6.721,1.874,11.081C1282.213,466.485,1284.469,495.525,1284.469,495.525Z" transform="translate(-1159.276 -390.102)" fill="#2c2c3b"/>
    <path id="Path_8893" data-name="Path 8893" d="M1201.834,515.365s5.206,13.1,1.379,15.773-7.018.759-11.687-5.668c-3.46-4.758-15.808-25.853-15.808-25.853l5.485-6.813Z" transform="translate(-1139.381 -411.939)" fill="#ffa87d"/>
    <path id="Path_8894" data-name="Path 8894" d="M1229.429,443.578l0-.006s-.2.071-.548.214c-.377.15-.928.378-1.6.687-2.943,1.329-8.164,4.107-10.82,7.936-1.968,2.843-5.333,10.187-8.2,17.027-.371.894-.737,1.781-1.1,2.644-1.038,2.546-1.966,4.916-2.681,6.838a54.367,54.367,0,0,0,5.12,19.93,56.683,56.683,0,0,0,7.339,12.032,38.55,38.55,0,0,0,3.483-3.043c.09-.088.18-.174.268-.268.294-.3.592-.6.893-.917a40.525,40.525,0,0,0,8.692-13.678C1233.823,483.212,1229.506,444.288,1229.429,443.578Z" transform="translate(-1150.411 -393.062)" fill="#2c2c3b"/>
    <g id="Group_3993" data-name="Group 3993" transform="translate(24.868 66.519)">
      <path id="Path_8895" data-name="Path 8895" d="M1157.37,473.913c.605,1.91,4.35,7.127,4.122,6.944-.664-.533-2.934-4.858-3.305-3.315-.335,1.393,1.211,4.244,2.577,5.991,1.819,2.325,7.821,7.159,7.821,7.159s5.99-1.265,5.777-4c.19-1.6,1.776-1.574-.348-5.527a24.115,24.115,0,0,0-3.358-4.492,22.432,22.432,0,0,1-1.557-1.766,12.539,12.539,0,0,0-1.34-1.694c-1-.509-1.469.3-1.244,1.271a4.489,4.489,0,0,0,1,1.691c.687.879,1.292,1.658,1.821,2.477a39.522,39.522,0,0,1-3.265-3.75c-.873-1.2-3.2-4.957-4.693-5.313-.8-.192-1.015.174-1,.956-1.278-.921-2.7-.677-1.987,1.382.013.038.032.077.046.115C1157.045,471.538,1156.874,472.35,1157.37,473.913Z" transform="translate(-1157.117 -469.538)" fill="#ffa87d"/>
      <path id="Path_8896" data-name="Path 8896" d="M1163.492,472.562a51.6,51.6,0,0,0,4.715,6.54c.351.415-.127.878-.48.461a53.018,53.018,0,0,1-4.848-6.724C1162.6,472.376,1163.211,472.1,1163.492,472.562Z" transform="translate(-1159.299 -470.606)" fill="#f18c4d"/>
      <path id="Path_8897" data-name="Path 8897" d="M1160.362,474.339l4.684,6.354c.319.433-.158.9-.481.461l-4.683-6.354C1159.563,474.368,1160.039,473.9,1160.362,474.339Z" transform="translate(-1158.136 -471.311)" fill="#f18c4d"/>
      <path id="Path_8898" data-name="Path 8898" d="M1161.785,484q.513.911,1.089,1.792c.276.423,1.121,1.265.422,1.4-.422.085-.848-.852-1.068-1.188-.371-.567-.725-1.144-1.056-1.731C1160.906,483.8,1161.518,483.524,1161.785,484Z" transform="translate(-1158.646 -474.988)" fill="#f18c4d"/>
    </g>
    <path id="Path_8899" data-name="Path 8899" d="M1298.181,615.6l-11.921,21.111q.411-3.5.766-7c.041-.407-.6-.4-.637,0q-.419,4.218-.934,8.425l-.257.456a.307.307,0,0,0,.152.44q-1.761,14.255-4.557,28.358c-.079.4.534.571.614.169q2.879-14.516,4.662-29.213l12.663-22.426A.319.319,0,0,0,1298.181,615.6Z" transform="translate(-1179.669 -458.968)" fill="#ab6b3c"/>
    <path id="Path_8900" data-name="Path 8900" d="M1252.13,786.1a50.756,50.756,0,0,1-17.019-19.43c-.183-.366-.733-.044-.55.322a51.389,51.389,0,0,0,17.247,19.657C1252.149,786.882,1252.468,786.331,1252.13,786.1Z" transform="translate(-1161.93 -516.893)" fill="#ab6b3c"/>
    <path id="Path_8901" data-name="Path 8901" d="M1259.722,789.331a58.052,58.052,0,0,1-9.321-10.32c-.234-.332-.787-.015-.549.321a58.74,58.74,0,0,0,9.42,10.449C1259.58,790.05,1260.032,789.6,1259.722,789.331Z" transform="translate(-1167.785 -521.632)" fill="#ab6b3c"/>
    <path id="Path_8902" data-name="Path 8902" d="M1299.94,748.269a141.655,141.655,0,0,1-17.759-26.477c-.189-.364-.739-.043-.55.321a142.4,142.4,0,0,0,17.859,26.606C1299.755,749.032,1300.2,748.579,1299.94,748.269Z" transform="translate(-1179.978 -499.684)" fill="#ab6b3c"/>
    <path id="Path_8903" data-name="Path 8903" d="M1243.778,465.891a123.371,123.371,0,0,1-13.656,46.45c-.191.362.359.685.55.321a124.192,124.192,0,0,0,13.742-46.771C1244.45,465.483,1243.813,465.485,1243.778,465.891Z" transform="translate(-1160.227 -401.503)" fill="#1a1a29"/>
    <path id="Path_8904" data-name="Path 8904" d="M1243.7,456.232c-.027-.407-.664-.41-.637,0a97.146,97.146,0,0,1-1.905,26.678c-.085.4.528.571.614.17A97.78,97.78,0,0,0,1243.7,456.232Z" transform="translate(-1164.471 -397.799)" fill="#1a1a29"/>
    <path id="Path_8905" data-name="Path 8905" d="M1295.832,530.588a352.276,352.276,0,0,1-7.62,43.543c-.1.4.518.568.614.169a353.465,353.465,0,0,0,7.642-43.712C1296.514,530.181,1295.876,530.184,1295.832,530.588Z" transform="translate(-1182.513 -426.311)" fill="#1a1a29"/>
    <path id="Path_8906" data-name="Path 8906" d="M1282.332,585.252l-4.4,11.694c-.144.384.47.55.614.169l4.4-11.694C1283.091,585.037,1282.476,584.872,1282.332,585.252Z" transform="translate(-1178.566 -447.306)" fill="#1a1a29"/>
    <path id="Path_8907" data-name="Path 8907" d="M1224.421,370.3c-3.019-1.492-4.613,1.932-6.074,3.882-1,1.339-2.714,1.7-3.677,3.033-1.069,1.478-1.009,3.377-.921,5.111.02.4.637.4.617,0-.086-1.7-.208-3.716,1.059-5.064.707-.752,1.753-1.035,2.522-1.712,1.762-1.55,3.056-6.254,6.163-4.718C1224.464,371.012,1224.777,370.481,1224.421,370.3Z" transform="translate(-1153.947 -364.827)" fill="#4d3025"/>
    <path id="Path_8908" data-name="Path 8908" d="M1222.336,380.651a6.821,6.821,0,0,0-5,5.162c-.084.387.51.552.594.164a6.212,6.212,0,0,1,4.565-4.731A.308.308,0,0,0,1222.336,380.651Z" transform="translate(-1155.338 -368.931)" fill="#4d3025"/>
    <path id="Path_8909" data-name="Path 8909" d="M1236.625,391.843a3.042,3.042,0,0,0-1.431-.613c-.211-.027-.423.009-.633,0a2.932,2.932,0,0,1-2.122-.659c-2.225-1.7-4.222.289-5.5,2.12-.228.326.307.635.532.311.822-1.179,2.064-2.9,3.772-2.426.743.207,1.2,1,1.914,1.269.759.281,1.575-.225,2.326.075,1.508.6,2,2.094,2.286,3.542.078.388.672.224.594-.164A5.457,5.457,0,0,0,1236.625,391.843Z" transform="translate(-1159.002 -372.492)" fill="#4d3025"/>
    <path id="Path_8910" data-name="Path 8910" d="M1234.41,383.581a3.373,3.373,0,0,0-5.025,1.118c-.193.347.34.659.532.311a2.76,2.76,0,0,1,4.182-.9C1234.419,384.349,1234.726,383.814,1234.41,383.581Z" transform="translate(-1159.944 -369.795)" fill="#4d3025"/>
  </g>
</svg>
