<svg xmlns="http://www.w3.org/2000/svg" width="186.5" height="340.836" viewBox="0 0 186.5 340.836">
  <g id="Group_3716" data-name="Group 3716" transform="translate(-720.254 -148.142)">
    <g id="Group_3695" data-name="Group 3695" transform="translate(766.392 251.825)">
      <g id="Group_3691" data-name="Group 3691" transform="translate(44.128 59.836)">
        <path id="Path_8116" data-name="Path 8116" d="M945.6,557.549c-1.963-3.785-2.944-5.468-4.205-7.71,5.62-3.018,36.01.908,43.039,3.645l-5.047,7.991C971.371,559.279,950.629,556.39,945.6,557.549Z" transform="translate(-941.399 -548.749)" fill="#5b554f"/>
        <path id="Path_8117" data-name="Path 8117" d="M1022.864,563.754a2.705,2.705,0,1,0,2.705-2.705A2.705,2.705,0,0,0,1022.864,563.754Z" transform="translate(-989.612 -556.029)" fill="#5b554f"/>
        <path id="Path_8118" data-name="Path 8118" d="M949.013,556.18a2.705,2.705,0,1,0,2.705-2.706A2.706,2.706,0,0,0,949.013,556.18Z" transform="translate(-945.905 -551.546)" fill="#5b554f"/>
      </g>
      <g id="Group_3694" data-name="Group 3694" transform="translate(0 0)">
        <g id="Group_3692" data-name="Group 3692" transform="translate(4.275 0.369)">
          <path id="Path_8119" data-name="Path 8119" d="M843.761,405.929l1.13,1.853,32.237,52.886,10.611,17.41,3.516,5.768.776,1.275,1.468,2.408,7.5,12.308,3.348,5.493.568.933,1.579,2.592,65.465,107.4,4.039.656-67.349-111.8-1.564-2.6-.586-.971-3.356-5.573L895.873,483.9l-1.453-2.414-.793-1.315-3.526-5.854-1.18-1.957-1.1-1.819-1.075-1.785-2.533-4.2-2.274-3.775-31.924-53-1.362-2.262-.261-.431Z" transform="translate(-843.761 -404.26)" fill="#7a5e3f"/>
          <path id="Path_8120" data-name="Path 8120" d="M850.975,404.756l1.118,1.825,32.471,52.979,9.048,14.764,3.548,5.787.793,1.294,1.47,2.4,7.387,12.054,3.377,5.51.585.955,1.581,2.577L980.271,615.71l3.847-3.811L916.44,497.809l-1.548-2.607-.612-1.035-3.38-5.7-6.908-11.646-1.438-2.425-.816-1.377-1.027-1.727-2.523-4.254-2.675-4.51-1.867-3.146-31.322-52.8-2.08-3.507-1.682-.015-5.636,1.26Z" transform="translate(-848.031 -403.059)" fill="#9e7a4a"/>
        </g>
        <g id="Group_3693" data-name="Group 3693">
          <path id="Path_8121" data-name="Path 8121" d="M843.669,611.023l3.964-1.132L879.9,553.91l.111-.2,1.518-2.631.063-.113.458-.793,3.282-5.695.074-.128,1.556-2.7,19.481-33.8,1.588-2.756.568-.986,3.518-6.1,31.634-54.888s0,0,0,0l20.943-36.338,1.616-2.807-4.665-.577-.24.423-1.683,2.96-22.8,40.128-11.456,20.16-4.652,8.187-10.857,19.108v0l-3.51,6.174-.583,1.024-1.569,2.763L883.569,540.8l-.336.593-1.609,2.83-1.409,2.478v0l-.471.828-1.567,2.76-.3.536-1.608,2.83Z" transform="translate(-839.432 -402.891)" fill="#7a5e3f"/>
          <path id="Path_8122" data-name="Path 8122" d="M833.288,609.156l4.237,1.131,33.169-57.323,1.636-2.828.007-.013,1.581-2.733.473-.816,1.756-3.037,1.623-2.8.015-.025,20.934-36.182,1.585-2.741.585-1.008,3.535-6.111,28.8-49.782h0L955.7,406.047l1.526-2.639-1.966-.321-5.686-.93-1.68.1-2.1,3.8L921.149,450.54h0L913.2,464.886l-1.5,2.7-1.018,1.84-2.1,3.79-8.151,14.716-3.486,6.3v0l-.6,1.087L894.8,498.1l-20.211,36.486-3.148,5.681-.2.354v0l-.492.888-.882,1.592-.662,1.194-3,5.415-1.569,2.835Z" transform="translate(-833.288 -402.156)" fill="#9e7a4a"/>
        </g>
      </g>
    </g>
    <g id="Group_3701" data-name="Group 3701" transform="translate(720.656 269.78)">
      <g id="Group_3698" data-name="Group 3698" transform="translate(0 0)">
        <g id="Group_3696" data-name="Group 3696" transform="translate(15.688)">
          <path id="Path_8123" data-name="Path 8123" d="M759.673,447.934l11.284,21.058,40.705,75.961,2.959,5.52.517.966,1.4,2.615,6.78,12.649,1.636,3.055.692,1.289,2.82,5.261.3.566.006.013,1.523,2.843.113.212,46.049,85.931,3.3.187-45.3-85.837-1.611-3.052-.516-.978-1.514-2.869-.32-.605-1.411-2.675-1.412-2.673-.2-.38-8.665-16.416-1.388-2.631-.53-1-2.96-5.613-12.056-22.841-.738-1.4-1.739-3.293-1.756-3.331L777.774,472.8l-13.191-25-.236-.445Z" transform="translate(-759.673 -446.862)" fill="#7a5e3f"/>
          <path id="Path_8124" data-name="Path 8124" d="M766.87,447.411l12.5,23.26,21.239,39.511,4.174,7.763,12.75,23.721,2.984,5.55.53.986,1.4,2.609,8.275,15.393.721,1.34.921,1.715,1.922,3.573.318.592,1.529,2.845.065.121,1.643,3.054,46.175,85.9,3.953-2.71-42.7-82.673-1.575-3.049-3.677-7.118-.07-.139-1.491-2.885-.015-.028-.33-.639-2.833-5.482L826.8,544.182l-1.366-2.646-.551-1.067-2.971-5.754-8.663-16.777-4.528-8.765-16.846-32.616-15.65-30.3-1.678-.111-5.7.94Z" transform="translate(-763.932 -446.146)" fill="#c69e63"/>
        </g>
        <g id="Group_3697" data-name="Group 3697" transform="translate(0 5.377)">
          <path id="Path_8125" data-name="Path 8125" d="M731,661.995l3.586-.44L783.951,586.2l1.844-2.816,4.3-6.569L791.942,574l7.629-11.648,1.655-2.526.624-.952,3.718-5.676v0l21.2-32.355,1.655-2.525.719-1.1,3.85-5.875,3.194-4.877,5.4-8.248,5.319-8.117,18.261-27.878-4.626-.841-.263.408-19.166,29.68-4.033,6.247-5.34,8.269-1,1.554-3.842,5.949-.736,1.14-1.636,2.533-3.455,5.35-5.2,8.055-12.216,18.92-3.718,5.757-.639.991-1.64,2.54L788,573.728l-1.819,2.816-4.243,6.574-1.82,2.818Z" transform="translate(-727.017 -460.538)" fill="#7a5e3f"/>
          <path id="Path_8126" data-name="Path 8126" d="M721.239,659.7l3.985,1.071,49.923-76.005L777,581.957l4.314-6.569,1.849-2.814,9.234-14.055v0L794.045,556l.639-.974,3.74-5.693,12.918-19.666L814.408,525l5.112-7.783,1.653-2.514.736-1.119v0l3.865-5.884,1.819-2.77,5.421-8.254,4.542-6.914L856.444,461l-1.945-.433-5.625-1.249h-1.682l-20.366,32.4-2.661,4.231-2.756,4.384-2.526,4.021-1.293,2.055v0l-.758,1.2-1.6,2.553-6.079,9.672-5.175,8.235L794.9,542.511l-3.707,5.9-.663,1.054-1.615,2.569L776.305,572.1l-1.773,2.82L770.4,581.5l-1.773,2.82Z" transform="translate(-721.239 -459.318)" fill="#c69e63"/>
        </g>
      </g>
      <g id="Group_3699" data-name="Group 3699" transform="translate(52.212 63.028)">
        <path id="Path_8127" data-name="Path 8127" d="M853.36,609.357c-1.963-3.784-2.944-5.467-4.206-7.711,5.621-3.018,36.01.908,43.039,3.645l-5.047,7.991C879.126,611.087,858.384,608.2,853.36,609.357Z" transform="translate(-849.154 -600.558)" fill="#c1b8ac"/>
        <path id="Path_8128" data-name="Path 8128" d="M930.619,615.562a2.705,2.705,0,1,0,2.705-2.705A2.705,2.705,0,0,0,930.619,615.562Z" transform="translate(-897.367 -607.837)" fill="#5b554f"/>
        <path id="Path_8129" data-name="Path 8129" d="M856.769,607.988a2.705,2.705,0,1,0,2.7-2.7A2.7,2.7,0,0,0,856.769,607.988Z" transform="translate(-853.661 -603.354)" fill="#5b554f"/>
      </g>
      <g id="Group_3700" data-name="Group 3700" transform="translate(17.938 116.58)">
        <path id="Path_8130" data-name="Path 8130" d="M767.144,744.472c-2.175,1.656-2.6,3.091-.959,3.206l81.348,5.631c1.651.114,4.7-1.138,6.8-2.8l3.81-3c2.1-1.658,2.475-3.094.831-3.208l-80.983-5.62c-1.639-.114-4.73,1.136-6.905,2.793Z" transform="translate(-765.185 -735.85)" fill="#7a5e3f"/>
        <path id="Path_8131" data-name="Path 8131" d="M771.456,737.556c-2.177,1.656-2.609,3.091-.966,3.205l81.233,5.628c1.649.114,4.692-1.138,6.8-2.8l3.812-3c2.1-1.658,2.48-3.094.838-3.208L782.3,731.764c-1.636-.113-4.727,1.137-6.9,2.793Z" transform="translate(-767.734 -731.756)" fill="#c69e63"/>
      </g>
    </g>
    <path id="Path_8132" data-name="Path 8132" d="M1048.539,456.181q4.953-1.975,9.629-4.366,1.237-.628,2.449-1.289h0q2.224-1.2,4.376-2.5s0,0,0,0l20.943-36.338h-12.758Z" transform="translate(-194.287 -155.973)" fill="#444" opacity="0.7" style="mix-blend-mode: multiply;isolation: isolate"/>
    <path id="Path_8133" data-name="Path 8133" d="M1000.283,459.318l-20.366,32.4q4.312-.59,8.508-1.474,1.117-.233,2.222-.49,1.8-.414,3.572-.88L1012.48,461l-4.627-.841-.263.408-5.625-1.249Z" transform="translate(-153.674 -184.161)" fill="#444" opacity="0.7" style="mix-blend-mode: multiply;isolation: isolate"/>
    <path id="Path_8134" data-name="Path 8134" d="M846.529,411.688l32.237,52.885q1.577.069,3.167.093c.549.011,1.1.017,1.648.017.147,0,.293,0,.44,0q3.523,0,6.994-.193l-31.322-52.8Z" transform="translate(-74.732 -155.973)" fill="#444" opacity="0.7" style="mix-blend-mode: multiply;isolation: isolate"/>
    <path id="Path_8135" data-name="Path 8135" d="M759.673,447.218l11.284,21.058q2.046,1.238,4.158,2.4,1.318.722,2.66,1.411,4.767,2.448,9.835,4.475l-15.65-30.3-1.678-.111-5.7.939-.236-.445Z" transform="translate(-23.329 -176.366)" fill="#444" opacity="0.7" style="mix-blend-mode: multiply;isolation: isolate"/>
    <path id="Path_8136" data-name="Path 8136" d="M798.121,408.226l98.8,3.21.946,1.577-25.234,11.671-121.021-4.647Z" transform="translate(-18.558 -153.924)" fill="#232322"/>
    <g id="Group_3715" data-name="Group 3715" transform="translate(720.254 148.142)">
      <path id="Path_8137" data-name="Path 8137" d="M870.565,439.825l-106.406-4.206-8.411-7.991H869.724Z" transform="translate(-741.26 -313.549)" fill="#7a5e3f"/>
      <g id="Group_3702" data-name="Group 3702" transform="translate(2.845 104.955)">
        <path id="Path_8138" data-name="Path 8138" d="M738.861,431.5l8.412,10.935-11.455.125-8.593-7.771Z" transform="translate(-727.224 -420.793)" fill="#b28b57"/>
        <path id="Path_8139" data-name="Path 8139" d="M758.818,426.912l46.266-17.223-6.624-4.416-51.728,10.092Z" transform="translate(-738.769 -405.273)" fill="#7a5e3f"/>
      </g>
      <g id="Group_3703" data-name="Group 3703" transform="translate(117.734 107.478)">
        <path id="Path_8140" data-name="Path 8140" d="M1020.883,442.314l8.412,10.935-11.455.125-9.147-9.778Z" transform="translate(-1008.693 -429.718)" fill="#b28b57"/>
        <path id="Path_8141" data-name="Path 8141" d="M1041.643,434.986l38.065-15.015,2.839-8.516-52.99,11.986Z" transform="translate(-1021.041 -411.454)" fill="#7a5e3f"/>
      </g>
      <g id="Group_3704" data-name="Group 3704" transform="translate(169.254)">
        <path id="Path_8142" data-name="Path 8142" d="M1134.913,148.562V255.389s.774.12,1.762.2c.244.021.5.04.761.052,1.5.074,3.142,0,3.365-.673.406-1.219,1.991-99.876,2.1-106.479,0-.229.006-.347.006-.347Z" transform="translate(-1134.913 -148.142)" fill="#c69e63"/>
        <path id="Path_8143" data-name="Path 8143" d="M1134.913,148.562v86.113l1.762,20.913c.244.021.5.04.761.052v-105.4l5.461-1.756c0-.229.006-.347.006-.347Z" transform="translate(-1134.913 -148.142)" fill="#e8ba7c"/>
      </g>
      <g id="Group_3705" data-name="Group 3705" transform="translate(10.6 65.212)">
        <path id="Path_8144" data-name="Path 8144" d="M753.165,307.9c-.429,23.473-.868,44.837-1.055,45.4-.223.671-1.869.746-3.365.673-.26-.013-.517-.032-.76-.053-.989-.08-1.763-.2-1.763-.2V307.9Z" transform="translate(-746.222 -307.905)" fill="#c69e63"/>
        <path id="Path_8145" data-name="Path 8145" d="M748.745,307.9v46.073c-.26-.013-.517-.032-.76-.053l-1.763-20.913V307.9Z" transform="translate(-746.222 -307.905)" fill="#e8ba7c"/>
      </g>
      <g id="Group_3706" data-name="Group 3706" transform="translate(52.423 3.145)">
        <path id="Path_8146" data-name="Path 8146" d="M852.61,155.947,848.687,256s.72.141,1.643.252c.228.029.467.056.711.077,1.4.124,2.943.114,3.176-.506.424-1.128,5.532-93.474,5.874-99.654.012-.215.018-.325.018-.325Z" transform="translate(-848.687 -155.846)" fill="#c69e63"/>
        <path id="Path_8147" data-name="Path 8147" d="M853.713,155.947,850.55,236.6l.882,19.652c.228.029.467.056.711.077l3.871-98.716,5.179-1.444c.012-.215.018-.325.018-.325Z" transform="translate(-849.79 -155.846)" fill="#e8ba7c"/>
      </g>
      <path id="Path_8148" data-name="Path 8148" d="M796.064,405.717a90.425,90.425,0,0,1,17.348-.63c12.126.576,33.742,1.767,43.528,1.261,13.791-.713,42.9,1.577,42.9,1.577l.947,1.578-26.145,11.755-118.631-4.186Z" transform="translate(-741.414 -300.132)" fill="#444"/>
      <g id="Group_3707" data-name="Group 3707" transform="translate(0 56.163)">
        <path id="Path_8149" data-name="Path 8149" d="M723.519,296.566l.036,0,11.742.528.366.016,6.438.292,40.414-9.622v-.919l-3.338-1.125s-3.234.38-8.089.965c-12.567,1.518-35.994,4.419-42.263,5.7a6.055,6.055,0,0,0-1.542.431,18.312,18.312,0,0,0-1.447,1.292c-1.014.989-1.974,2.055-2.242,2.357C723.544,296.537,723.519,296.566,723.519,296.566Z" transform="translate(-722.186 -285.737)" fill="#c69e63"/>
        <path id="Path_8150" data-name="Path 8150" d="M725.214,305.671a34.106,34.106,0,0,1,9.416,1.128l-3.337,7.827a50.363,50.363,0,0,1-11.039-1.887C721.092,310.158,721.527,305.742,725.214,305.671Z" transform="translate(-720.254 -297.53)" fill="#e8ba7c"/>
        <path id="Path_8151" data-name="Path 8151" d="M796.587,295.6,747.3,305.549s1.792-6.224,3.337-7.827c1.371-1.425,37.828-6.319,45.952-7.395Z" transform="translate(-736.259 -288.454)" fill="#b28b57"/>
      </g>
      <g id="Group_3708" data-name="Group 3708" transform="translate(2.845 96.463)">
        <path id="Path_8152" data-name="Path 8152" d="M790.406,385.274l-7.541-.805-54.644,12.394,16.114,2.311Z" transform="translate(-727.814 -384.469)" fill="#c69e63"/>
        <path id="Path_8153" data-name="Path 8153" d="M740.1,415.566l-12.467-.732-.407,10.091,9.948.379Z" transform="translate(-727.224 -402.439)" fill="#e8ba7c"/>
        <path id="Path_8154" data-name="Path 8154" d="M803.506,394.007l.734-7.566-52.462,12.051L751.6,408.5Z" transform="translate(-741.648 -385.636)" fill="#b28b57"/>
      </g>
      <g id="Group_3709" data-name="Group 3709" transform="translate(133.927 66.789)">
        <path id="Path_8155" data-name="Path 8155" d="M1055.309,311.769c-.429,23.474-.869,44.836-1.056,45.4-.223.671-1.869.746-3.364.673-.261-.012-.517-.031-.762-.053-.988-.08-1.762-.2-1.762-.2V311.769Z" transform="translate(-1048.365 -311.769)" fill="#c69e63"/>
        <path id="Path_8156" data-name="Path 8156" d="M1050.889,311.769v46.073c-.261-.012-.517-.031-.762-.053l-1.762-20.913V311.769Z" transform="translate(-1048.365 -311.769)" fill="#e8ba7c"/>
      </g>
      <g id="Group_3710" data-name="Group 3710" transform="translate(125.546 54.956)">
        <path id="Path_8157" data-name="Path 8157" d="M1030.156,296.518h.032l10.188-.088.317,0,5.587-.048,35.881-12.194.007,0-4.345-1.4s-.339.068-.955.187l0,0c-4.868.967-27.015,5.388-37.764,7.943-3.344.795-5.585,1.409-5.858,1.682a17.4,17.4,0,0,0-1.192,1.366c-.827,1.034-1.605,2.143-1.829,2.466C1030.178,296.487,1030.156,296.518,1030.156,296.518Z" transform="translate(-1029.207 -282.779)" fill="#c69e63"/>
        <path id="Path_8158" data-name="Path 8158" d="M1031.8,309.262a25.7,25.7,0,0,1,8.2.631l-2.523,7.991a38.128,38.128,0,0,1-9.641-1.3C1028.437,313.959,1028.608,309.527,1031.8,309.262Z" transform="translate(-1027.832 -298.398)" fill="#e8ba7c"/>
        <path id="Path_8159" data-name="Path 8159" d="M1094.772,286.212s-39.534,8.412-40.8,10.094-2.523,7.991-2.523,7.991l42.478-12.617Z" transform="translate(-1041.812 -284.811)" fill="#b28b57"/>
      </g>
      <g id="Group_3711" data-name="Group 3711" transform="translate(124.673 99.466)">
        <path id="Path_8160" data-name="Path 8160" d="M1083.556,392.583l-6.937-.757-50.154,12.743,14.825,2.207Z" transform="translate(-1026.15 -391.826)" fill="#c69e63"/>
        <path id="Path_8161" data-name="Path 8161" d="M1037.471,423.7l-11.463-.652-.315,10.093,9.147.316Z" transform="translate(-1025.693 -410.303)" fill="#e8ba7c"/>
        <path id="Path_8162" data-name="Path 8162" d="M1095.731,401.25l.631-7.569-48.151,12.386-.107,10.009Z" transform="translate(-1038.955 -392.924)" fill="#b28b57"/>
      </g>
      <g id="Group_3714" data-name="Group 3714" transform="translate(54.009 4.601)">
        <path id="Path_8163" data-name="Path 8163" d="M852.571,202.923s117.944,5.539,123.656,1.1c3.15-2.451-2.315-30.569.216-39.852.631-2.313.8-4.057-.21-4.416-2.523-.9-7.572.265-7.572.265s-3.252.185-8.63.465c-22.146,1.153-80.346,3.922-96.1,2.061-14.708-1.739-9.871,1.836-9.871,1.836l-.8,20.716Z" transform="translate(-852.571 -159.413)" fill="#444"/>
        <path id="Path_8172" data-name="Path 8172" d="M852.571,202.923s117.944,5.539,123.656,1.1c3.15-2.451-2.315-30.569.216-39.852.631-2.313.8-4.057-.21-4.416-2.523-.9-7.572.265-7.572.265s-3.252.185-8.63.465c2.469,5.282,2.509,11.291-1.672,17.519-7.141,10.64-19.715,13.574-31.753,15.187-18.84,2.523-40.159,2.62-58.513-2.776a140.956,140.956,0,0,1-14.834-5.318Z" transform="translate(-852.571 -159.413)" fill="#444" opacity="0.7" style="mix-blend-mode: multiply;isolation: isolate"/>
      </g>
      <path id="Path_8173" data-name="Path 8173" d="M736.52,293.8c16.372-.352,31.141-2.457,42.263-5.7C766.216,289.619,742.789,292.52,736.52,293.8Z" transform="translate(-729.881 -230.973)" fill="#ffe088" opacity="0.7" style="mix-blend-mode: color-dodge;isolation: isolate"/>
      <path id="Path_8174" data-name="Path 8174" d="M1052.065,291.186c15.451-1.252,28.729-4.108,37.764-7.943C1084.96,284.21,1062.814,288.631,1052.065,291.186Z" transform="translate(-916.627 -228.098)" fill="#ffe088" opacity="0.7" style="mix-blend-mode: color-dodge;isolation: isolate"/>
    </g>
  </g>
</svg>
