<svg xmlns="http://www.w3.org/2000/svg" width="212.758" height="155.331" viewBox="0 0 212.758 155.331">
  <g id="Group_2556" data-name="Group 2556" transform="translate(-35.496 -29.829)">
    <g id="Group_2550" data-name="Group 2550" transform="translate(143.695 90.246)">
      <g id="Group_2540" data-name="Group 2540" transform="translate(36.457 0)">
        <path id="Path_6331" data-name="Path 6331" d="M186.145,161.8a1.212,1.212,0,0,1-.418,1.661h0a1.212,1.212,0,0,1-1.661-.419l-55.28-92.491a1.21,1.21,0,0,1,.418-1.661h0a1.21,1.21,0,0,1,1.661.418Z" transform="translate(-128.614 -68.72)" fill="#ff9d33"/>
      </g>
      <g id="Group_2541" data-name="Group 2541" transform="translate(59.562 58.241)">
        <path id="Path_6332" data-name="Path 6332" d="M145.628,142.705a1.309,1.309,0,0,1-1.738-.475h0a1.307,1.307,0,0,1-.082-1.8l42.537-34.041a1.309,1.309,0,0,1,1.738.475h0a1.307,1.307,0,0,1,.082,1.8Z" transform="translate(-143.487 -106.211)" fill="#ff9d33"/>
      </g>
      <g id="Group_2542" data-name="Group 2542" transform="translate(52.254 85.481)">
        <path id="Path_6333" data-name="Path 6333" d="M175.886,125.348a1.6,1.6,0,0,1-1.6,1.6h-33.9a1.6,1.6,0,0,1-1.6-1.6h0a1.6,1.6,0,0,1,1.6-1.6h33.9a1.6,1.6,0,0,1,1.6,1.6Z" transform="translate(-138.783 -123.746)" fill="#ff9d33"/>
      </g>
      <g id="Group_2543" data-name="Group 2543" transform="translate(5.393 7.313)">
        <path id="Path_6334" data-name="Path 6334" d="M138.429,129.208c10.573,8.651,26.5,3.017,36.7-4.724a26.851,26.851,0,0,1-5.184-.666c-3.429-1.285-14.469-8.51-19.979-24.49-4.43-12.846-7.9-25.9-7.9-25.9H108.618s.868,3.848,2.271,9.526C117.387,100.2,122.242,118.418,138.429,129.208Z" transform="translate(-108.618 -73.428)" fill="#f73e3e"/>
      </g>
      <g id="Group_2544" data-name="Group 2544" transform="translate(7.664 16.839)">
        <path id="Path_6335" data-name="Path 6335" d="M174.322,121.09c-10.2,7.741-24.023,12.1-34.6,3.453C123.539,113.752,116.578,96.81,110.08,79.56c3.345,13.54,9.731,37.488,14.649,44.476,6.98,9.919,25.348,12.491,31.776,11.388s26.266-2.021,31.776-3.857,16.917-9.548,16.917-9.548S184.471,121.822,174.322,121.09Z" transform="translate(-110.08 -79.56)" fill="#d83232"/>
      </g>
      <g id="Group_2545" data-name="Group 2545" transform="translate(5.394 5.85)">
        <path id="Path_6336" data-name="Path 6336" d="M146.825,75.412H108.618V72.486h36.457Z" transform="translate(-108.618 -72.486)" fill="#d83232"/>
      </g>
      <g id="Group_2549" data-name="Group 2549" transform="translate(0 0)">
        <g id="Group_2546" data-name="Group 2546">
          <path id="Path_6337" data-name="Path 6337" d="M162.677,161.8a1.212,1.212,0,0,1-.418,1.661h0a1.212,1.212,0,0,1-1.661-.419l-55.28-92.491a1.21,1.21,0,0,1,.418-1.661h0a1.21,1.21,0,0,1,1.661.418Z" transform="translate(-105.146 -68.72)" fill="#ffce33"/>
        </g>
        <g id="Group_2547" data-name="Group 2547" transform="translate(12.704 58.241)">
          <path id="Path_6338" data-name="Path 6338" d="M115.465,142.705a1.307,1.307,0,0,1-1.737-.475h0a1.306,1.306,0,0,1-.084-1.8l42.539-34.041a1.307,1.307,0,0,1,1.737.475h0a1.306,1.306,0,0,1,.084,1.8Z" transform="translate(-113.324 -106.211)" fill="#ffce33"/>
        </g>
        <g id="Group_2548" data-name="Group 2548" transform="translate(17.225 59.299)">
          <path id="Path_6339" data-name="Path 6339" d="M118.584,138.208a1.256,1.256,0,0,1-1.713.472h0a1.256,1.256,0,0,1-.472-1.713l16.717-29.438a1.256,1.256,0,0,1,1.713-.472h0a1.257,1.257,0,0,1,.474,1.713Z" transform="translate(-116.234 -106.892)" fill="#ffce33"/>
        </g>
      </g>
    </g>
    <g id="Group_2555" data-name="Group 2555" transform="translate(35.496 29.829)">
      <g id="Group_2551" data-name="Group 2551" transform="translate(49.692)">
        <path id="Path_6340" data-name="Path 6340" d="M128.218,181.429a2.768,2.768,0,0,1-1.637,3.557h0a2.769,2.769,0,0,1-3.557-1.637L67.656,33.559A2.768,2.768,0,0,1,69.294,30h0a2.768,2.768,0,0,1,3.557,1.637Z" transform="translate(-67.484 -29.829)" fill="#f73e3e"/>
      </g>
      <g id="Group_2552" data-name="Group 2552" transform="translate(38.233 6.699)">
        <path id="Path_6341" data-name="Path 6341" d="M120.033,75.384S104.766,75,91.025,80.728A83.746,83.746,0,0,0,67.742,95.613S60.108,83.4,60.108,70.422s6.107-32.062,13.74-35.5c5.527-2.489,22.664.429,35.031,16.285A62.052,62.052,0,0,1,120.033,75.384Z" transform="translate(-60.108 -34.141)" fill="#eaeaea"/>
      </g>
      <g id="Group_2553" data-name="Group 2553" transform="translate(0 7.484)">
        <path id="Path_6342" data-name="Path 6342" d="M87.47,34.646S56.935,47.624,44.72,72.05s-8.779,33.589-8.779,33.589A42.4,42.4,0,0,1,57.317,96.1a145.019,145.019,0,0,1,24.046-.764,77.237,77.237,0,0,1-5.089-25.191C75.942,59,78.233,45.9,87.47,34.646Z" transform="translate(-35.496 -34.646)" fill="#f73e3e"/>
      </g>
      <g id="Group_2554" data-name="Group 2554" transform="translate(54.114 1.822)">
        <path id="Path_6343" data-name="Path 6343" d="M70.331,34.939s31.745-9.642,56.789,1.254,28.289,20.125,28.289,20.125a42.421,42.421,0,0,0-22.518,6.4A144.993,144.993,0,0,0,113.96,77.563,77.247,77.247,0,0,0,101.7,54.977C94.8,46.218,84.635,37.64,70.331,34.939Z" transform="translate(-70.331 -31.002)" fill="#f73e3e"/>
      </g>
    </g>
  </g>
</svg>
