<svg xmlns="http://www.w3.org/2000/svg" width="127.907" height="183.023" viewBox="0 0 127.907 183.023">
  <g id="Group_2560" data-name="Group 2560" transform="translate(-83.891 -11.111)" opacity="0.5">
    <path id="Path_6344" data-name="Path 6344" d="M134.018,59.237l5.428-2.067-1.41-7.063-5.8.178c-.256-.6-.535-1.187-.841-1.761l3.775-4.4-4.617-5.528-4.99,2.917a22.27,22.27,0,0,0-2.19-1.549l1.023-5.673-6.776-2.435L114.8,36.875a22.351,22.351,0,0,0-2.948-.2l-2.059-5.408-7.063,1.41.178,5.8c-.6.256-1.184.541-1.758.847l-4.408-3.775L91.21,40.166l2.928,5.01A22.429,22.429,0,0,0,92.6,47.351l-5.7-1.028L84.471,53.1l5.065,2.845a21.763,21.763,0,0,0-.192,2.909l-5.453,2.076L85.3,67.991l5.848-.178q.376.878.827,1.722l-3.809,4.444,4.614,5.528,5.049-2.951a22.626,22.626,0,0,0,2.145,1.513l-1.036,5.742,6.779,2.435,2.856-5.088a22.441,22.441,0,0,0,2.889.2l2.084,5.469,7.06-1.41-.178-5.851q.878-.376,1.722-.825l4.447,3.806,5.528-4.614L129.186,72.9a22.582,22.582,0,0,0,1.53-2.157l5.715,1.031L138.866,65l-5.049-2.836A21.566,21.566,0,0,0,134.018,59.237Zm-13.365,3.006a9.534,9.534,0,1,1-5.748-12.2A9.533,9.533,0,0,1,120.652,62.244Z" transform="translate(0 36.012)" fill="#8994f0"/>
    <g id="Group_2557" data-name="Group 2557" transform="translate(157.783 140.078)">
      <path id="Path_6345" data-name="Path 6345" d="M123.177,79.322a11.03,11.03,0,1,1,9.161-12.627A11.044,11.044,0,0,1,123.177,79.322Zm-3.185-20.013a9.235,9.235,0,1,0,10.574,7.67A9.248,9.248,0,0,0,119.992,59.309Z" transform="translate(-110.411 -57.398)" fill="#8994f0"/>
    </g>
    <g id="Group_2558" data-name="Group 2558" transform="translate(125.846 108.183)">
      <path id="Path_6346" data-name="Path 6346" d="M184.9,87.716l-1.747-10.98-8.941-.081a34.2,34.2,0,0,0-1.909-4.107l5.806-6.837-7.166-8.5-7.715,4.555q-1.187-.932-2.449-1.755l1.828-8.771-10.359-4.043-4.581,7.662a34.121,34.121,0,0,0-4.115-.468l-2.839-8.437-10.98,1.75-.081,8.9a33.619,33.619,0,0,0-4.132,1.928l-6.812-5.787-8.5,7.166,4.555,7.712q-.932,1.191-1.753,2.455l-8.774-1.831L100.192,78.6l7.69,4.6a34.172,34.172,0,0,0-.457,4.085l-8.476,2.85,1.75,10.983,8.969.078a33.584,33.584,0,0,0,1.9,4.079l-5.832,6.865,7.166,8.506,7.779-4.594q1.166.907,2.4,1.714l-1.847,8.849,10.359,4.046,4.636-7.751a34.355,34.355,0,0,0,4.026.451l2.873,8.54,10.983-1.747.078-9.011a33.983,33.983,0,0,0,4.054-1.883l6.89,5.851,8.506-7.166-4.6-7.782q.911-1.162,1.719-2.4l8.846,1.844,4.046-10.359-7.723-4.617a34.361,34.361,0,0,0,.463-4.057Zm-39.065,25.77a24.92,24.92,0,1,1,20.7-28.525A24.948,24.948,0,0,1,145.835,113.486Z" transform="translate(-98.949 -45.951)" fill="#8994f0"/>
      <path id="Path_6347" data-name="Path 6347" d="M124.47,54.129a20.865,20.865,0,1,0,23.886,17.327A20.892,20.892,0,0,0,124.47,54.129Zm5.592,35.142a14.721,14.721,0,1,1,12.226-16.851A14.717,14.717,0,0,1,130.062,89.272Z" transform="translate(-84.78 -31.809)" fill="#8994f0"/>
    </g>
    <g id="Group_2559" data-name="Group 2559" transform="translate(124.344 11.111)">
      <path id="Path_6348" data-name="Path 6348" d="M170.356,51l-.2-9.359-7.445-1.089a29.049,29.049,0,0,0-1.12-3.644l5.625-5.037-5-7.913-6.957,2.917c-.588-.61-1.2-1.19-1.842-1.747l2.53-7.1-8.175-4.561-4.7,5.865a28.539,28.539,0,0,0-3.377-.861l-1.4-7.361-9.359.2-1.087,7.414a28.657,28.657,0,0,0-3.667,1.131l-5.018-5.6-7.913,5,2.914,6.954q-.911.882-1.741,1.844l-7.1-2.533-4.561,8.175,5.884,4.717a29.21,29.21,0,0,0-.85,3.352L98.41,43.166l.2,9.356,7.47,1.095a28.37,28.37,0,0,0,1.12,3.619l-5.65,5.057,5,7.913,7.013-2.939c.577.6,1.181,1.162,1.805,1.705l-2.552,7.169,8.175,4.558,4.753-5.929a29.565,29.565,0,0,0,3.3.839l1.418,7.448,9.356-.2,1.1-7.5a27.958,27.958,0,0,0,3.594-1.106l5.076,5.67,7.913-5L154.566,67.9q.89-.865,1.708-1.8l7.166,2.552L168,60.48l-5.91-4.737a29.433,29.433,0,0,0,.853-3.33ZM137.732,68.086a21.267,21.267,0,1,1,17.662-24.343A21.292,21.292,0,0,1,137.732,68.086Z" transform="translate(-98.41 -11.111)" fill="#8994f0"/>
      <path id="Path_6349" data-name="Path 6349" d="M119.943,17.854A17.805,17.805,0,1,0,140.327,32.64,17.831,17.831,0,0,0,119.943,17.854Zm15.179,17.28a12.39,12.39,0,1,1-12.649-12.126A12.392,12.392,0,0,1,135.122,35.134Z" transform="translate(-86.762 0.535)" fill="#8994f0"/>
    </g>
  </g>
</svg>
